<svg xmlns="http://www.w3.org/2000/svg" xmlns:xlink="http://www.w3.org/1999/xlink" width="600" zoomAndPan="magnify" viewBox="0 0 450 449.999984" height="600" preserveAspectRatio="xMidYMid meet" version="1.0"><defs><clipPath id="d390129bfe"><path d="M 402 132 L 449.914062 132 L 449.914062 180 L 402 180 Z M 402 132 " clip-rule="nonzero"/></clipPath><clipPath id="e2f6f2dc11"><path d="M 402 332 L 449.914062 332 L 449.914062 450 L 402 450 Z M 402 332 " clip-rule="nonzero"/></clipPath><clipPath id="780b9de241"><path d="M 402 132 L 449.914062 132 L 449.914062 180 L 402 180 Z M 402 132 " clip-rule="nonzero"/></clipPath><clipPath id="a48685da73"><path d="M 402 332 L 449.914062 332 L 449.914062 450 L 402 450 Z M 402 332 " clip-rule="nonzero"/></clipPath></defs><rect x="-45" width="540" fill="#ffffff" y="-44.999998" height="539.99998" fill-opacity="1"/><rect x="-45" width="540" fill="#13144d" y="-44.999998" height="539.99998" fill-opacity="1"/><g clip-path="url(#d390129bfe)"><path fill="#1bdb00" d="M 942.667969 133.335938 L 942.667969 132.835938 L 402.363281 132.835938 C 402.363281 132.835938 402.363281 132.835938 402.304688 132.835938 L 402.304688 179.492188 L 402.363281 179.492188 C 402.363281 179.492188 942.609375 179.492188 942.609375 179.492188 C 942.609375 179.492188 942.609375 179.492188 942.667969 179.492188 L 942.667969 133.335938 L 942.609375 133.335938 Z M 942.667969 133.335938 " fill-opacity="1" fill-rule="nonzero"/></g><g clip-path="url(#e2f6f2dc11)"><path fill="#1bdb00" d="M 456.9375 728.640625 C 455.378906 716.710938 453.035156 704.835938 451.363281 692.90625 C 450.417969 684.601562 449.636719 676.238281 449.246094 668.769531 C 449.246094 668.601562 449.246094 668.378906 449.246094 668.210938 C 449.132812 655.335938 449.078125 642.402344 448.96875 629.523438 L 448.96875 332.960938 L 402.304688 332.960938 L 402.304688 642.125 C 402.304688 642.125 402.304688 663.640625 413.789062 684.824219 C 413.789062 684.824219 414.011719 685.324219 414.460938 686.21875 C 414.570312 686.496094 414.683594 686.71875 414.847656 686.941406 C 415.238281 687.777344 415.742188 688.78125 416.464844 690.0625 C 418.695312 694.414062 421.09375 698.703125 423.878906 702.886719 C 426.222656 706.398438 429.679688 710.523438 433.523438 714.703125 C 437.761719 719.609375 442.722656 724.683594 448.410156 729.53125 C 453.371094 733.992188 457.105469 736.945312 457.550781 736.613281 C 457.386719 733.992188 457.328125 731.316406 456.996094 728.695312 Z M 456.9375 728.640625 " fill-opacity="1" fill-rule="nonzero"/></g><g clip-path="url(#780b9de241)"><path fill="#06e3a7" d="M 942.667969 133.335938 L 942.667969 132.835938 L 402.363281 132.835938 C 402.363281 132.835938 402.363281 132.835938 402.304688 132.835938 L 402.304688 179.492188 L 402.363281 179.492188 C 402.363281 179.492188 942.609375 179.492188 942.609375 179.492188 C 942.609375 179.492188 942.609375 179.492188 942.667969 179.492188 L 942.667969 133.335938 L 942.609375 133.335938 Z M 942.667969 133.335938 " fill-opacity="1" fill-rule="nonzero"/></g><g clip-path="url(#a48685da73)"><path fill="#06e3a7" d="M 456.9375 728.640625 C 455.378906 716.710938 453.035156 704.835938 451.363281 692.90625 C 450.417969 684.601562 449.636719 676.238281 449.246094 668.769531 C 449.246094 668.601562 449.246094 668.378906 449.246094 668.210938 C 449.132812 655.335938 449.078125 642.402344 448.96875 629.523438 L 448.96875 332.960938 L 402.304688 332.960938 L 402.304688 642.125 C 402.304688 642.125 402.304688 663.640625 413.789062 684.824219 C 413.789062 684.824219 414.011719 685.324219 414.460938 686.21875 C 414.570312 686.496094 414.683594 686.71875 414.847656 686.941406 C 415.238281 687.777344 415.742188 688.78125 416.464844 690.0625 C 418.695312 694.414062 421.09375 698.703125 423.878906 702.886719 C 426.222656 706.398438 429.679688 710.523438 433.523438 714.703125 C 437.761719 719.609375 442.722656 724.683594 448.410156 729.53125 C 453.371094 733.992188 457.105469 736.945312 457.550781 736.613281 C 457.386719 733.992188 457.328125 731.316406 456.996094 728.695312 Z M 456.9375 728.640625 " fill-opacity="1" fill-rule="nonzero"/></g></svg>