<svg xmlns="http://www.w3.org/2000/svg" xmlns:xlink="http://www.w3.org/1999/xlink" width="600" zoomAndPan="magnify" viewBox="0 0 450 449.999984" height="600" preserveAspectRatio="xMidYMid meet" version="1.0"><defs><clipPath id="ebe748f9c0"><path d="M 300.449219 324 L 307 324 L 307 365.789062 L 300.449219 365.789062 Z M 300.449219 324 " clip-rule="nonzero"/></clipPath><clipPath id="70adef912d"><path d="M 312 324 L 348 324 L 348 365.789062 L 312 365.789062 Z M 312 324 " clip-rule="nonzero"/></clipPath><clipPath id="6ec2a65da5"><path d="M 352 323 L 393 323 L 393 365.789062 L 352 365.789062 Z M 352 323 " clip-rule="nonzero"/></clipPath><clipPath id="046fb1caa1"><path d="M 398 324 L 438 324 L 438 365.789062 L 398 365.789062 Z M 398 324 " clip-rule="nonzero"/></clipPath><clipPath id="d765f19cac"><path d="M 300.359375 381 L 313 381 L 313 400 L 300.359375 400 Z M 300.359375 381 " clip-rule="nonzero"/></clipPath></defs><rect x="-45" width="540" fill="#ffffff" y="-44.999998" height="539.99998" fill-opacity="1"/><rect x="-45" width="540" fill="#13144d" y="-44.999998" height="539.99998" fill-opacity="1"/><path fill="#f4f5f7" d="M 40.375 324.371094 L 53.003906 324.371094 L 53.003906 348.707031 C 53.003906 351.117188 52.621094 353.394531 51.867188 355.546875 C 51.113281 357.699219 49.925781 359.5625 48.324219 361.171875 C 46.714844 362.777344 45.019531 363.902344 43.253906 364.550781 C 40.796875 365.457031 37.84375 365.910156 34.402344 365.910156 C 32.410156 365.910156 30.242188 365.765625 27.878906 365.488281 C 25.523438 365.210938 23.550781 364.652344 21.96875 363.828125 C 20.390625 363.003906 18.945312 361.832031 17.621094 360.304688 C 16.308594 358.78125 15.410156 357.214844 14.925781 355.597656 C 14.140625 353 13.75 350.695312 13.75 348.695312 L 13.75 324.363281 L 26.378906 324.363281 L 26.378906 349.28125 C 26.378906 351.507812 27 353.25 28.238281 354.503906 C 29.476562 355.761719 31.191406 356.378906 33.390625 356.378906 C 35.589844 356.378906 37.273438 355.761719 38.515625 354.527344 C 39.753906 353.289062 40.375 351.539062 40.375 349.28125 L 40.375 324.363281 Z M 40.375 324.371094 " fill-opacity="1" fill-rule="nonzero"/><path fill="#f4f5f7" d="M 58.671875 324.371094 L 75.3125 324.371094 L 81.722656 349.230469 L 88.097656 324.371094 L 104.722656 324.371094 L 104.722656 365.21875 L 94.363281 365.21875 L 94.363281 334.066406 L 86.382812 365.21875 L 77.003906 365.21875 L 69.03125 334.066406 L 69.03125 365.21875 L 58.671875 365.21875 Z M 58.671875 324.371094 " fill-opacity="1" fill-rule="nonzero"/><path fill="#f4f5f7" d="M 110.382812 324.371094 L 127.019531 324.371094 L 133.433594 349.230469 L 139.804688 324.371094 L 156.433594 324.371094 L 156.433594 365.21875 L 146.074219 365.21875 L 146.074219 334.066406 L 138.089844 365.21875 L 128.714844 365.21875 L 120.742188 334.066406 L 120.742188 365.21875 L 110.382812 365.21875 Z M 110.382812 324.371094 " fill-opacity="1" fill-rule="nonzero"/><path fill="#f4f5f7" d="M 189.6875 358.472656 L 175.320312 358.472656 L 173.328125 365.21875 L 160.410156 365.21875 L 175.796875 324.371094 L 189.59375 324.371094 L 204.980469 365.21875 L 191.730469 365.21875 Z M 187.0625 349.644531 L 182.539062 334.964844 L 178.070312 349.644531 Z M 187.0625 349.644531 " fill-opacity="1" fill-rule="nonzero"/><path fill="#f4f5f7" d="M 209.0625 324.371094 L 221.710938 324.371094 L 221.710938 338.671875 L 235.539062 338.671875 L 235.539062 324.371094 L 248.253906 324.371094 L 248.253906 365.21875 L 235.539062 365.21875 L 235.539062 348.695312 L 221.710938 348.695312 L 221.710938 365.21875 L 209.0625 365.21875 Z M 209.0625 324.371094 " fill-opacity="1" fill-rule="nonzero"/><path fill="#f4f5f7" d="M 268.289062 324.371094 L 306.746094 324.371094 L 306.746094 334.457031 L 293.839844 334.457031 L 293.839844 365.21875 L 281.1875 365.21875 L 281.1875 334.457031 L 268.277344 334.457031 L 268.277344 324.371094 Z M 268.289062 324.371094 " fill-opacity="1" fill-rule="nonzero"/><path fill="#f4f5f7" d="M 312.449219 324.371094 L 346.355469 324.371094 L 346.355469 333.097656 L 325.121094 333.097656 L 325.121094 339.589844 L 344.816406 339.589844 L 344.816406 347.921875 L 325.121094 347.921875 L 325.121094 355.980469 L 346.960938 355.980469 L 346.960938 365.230469 L 312.4375 365.230469 L 312.4375 324.382812 Z M 312.449219 324.371094 " fill-opacity="1" fill-rule="nonzero"/><path fill="#f4f5f7" d="M 381.042969 348.5 L 392.136719 351.847656 C 391.390625 354.949219 390.214844 357.542969 388.613281 359.625 C 387.011719 361.707031 385.019531 363.273438 382.65625 364.332031 C 380.289062 365.394531 377.261719 365.921875 373.585938 365.921875 C 369.136719 365.921875 365.5 365.269531 362.679688 363.984375 C 359.863281 362.695312 357.425781 360.417969 355.378906 357.175781 C 353.335938 353.929688 352.300781 349.765625 352.300781 344.699219 C 352.300781 337.941406 354.097656 332.75 357.703125 329.121094 C 361.308594 325.496094 366.410156 323.683594 373 323.683594 C 378.152344 323.683594 382.210938 324.722656 385.164062 326.804688 C 388.117188 328.886719 390.308594 332.078125 391.742188 336.386719 L 380.566406 338.867188 C 380.175781 337.621094 379.773438 336.714844 379.339844 336.136719 C 378.625 335.167969 377.769531 334.425781 376.738281 333.914062 C 375.714844 333.398438 374.566406 333.128906 373.296875 333.128906 C 370.425781 333.128906 368.238281 334.285156 366.707031 336.582031 C 365.550781 338.289062 364.972656 340.96875 364.972656 344.625 C 364.972656 349.160156 365.664062 352.261719 367.039062 353.9375 C 368.414062 355.617188 370.355469 356.464844 372.855469 356.464844 C 375.351562 356.464844 377.109375 355.78125 378.335938 354.433594 C 379.578125 353.074219 380.476562 351.105469 381.03125 348.53125 Z M 381.042969 348.5 " fill-opacity="1" fill-rule="nonzero"/><path fill="#f4f5f7" d="M 398.339844 324.371094 L 410.992188 324.371094 L 410.992188 338.671875 L 424.820312 338.671875 L 424.820312 324.371094 L 437.535156 324.371094 L 437.535156 365.21875 L 424.820312 365.21875 L 424.820312 348.695312 L 410.992188 348.695312 L 410.992188 365.21875 L 398.339844 365.21875 Z M 398.339844 324.371094 " fill-opacity="1" fill-rule="nonzero"/><path fill="#06e3a7" d="M 47.492188 381.292969 L 47.492188 384.648438 L 38.734375 384.648438 L 38.734375 388.832031 L 46.324219 388.832031 L 46.324219 391.933594 L 38.734375 391.933594 L 38.734375 399.421875 L 34.746094 399.421875 L 34.746094 381.28125 L 47.480469 381.28125 Z M 47.492188 381.292969 " fill-opacity="1" fill-rule="nonzero"/><path fill="#06e3a7" d="M 60.480469 381.292969 L 67.25 399.433594 L 63.121094 399.433594 L 61.746094 395.394531 L 54.976562 395.394531 L 53.554688 399.433594 L 49.542969 399.433594 L 56.398438 381.292969 Z M 60.710938 392.414062 L 58.421875 385.757812 L 58.371094 385.757812 L 56.011719 392.414062 Z M 60.710938 392.414062 " fill-opacity="1" fill-rule="nonzero"/><path fill="#06e3a7" d="M 71.878906 381.292969 L 75.867188 381.292969 L 75.867188 399.433594 L 71.878906 399.433594 Z M 71.878906 381.292969 " fill-opacity="1" fill-rule="nonzero"/><path fill="#06e3a7" d="M 80.984375 384.648438 L 80.984375 381.292969 L 95.828125 381.292969 L 95.828125 384.648438 L 90.394531 384.648438 L 90.394531 399.433594 L 86.40625 399.433594 L 86.40625 384.648438 L 80.972656 384.648438 Z M 80.984375 384.648438 " fill-opacity="1" fill-rule="nonzero"/><path fill="#06e3a7" d="M 104.9375 381.292969 L 104.9375 388.253906 L 112.273438 388.253906 L 112.273438 381.292969 L 116.261719 381.292969 L 116.261719 399.433594 L 112.273438 399.433594 L 112.273438 391.605469 L 104.9375 391.605469 L 104.9375 399.433594 L 100.949219 399.433594 L 100.949219 381.292969 Z M 104.9375 381.292969 " fill-opacity="1" fill-rule="nonzero"/><path fill="#06e3a7" d="M 122.644531 381.292969 L 124.246094 381.292969 L 131.332031 398.191406 L 131.378906 398.191406 L 138.378906 381.292969 L 139.980469 381.292969 L 139.980469 399.433594 L 138.863281 399.433594 L 138.863281 382.667969 L 138.8125 382.667969 L 131.910156 399.433594 L 130.789062 399.433594 L 123.8125 382.667969 L 123.765625 382.667969 L 123.765625 399.433594 L 122.644531 399.433594 Z M 122.644531 381.292969 " fill-opacity="1" fill-rule="nonzero"/><path fill="#06e3a7" d="M 146.222656 381.292969 L 158.402344 381.292969 L 158.402344 382.257812 L 147.34375 382.257812 L 147.34375 389.519531 L 157.738281 389.519531 L 157.738281 390.484375 L 147.34375 390.484375 L 147.34375 398.457031 L 158.535156 398.457031 L 158.535156 399.421875 L 146.234375 399.421875 L 146.234375 381.28125 Z M 146.222656 381.292969 " fill-opacity="1" fill-rule="nonzero"/><path fill="#06e3a7" d="M 163.472656 381.292969 L 175.65625 381.292969 L 175.65625 382.257812 L 164.59375 382.257812 L 164.59375 389.519531 L 174.992188 389.519531 L 174.992188 390.484375 L 164.59375 390.484375 L 164.59375 398.457031 L 175.785156 398.457031 L 175.785156 399.421875 L 163.488281 399.421875 L 163.488281 381.28125 Z M 163.472656 381.292969 " fill-opacity="1" fill-rule="nonzero"/><path fill="#06e3a7" d="M 178.773438 382.257812 L 178.773438 381.292969 L 192.652344 381.292969 L 192.652344 382.257812 L 186.257812 382.257812 L 186.257812 399.433594 L 185.136719 399.433594 L 185.136719 382.257812 L 178.761719 382.257812 Z M 178.773438 382.257812 " fill-opacity="1" fill-rule="nonzero"/><path fill="#06e3a7" d="M 208.460938 386.46875 C 208.421875 385.683594 208.253906 385.007812 207.964844 384.429688 C 207.664062 383.851562 207.265625 383.367188 206.761719 382.980469 C 206.253906 382.597656 205.652344 382.292969 204.941406 382.101562 C 204.242188 381.910156 203.472656 381.8125 202.640625 381.8125 C 202.132812 381.8125 201.59375 381.871094 201.003906 381.992188 C 200.410156 382.113281 199.882812 382.320312 199.375 382.621094 C 198.882812 382.921875 198.460938 383.320312 198.148438 383.816406 C 197.820312 384.308594 197.664062 384.9375 197.664062 385.683594 C 197.664062 386.433594 197.84375 387.011719 198.195312 387.457031 C 198.542969 387.914062 199.015625 388.277344 199.59375 388.566406 C 200.171875 388.84375 200.832031 389.074219 201.570312 389.242188 C 202.316406 389.410156 203.0625 389.566406 203.820312 389.726562 C 204.605469 389.882812 205.351562 390.0625 206.097656 390.269531 C 206.832031 390.484375 207.496094 390.761719 208.074219 391.136719 C 208.664062 391.5 209.121094 391.980469 209.484375 392.558594 C 209.832031 393.140625 210.011719 393.875 210.011719 394.753906 C 210.011719 395.707031 209.808594 396.503906 209.398438 397.144531 C 208.988281 397.78125 208.484375 398.3125 207.871094 398.722656 C 207.253906 399.132812 206.566406 399.421875 205.808594 399.605469 C 205.050781 399.785156 204.339844 399.871094 203.640625 399.871094 C 202.582031 399.871094 201.582031 399.761719 200.640625 399.53125 C 199.699219 399.300781 198.894531 398.929688 198.207031 398.410156 C 197.519531 397.890625 196.964844 397.226562 196.570312 396.417969 C 196.171875 395.613281 195.976562 394.609375 196.003906 393.453125 L 197.121094 393.453125 C 197.074219 394.453125 197.21875 395.296875 197.554688 395.984375 C 197.894531 396.671875 198.363281 397.238281 198.964844 397.675781 C 199.570312 398.121094 200.265625 398.433594 201.085938 398.628906 C 201.894531 398.820312 202.75 398.917969 203.652344 398.917969 C 204.195312 398.917969 204.773438 398.84375 205.386719 398.710938 C 206 398.578125 206.566406 398.351562 207.085938 398.023438 C 207.605469 397.699219 208.039062 397.277344 208.375 396.757812 C 208.710938 396.238281 208.894531 395.574219 208.894531 394.777344 C 208.894531 393.984375 208.710938 393.390625 208.363281 392.910156 C 208.015625 392.425781 207.542969 392.042969 206.953125 391.738281 C 206.375 391.4375 205.710938 391.207031 204.976562 391.027344 C 204.242188 390.847656 203.484375 390.691406 202.699219 390.535156 C 201.941406 390.375 201.183594 390.207031 200.449219 390.003906 C 199.714844 389.796875 199.039062 389.519531 198.472656 389.183594 C 197.894531 388.832031 197.4375 388.386719 197.074219 387.832031 C 196.726562 387.277344 196.542969 386.578125 196.542969 385.707031 C 196.542969 384.839844 196.726562 384.105469 197.085938 383.488281 C 197.449219 382.875 197.917969 382.367188 198.507812 381.992188 C 199.097656 381.621094 199.75 381.328125 200.472656 381.160156 C 201.195312 380.980469 201.917969 380.894531 202.628906 380.894531 C 203.582031 380.894531 204.460938 381.003906 205.277344 381.210938 C 206.097656 381.425781 206.820312 381.753906 207.433594 382.199219 C 208.050781 382.644531 208.542969 383.222656 208.917969 383.933594 C 209.289062 384.648438 209.496094 385.503906 209.554688 386.503906 L 208.433594 386.503906 Z M 208.460938 386.46875 " fill-opacity="1" fill-rule="nonzero"/><path fill="#06e3a7" d="M 214.398438 384.648438 L 214.398438 381.292969 L 229.242188 381.292969 L 229.242188 384.648438 L 223.808594 384.648438 L 223.808594 399.433594 L 219.820312 399.433594 L 219.820312 384.648438 L 214.386719 384.648438 Z M 214.398438 384.648438 " fill-opacity="1" fill-rule="nonzero"/><path fill="#06e3a7" d="M 247.914062 381.292969 L 247.914062 384.648438 L 238.347656 384.648438 L 238.347656 388.53125 L 247.132812 388.53125 L 247.132812 391.632812 L 238.347656 391.632812 L 238.347656 396.082031 L 248.121094 396.082031 L 248.121094 399.433594 L 234.363281 399.433594 L 234.363281 381.292969 Z M 247.914062 381.292969 " fill-opacity="1" fill-rule="nonzero"/><path fill="#06e3a7" d="M 265.480469 386.128906 C 265.238281 385.746094 264.949219 385.417969 264.589844 385.128906 C 264.238281 384.839844 263.828125 384.621094 263.382812 384.453125 C 262.9375 384.296875 262.46875 384.210938 261.972656 384.210938 C 261.082031 384.210938 260.3125 384.382812 259.683594 384.730469 C 259.058594 385.082031 258.550781 385.539062 258.167969 386.128906 C 257.78125 386.710938 257.492188 387.386719 257.3125 388.121094 C 257.132812 388.867188 257.046875 389.640625 257.046875 390.4375 C 257.046875 391.234375 257.132812 391.945312 257.3125 392.65625 C 257.492188 393.378906 257.769531 394.019531 258.167969 394.597656 C 258.550781 395.175781 259.058594 395.636719 259.683594 395.984375 C 260.3125 396.335938 261.070312 396.503906 261.972656 396.503906 C 263.191406 396.503906 264.144531 396.128906 264.828125 395.382812 C 265.515625 394.632812 265.9375 393.65625 266.082031 392.4375 L 269.9375 392.4375 C 269.839844 393.574219 269.574219 394.597656 269.15625 395.515625 C 268.734375 396.433594 268.179688 397.203125 267.480469 397.855469 C 266.78125 398.496094 265.972656 398.988281 265.046875 399.328125 C 264.117188 399.664062 263.09375 399.832031 261.972656 399.832031 C 260.589844 399.832031 259.335938 399.59375 258.226562 399.109375 C 257.117188 398.628906 256.179688 397.964844 255.421875 397.121094 C 254.660156 396.273438 254.070312 395.273438 253.671875 394.128906 C 253.265625 392.980469 253.058594 391.75 253.058594 390.4375 C 253.058594 389.121094 253.265625 387.820312 253.671875 386.660156 C 254.082031 385.503906 254.660156 384.488281 255.421875 383.621094 C 256.179688 382.753906 257.117188 382.078125 258.226562 381.59375 C 259.335938 381.101562 260.589844 380.859375 261.972656 380.859375 C 262.972656 380.859375 263.914062 381.003906 264.804688 381.292969 C 265.695312 381.582031 266.492188 382.003906 267.191406 382.546875 C 267.890625 383.089844 268.46875 383.777344 268.925781 384.597656 C 269.382812 385.40625 269.671875 386.347656 269.792969 387.398438 L 265.9375 387.398438 C 265.867188 386.9375 265.722656 386.515625 265.480469 386.144531 Z M 265.480469 386.128906 " fill-opacity="1" fill-rule="nonzero"/><path fill="#06e3a7" d="M 279.683594 381.292969 L 279.683594 388.253906 L 287.019531 388.253906 L 287.019531 381.292969 L 291.007812 381.292969 L 291.007812 399.433594 L 287.019531 399.433594 L 287.019531 391.605469 L 279.683594 391.605469 L 279.683594 399.433594 L 275.695312 399.433594 L 275.695312 381.292969 Z M 279.683594 381.292969 " fill-opacity="1" fill-rule="nonzero"/><path fill="#06e3a7" d="M 301.515625 381.292969 L 309.078125 393.464844 L 309.128906 393.464844 L 309.128906 381.292969 L 312.863281 381.292969 L 312.863281 399.433594 L 308.875 399.433594 L 301.34375 387.289062 L 301.296875 387.289062 L 301.296875 399.433594 L 297.5625 399.433594 L 297.5625 381.292969 L 301.527344 381.292969 Z M 301.515625 381.292969 " fill-opacity="1" fill-rule="nonzero"/><path fill="#06e3a7" d="M 319.222656 386.660156 C 319.632812 385.503906 320.210938 384.488281 320.96875 383.621094 C 321.730469 382.753906 322.667969 382.078125 323.777344 381.59375 C 324.886719 381.101562 326.140625 380.859375 327.523438 380.859375 C 328.910156 380.859375 330.175781 381.101562 331.28125 381.59375 C 332.378906 382.089844 333.320312 382.765625 334.078125 383.621094 C 334.835938 384.488281 335.425781 385.503906 335.824219 386.660156 C 336.234375 387.820312 336.4375 389.074219 336.4375 390.4375 C 336.4375 391.800781 336.234375 392.992188 335.824219 394.128906 C 335.414062 395.273438 334.835938 396.261719 334.078125 397.121094 C 333.320312 397.964844 332.390625 398.628906 331.28125 399.109375 C 330.1875 399.59375 328.933594 399.832031 327.523438 399.832031 C 326.113281 399.832031 324.886719 399.59375 323.777344 399.109375 C 322.667969 398.628906 321.730469 397.964844 320.96875 397.121094 C 320.210938 396.273438 319.621094 395.273438 319.222656 394.128906 C 318.8125 392.980469 318.609375 391.75 318.609375 390.4375 C 318.609375 389.121094 318.8125 387.820312 319.222656 386.660156 Z M 322.863281 392.65625 C 323.042969 393.378906 323.320312 394.019531 323.71875 394.597656 C 324.101562 395.175781 324.609375 395.636719 325.234375 395.984375 C 325.863281 396.335938 326.621094 396.503906 327.523438 396.503906 C 328.429688 396.503906 329.1875 396.335938 329.8125 395.984375 C 330.441406 395.636719 330.945312 395.175781 331.332031 394.597656 C 331.714844 394.019531 332.007812 393.378906 332.1875 392.65625 C 332.367188 391.933594 332.453125 391.195312 332.453125 390.4375 C 332.453125 389.675781 332.367188 388.867188 332.1875 388.121094 C 332.007812 387.371094 331.730469 386.710938 331.332031 386.128906 C 330.933594 385.550781 330.441406 385.082031 329.8125 384.730469 C 329.1875 384.382812 328.429688 384.210938 327.523438 384.210938 C 326.621094 384.210938 325.863281 384.382812 325.234375 384.730469 C 324.609375 385.082031 324.101562 385.539062 323.71875 386.128906 C 323.332031 386.710938 323.042969 387.386719 322.863281 388.121094 C 322.679688 388.867188 322.597656 389.640625 322.597656 390.4375 C 322.597656 391.234375 322.679688 391.945312 322.863281 392.65625 Z M 322.863281 392.65625 " fill-opacity="1" fill-rule="nonzero"/><path fill="#06e3a7" d="M 346.160156 381.292969 L 346.160156 396.082031 L 354.992188 396.082031 L 354.992188 399.433594 L 342.175781 399.433594 L 342.175781 381.292969 Z M 346.160156 381.292969 " fill-opacity="1" fill-rule="nonzero"/><path fill="#06e3a7" d="M 360.101562 386.660156 C 360.511719 385.503906 361.089844 384.488281 361.847656 383.621094 C 362.605469 382.753906 363.546875 382.078125 364.65625 381.59375 C 365.761719 381.101562 367.015625 380.859375 368.402344 380.859375 C 369.785156 380.859375 371.050781 381.101562 372.160156 381.59375 C 373.257812 382.089844 374.195312 382.765625 374.953125 383.621094 C 375.714844 384.488281 376.304688 385.503906 376.703125 386.660156 C 377.113281 387.820312 377.316406 389.074219 377.316406 390.4375 C 377.316406 391.800781 377.113281 392.992188 376.703125 394.128906 C 376.292969 395.273438 375.714844 396.261719 374.953125 397.121094 C 374.195312 397.964844 373.269531 398.628906 372.160156 399.109375 C 371.0625 399.59375 369.8125 399.832031 368.402344 399.832031 C 366.992188 399.832031 365.761719 399.59375 364.65625 399.109375 C 363.546875 398.628906 362.605469 397.964844 361.847656 397.121094 C 361.089844 396.273438 360.5 395.273438 360.101562 394.128906 C 359.691406 392.980469 359.484375 391.75 359.484375 390.4375 C 359.484375 389.121094 359.691406 387.820312 360.101562 386.660156 Z M 363.738281 392.65625 C 363.917969 393.378906 364.195312 394.019531 364.59375 394.597656 C 364.980469 395.175781 365.484375 395.636719 366.113281 395.984375 C 366.738281 396.335938 367.496094 396.503906 368.402344 396.503906 C 369.304688 396.503906 370.0625 396.335938 370.691406 395.984375 C 371.316406 395.636719 371.824219 395.175781 372.207031 394.597656 C 372.59375 394.019531 372.882812 393.378906 373.0625 392.65625 C 373.246094 391.933594 373.328125 391.195312 373.328125 390.4375 C 373.328125 389.675781 373.246094 388.867188 373.0625 388.121094 C 372.882812 387.371094 372.605469 386.710938 372.207031 386.128906 C 371.8125 385.550781 371.316406 385.082031 370.691406 384.730469 C 370.0625 384.382812 369.304688 384.210938 368.402344 384.210938 C 367.496094 384.210938 366.738281 384.382812 366.113281 384.730469 C 365.484375 385.082031 364.980469 385.539062 364.59375 386.128906 C 364.207031 386.710938 363.917969 387.386719 363.738281 388.121094 C 363.558594 388.867188 363.472656 389.640625 363.472656 390.4375 C 363.472656 391.234375 363.558594 391.945312 363.738281 392.65625 Z M 363.738281 392.65625 " fill-opacity="1" fill-rule="nonzero"/><path fill="#06e3a7" d="M 393.796875 399.289062 C 392.929688 399.652344 392.0625 399.832031 391.183594 399.832031 C 389.796875 399.832031 388.542969 399.59375 387.4375 399.109375 C 386.328125 398.628906 385.386719 397.964844 384.628906 397.121094 C 383.871094 396.273438 383.28125 395.273438 382.882812 394.128906 C 382.472656 392.980469 382.269531 391.75 382.269531 390.4375 C 382.269531 389.121094 382.472656 387.820312 382.882812 386.660156 C 383.292969 385.503906 383.871094 384.488281 384.628906 383.621094 C 385.386719 382.753906 386.328125 382.078125 387.4375 381.59375 C 388.542969 381.101562 389.796875 380.859375 391.183594 380.859375 C 392.109375 380.859375 393.015625 381.003906 393.882812 381.28125 C 394.75 381.558594 395.542969 381.96875 396.242188 382.511719 C 396.941406 383.054688 397.519531 383.71875 397.976562 384.515625 C 398.433594 385.308594 398.710938 386.226562 398.820312 387.253906 L 395.015625 387.253906 C 394.773438 386.238281 394.316406 385.480469 393.640625 384.960938 C 392.964844 384.453125 392.148438 384.199219 391.183594 384.199219 C 390.292969 384.199219 389.519531 384.371094 388.894531 384.71875 C 388.265625 385.070312 387.761719 385.527344 387.375 386.117188 C 386.992188 386.699219 386.703125 387.371094 386.519531 388.109375 C 386.339844 388.855469 386.253906 389.628906 386.253906 390.425781 C 386.253906 391.222656 386.339844 391.933594 386.519531 392.644531 C 386.703125 393.367188 386.976562 394.007812 387.375 394.585938 C 387.761719 395.164062 388.265625 395.625 388.894531 395.972656 C 389.519531 396.324219 390.277344 396.492188 391.183594 396.492188 C 392.507812 396.492188 393.519531 396.15625 394.242188 395.492188 C 394.964844 394.828125 395.375 393.851562 395.496094 392.582031 L 391.484375 392.582031 L 391.484375 389.617188 L 399.097656 389.617188 L 399.097656 399.421875 L 396.554688 399.421875 L 396.144531 397.359375 C 395.4375 398.277344 394.652344 398.917969 393.785156 399.277344 Z M 393.796875 399.289062 " fill-opacity="1" fill-rule="nonzero"/><path fill="#06e3a7" d="M 403.410156 381.292969 L 407.878906 381.292969 L 412.121094 388.457031 L 416.335938 381.292969 L 420.785156 381.292969 L 414.0625 392.476562 L 414.0625 399.433594 L 410.074219 399.433594 L 410.074219 392.367188 L 403.421875 381.292969 Z M 403.410156 381.292969 " fill-opacity="1" fill-rule="nonzero"/><path fill="#1bdb00" d="M 251.761719 242.285156 C 243.988281 247.078125 234.851562 249.671875 226.242188 253.050781 C 221.132812 255.066406 215.839844 256.652344 210.042969 258.628906 C 214.960938 264.023438 220.480469 267.027344 226.371094 267.140625 C 228.328125 267.175781 230.34375 266.914062 232.375 266.300781 C 242.644531 263.222656 253.382812 259.917969 262.21875 254.097656 C 282.074219 241.035156 290.648438 221.195312 290.667969 197.554688 C 290.703125 168.835938 290.667969 140.136719 290.667969 111.417969 L 274.96875 111.417969 C 274.96875 140.824219 274.96875 170.253906 274.914062 199.664062 C 274.875 217.949219 267.214844 232.710938 251.742188 242.265625 Z M 251.761719 242.285156 " fill-opacity="1" fill-rule="nonzero"/><path fill="#1bdb00" d="M 298.699219 184.679688 L 298.589844 201.136719 L 298.273438 208.378906 L 297.917969 211.027344 C 297.917969 211.027344 290.011719 275.425781 228.011719 274.378906 L 227.265625 274.378906 C 226.910156 274.359375 226.558594 274.34375 226.222656 274.324219 C 224.785156 274.25 223.371094 274.082031 221.992188 273.800781 C 221.46875 273.707031 220.945312 273.597656 220.445312 273.464844 L 220.40625 273.464844 C 219.902344 273.335938 219.398438 273.203125 218.914062 273.054688 C 217.5 272.625 216.136719 272.101562 214.832031 271.507812 C 214.179688 271.207031 213.546875 270.890625 212.929688 270.554688 C 212.875 270.515625 212.800781 270.480469 212.746094 270.441406 C 212.203125 270.164062 211.683594 269.84375 211.179688 269.507812 C 211.066406 269.453125 210.972656 269.398438 210.863281 269.324219 C 210.246094 268.929688 209.667969 268.519531 209.089844 268.089844 C 208.679688 267.792969 208.289062 267.476562 207.898438 267.140625 L 207.582031 266.898438 L 207.039062 266.410156 C 204.597656 264.265625 202.511719 261.726562 200.851562 258.929688 L 200.644531 258.613281 L 200.421875 258.183594 C 200.179688 257.773438 199.957031 257.363281 199.75 256.949219 C 199.566406 256.613281 199.398438 256.261719 199.25 255.90625 C 198.949219 255.253906 198.671875 254.601562 198.429688 253.910156 C 198.054688 252.957031 197.738281 251.988281 197.476562 250.980469 C 197.160156 249.859375 196.917969 248.703125 196.75 247.546875 C 196.710938 247.359375 196.695312 247.210938 196.695312 247.042969 C 196.546875 246.144531 196.46875 245.25 196.414062 244.335938 C 196.414062 244.335938 196.339844 243.570312 196.339844 243.570312 L 196.339844 111.4375 L 180.738281 111.4375 L 180.738281 231.648438 C 180.738281 231.648438 180.738281 238.90625 180.753906 242.097656 C 180.738281 242.824219 180.738281 243.347656 180.753906 243.515625 C 180.738281 243.550781 180.738281 243.609375 180.753906 243.644531 L 180.832031 245.625 C 180.847656 246.144531 180.90625 246.667969 180.960938 247.210938 L 181.148438 248.890625 L 181.332031 250.214844 C 181.371094 250.457031 181.40625 250.71875 181.464844 250.960938 L 181.855469 252.921875 C 181.910156 253.238281 181.984375 253.535156 182.078125 253.851562 L 182.394531 255.140625 C 182.394531 255.140625 182.414062 255.253906 182.453125 255.308594 L 183.140625 257.640625 C 183.199219 257.808594 183.253906 257.976562 183.328125 258.144531 L 184.335938 260.851562 L 185.660156 263.742188 L 186.925781 266.113281 C 187.019531 266.320312 187.148438 266.523438 187.28125 266.730469 L 188.15625 268.148438 C 188.25 268.316406 188.34375 268.464844 188.453125 268.632812 L 189.183594 269.714844 C 189.292969 269.863281 189.386719 270.011719 189.5 270.144531 L 190.617188 271.65625 C 190.953125 272.101562 191.289062 272.53125 191.640625 272.941406 C 191.773438 273.109375 191.921875 273.261719 192.035156 273.429688 L 192.816406 274.285156 C 192.945312 274.453125 193.097656 274.621094 193.265625 274.773438 C 193.691406 275.257812 194.140625 275.722656 194.585938 276.171875 C 195.054688 276.636719 195.539062 277.105469 196.023438 277.550781 C 196.210938 277.71875 196.394531 277.90625 196.601562 278.054688 C 196.957031 278.390625 197.328125 278.710938 197.699219 279.027344 C 199.339844 280.40625 201.074219 281.65625 202.882812 282.796875 L 204.28125 283.636719 C 204.394531 283.710938 204.503906 283.785156 204.617188 283.820312 L 205.960938 284.570312 C 206.070312 284.644531 206.183594 284.699219 206.292969 284.753906 L 207.339844 285.257812 L 208.046875 285.613281 C 208.457031 285.800781 208.867188 285.988281 209.277344 286.171875 C 209.539062 286.285156 209.816406 286.398438 210.078125 286.507812 C 210.46875 286.675781 210.878906 286.828125 211.273438 286.976562 L 212.445312 287.40625 C 213.042969 287.628906 213.65625 287.816406 214.273438 288.003906 C 214.832031 288.1875 215.390625 288.339844 215.949219 288.488281 L 216.191406 288.542969 C 216.492188 288.617188 216.789062 288.691406 217.089844 288.765625 L 217.347656 288.824219 C 217.648438 288.898438 217.945312 288.953125 218.261719 289.027344 L 218.484375 289.066406 L 219.214844 289.214844 L 220.40625 289.421875 L 220.425781 289.421875 L 221.300781 289.550781 C 222.269531 289.699219 223.238281 289.8125 224.226562 289.867188 L 226.035156 290 L 226.167969 290 C 226.78125 290.015625 227.398438 290.035156 228.011719 290.035156 L 228.347656 290.035156 C 228.347656 290.035156 292.175781 294.308594 310.070312 228.847656 L 310.742188 226.644531 L 311.617188 223.4375 L 312.027344 221.683594 L 312.421875 219.816406 L 312.832031 217.707031 L 313.128906 215.765625 L 313.558594 212.59375 L 313.726562 210.804688 L 313.855469 209.125 L 314.023438 205.167969 L 314.023438 202.425781 L 314.078125 200.128906 L 314.304688 195.074219 L 314.304688 111.4375 L 298.699219 111.4375 Z M 298.699219 184.679688 " fill-opacity="1" fill-rule="nonzero"/><path fill="#1bdb00" d="M 172.851562 227.113281 C 172.871094 225.824219 172.890625 224.519531 172.890625 223.230469 C 172.832031 207.890625 172.8125 192.554688 172.796875 177.214844 L 172.796875 111.453125 L 157.191406 111.453125 L 157.191406 213.042969 L 157.210938 213.042969 L 157.433594 229.6875 C 157.433594 229.6875 157.433594 230.152344 157.472656 230.976562 C 157.808594 240.546875 161.199219 249 167.089844 256.203125 C 167.128906 256.261719 167.183594 256.316406 167.222656 256.371094 C 168.957031 258.460938 170.875 260.460938 173 262.324219 C 173.785156 263.015625 174.808594 263.390625 175.722656 263.910156 C 175.667969 263.78125 175.648438 263.632812 175.59375 263.5 C 175.070312 261.671875 173.148438 253.164062 172.8125 227.113281 Z M 172.851562 227.113281 " fill-opacity="1" fill-rule="nonzero"/><path fill="#1bdb00" d="M 314.304688 44.628906 L 314.304688 44.460938 L 133.628906 44.460938 C 133.628906 44.460938 133.628906 44.460938 133.609375 44.460938 L 133.609375 60.082031 L 133.628906 60.082031 C 133.628906 60.082031 314.285156 60.082031 314.285156 60.082031 C 314.285156 60.082031 314.285156 60.082031 314.304688 60.082031 L 314.304688 44.628906 L 314.285156 44.628906 Z M 314.304688 44.628906 " fill-opacity="1" fill-rule="nonzero"/><path fill="#1bdb00" d="M 251.519531 111.4375 L 251.464844 111.4375 C 251.464844 139.667969 251.464844 167.902344 251.464844 196.15625 C 251.464844 210.523438 243.6875 222 230.265625 226.980469 C 224.023438 229.296875 217.664062 231.273438 211.382812 233.496094 L 204.46875 235.847656 C 203.273438 248.515625 206.144531 251.820312 206.144531 251.820312 L 216.882812 248.03125 C 223.480469 245.828125 230.117188 243.71875 236.679688 241.386719 C 253.792969 235.285156 266.84375 217.558594 266.917969 199.363281 C 267.046875 170.066406 267.085938 140.769531 267.101562 111.472656 L 251.5 111.472656 Z M 251.519531 111.4375 " fill-opacity="1" fill-rule="nonzero"/><path fill="#1bdb00" d="M 151.878906 243.90625 C 151.359375 239.914062 150.574219 235.9375 150.015625 231.945312 C 149.699219 229.164062 149.4375 226.367188 149.308594 223.867188 C 149.308594 223.808594 149.308594 223.734375 149.308594 223.679688 C 149.269531 219.367188 149.25 215.039062 149.214844 210.730469 L 149.214844 111.453125 L 133.609375 111.453125 L 133.609375 214.945312 C 133.609375 214.945312 133.609375 222.148438 137.453125 229.238281 C 137.453125 229.238281 137.527344 229.40625 137.675781 229.707031 C 137.710938 229.800781 137.75 229.875 137.804688 229.949219 C 137.9375 230.230469 138.105469 230.566406 138.347656 230.992188 C 139.09375 232.449219 139.894531 233.886719 140.824219 235.285156 C 141.609375 236.460938 142.765625 237.84375 144.050781 239.242188 C 145.46875 240.882812 147.125 242.582031 149.027344 244.207031 C 150.6875 245.699219 151.9375 246.6875 152.085938 246.574219 C 152.027344 245.699219 152.011719 244.804688 151.898438 243.925781 Z M 151.878906 243.90625 " fill-opacity="1" fill-rule="nonzero"/><path fill="#06e3a7" d="M 251.761719 242.285156 C 243.988281 247.078125 234.851562 249.671875 226.242188 253.050781 C 221.132812 255.066406 215.839844 256.652344 210.042969 258.628906 C 214.960938 264.023438 220.480469 267.027344 226.371094 267.140625 C 228.328125 267.175781 230.34375 266.914062 232.375 266.300781 C 242.644531 263.222656 253.382812 259.917969 262.21875 254.097656 C 282.074219 241.035156 290.648438 221.195312 290.667969 197.554688 C 290.703125 168.835938 290.667969 140.136719 290.667969 111.417969 L 274.96875 111.417969 C 274.96875 140.824219 274.96875 170.253906 274.914062 199.664062 C 274.875 217.949219 267.214844 232.710938 251.742188 242.265625 Z M 251.761719 242.285156 " fill-opacity="1" fill-rule="nonzero"/><path fill="#06e3a7" d="M 298.699219 184.679688 L 298.589844 201.136719 L 298.273438 208.378906 L 297.917969 211.027344 C 297.917969 211.027344 290.011719 275.425781 228.011719 274.378906 L 227.265625 274.378906 C 226.910156 274.359375 226.558594 274.34375 226.222656 274.324219 C 224.785156 274.25 223.371094 274.082031 221.992188 273.800781 C 221.46875 273.707031 220.945312 273.597656 220.445312 273.464844 L 220.40625 273.464844 C 219.902344 273.335938 219.398438 273.203125 218.914062 273.054688 C 217.5 272.625 216.136719 272.101562 214.832031 271.507812 C 214.179688 271.207031 213.546875 270.890625 212.929688 270.554688 C 212.875 270.515625 212.800781 270.480469 212.746094 270.441406 C 212.203125 270.164062 211.683594 269.84375 211.179688 269.507812 C 211.066406 269.453125 210.972656 269.398438 210.863281 269.324219 C 210.246094 268.929688 209.667969 268.519531 209.089844 268.089844 C 208.679688 267.792969 208.289062 267.476562 207.898438 267.140625 L 207.582031 266.898438 L 207.039062 266.410156 C 204.597656 264.265625 202.511719 261.726562 200.851562 258.929688 L 200.644531 258.613281 L 200.421875 258.183594 C 200.179688 257.773438 199.957031 257.363281 199.75 256.949219 C 199.566406 256.613281 199.398438 256.261719 199.25 255.90625 C 198.949219 255.253906 198.671875 254.601562 198.429688 253.910156 C 198.054688 252.957031 197.738281 251.988281 197.476562 250.980469 C 197.160156 249.859375 196.917969 248.703125 196.75 247.546875 C 196.710938 247.359375 196.695312 247.210938 196.695312 247.042969 C 196.546875 246.144531 196.46875 245.25 196.414062 244.335938 C 196.414062 244.335938 196.339844 243.570312 196.339844 243.570312 L 196.339844 111.4375 L 180.738281 111.4375 L 180.738281 231.648438 C 180.738281 231.648438 180.738281 238.90625 180.753906 242.097656 C 180.738281 242.824219 180.738281 243.347656 180.753906 243.515625 C 180.738281 243.550781 180.738281 243.609375 180.753906 243.644531 L 180.832031 245.625 C 180.847656 246.144531 180.90625 246.667969 180.960938 247.210938 L 181.148438 248.890625 L 181.332031 250.214844 C 181.371094 250.457031 181.40625 250.71875 181.464844 250.960938 L 181.855469 252.921875 C 181.910156 253.238281 181.984375 253.535156 182.078125 253.851562 L 182.394531 255.140625 C 182.394531 255.140625 182.414062 255.253906 182.453125 255.308594 L 183.140625 257.640625 C 183.199219 257.808594 183.253906 257.976562 183.328125 258.144531 L 184.335938 260.851562 L 185.660156 263.742188 L 186.925781 266.113281 C 187.019531 266.320312 187.148438 266.523438 187.28125 266.730469 L 188.15625 268.148438 C 188.25 268.316406 188.34375 268.464844 188.453125 268.632812 L 189.183594 269.714844 C 189.292969 269.863281 189.386719 270.011719 189.5 270.144531 L 190.617188 271.65625 C 190.953125 272.101562 191.289062 272.53125 191.640625 272.941406 C 191.773438 273.109375 191.921875 273.261719 192.035156 273.429688 L 192.816406 274.285156 C 192.945312 274.453125 193.097656 274.621094 193.265625 274.773438 C 193.691406 275.257812 194.140625 275.722656 194.585938 276.171875 C 195.054688 276.636719 195.539062 277.105469 196.023438 277.550781 C 196.210938 277.71875 196.394531 277.90625 196.601562 278.054688 C 196.957031 278.390625 197.328125 278.710938 197.699219 279.027344 C 199.339844 280.40625 201.074219 281.65625 202.882812 282.796875 L 204.28125 283.636719 C 204.394531 283.710938 204.503906 283.785156 204.617188 283.820312 L 205.960938 284.570312 C 206.070312 284.644531 206.183594 284.699219 206.292969 284.753906 L 207.339844 285.257812 L 208.046875 285.613281 C 208.457031 285.800781 208.867188 285.988281 209.277344 286.171875 C 209.539062 286.285156 209.816406 286.398438 210.078125 286.507812 C 210.46875 286.675781 210.878906 286.828125 211.273438 286.976562 L 212.445312 287.40625 C 213.042969 287.628906 213.65625 287.816406 214.273438 288.003906 C 214.832031 288.1875 215.390625 288.339844 215.949219 288.488281 L 216.191406 288.542969 C 216.492188 288.617188 216.789062 288.691406 217.089844 288.765625 L 217.347656 288.824219 C 217.648438 288.898438 217.945312 288.953125 218.261719 289.027344 L 218.484375 289.066406 L 219.214844 289.214844 L 220.40625 289.421875 L 220.425781 289.421875 L 221.300781 289.550781 C 222.269531 289.699219 223.238281 289.8125 224.226562 289.867188 L 226.035156 290 L 226.167969 290 C 226.78125 290.015625 227.398438 290.035156 228.011719 290.035156 L 228.347656 290.035156 C 228.347656 290.035156 292.175781 294.308594 310.070312 228.847656 L 310.742188 226.644531 L 311.617188 223.4375 L 312.027344 221.683594 L 312.421875 219.816406 L 312.832031 217.707031 L 313.128906 215.765625 L 313.558594 212.59375 L 313.726562 210.804688 L 313.855469 209.125 L 314.023438 205.167969 L 314.023438 202.425781 L 314.078125 200.128906 L 314.304688 195.074219 L 314.304688 111.4375 L 298.699219 111.4375 Z M 298.699219 184.679688 " fill-opacity="1" fill-rule="nonzero"/><path fill="#06e3a7" d="M 172.851562 227.113281 C 172.871094 225.824219 172.890625 224.519531 172.890625 223.230469 C 172.832031 207.890625 172.8125 192.554688 172.796875 177.214844 L 172.796875 111.453125 L 157.191406 111.453125 L 157.191406 213.042969 L 157.210938 213.042969 L 157.433594 229.6875 C 157.433594 229.6875 157.433594 230.152344 157.472656 230.976562 C 157.808594 240.546875 161.199219 249 167.089844 256.203125 C 167.128906 256.261719 167.183594 256.316406 167.222656 256.371094 C 168.957031 258.460938 170.875 260.460938 173 262.324219 C 173.785156 263.015625 174.808594 263.390625 175.722656 263.910156 C 175.667969 263.78125 175.648438 263.632812 175.59375 263.5 C 175.070312 261.671875 173.148438 253.164062 172.8125 227.113281 Z M 172.851562 227.113281 " fill-opacity="1" fill-rule="nonzero"/><path fill="#06e3a7" d="M 314.304688 44.628906 L 314.304688 44.460938 L 133.628906 44.460938 C 133.628906 44.460938 133.628906 44.460938 133.609375 44.460938 L 133.609375 60.082031 L 133.628906 60.082031 C 133.628906 60.082031 314.285156 60.082031 314.285156 60.082031 C 314.285156 60.082031 314.285156 60.082031 314.304688 60.082031 L 314.304688 44.628906 L 314.285156 44.628906 Z M 314.304688 44.628906 " fill-opacity="1" fill-rule="nonzero"/><path fill="#06e3a7" d="M 251.519531 111.4375 L 251.464844 111.4375 C 251.464844 139.667969 251.464844 167.902344 251.464844 196.15625 C 251.464844 210.523438 243.6875 222 230.265625 226.980469 C 224.023438 229.296875 217.664062 231.273438 211.382812 233.496094 L 204.46875 235.847656 C 203.273438 248.515625 206.144531 251.820312 206.144531 251.820312 L 216.882812 248.03125 C 223.480469 245.828125 230.117188 243.71875 236.679688 241.386719 C 253.792969 235.285156 266.84375 217.558594 266.917969 199.363281 C 267.046875 170.066406 267.085938 140.769531 267.101562 111.472656 L 251.5 111.472656 Z M 251.519531 111.4375 " fill-opacity="1" fill-rule="nonzero"/><path fill="#06e3a7" d="M 151.878906 243.90625 C 151.359375 239.914062 150.574219 235.9375 150.015625 231.945312 C 149.699219 229.164062 149.4375 226.367188 149.308594 223.867188 C 149.308594 223.808594 149.308594 223.734375 149.308594 223.679688 C 149.269531 219.367188 149.25 215.039062 149.214844 210.730469 L 149.214844 111.453125 L 133.609375 111.453125 L 133.609375 214.945312 C 133.609375 214.945312 133.609375 222.148438 137.453125 229.238281 C 137.453125 229.238281 137.527344 229.40625 137.675781 229.707031 C 137.710938 229.800781 137.75 229.875 137.804688 229.949219 C 137.9375 230.230469 138.105469 230.566406 138.347656 230.992188 C 139.09375 232.449219 139.894531 233.886719 140.824219 235.285156 C 141.609375 236.460938 142.765625 237.84375 144.050781 239.242188 C 145.46875 240.882812 147.125 242.582031 149.027344 244.207031 C 150.6875 245.699219 151.9375 246.6875 152.085938 246.574219 C 152.027344 245.699219 152.011719 244.804688 151.898438 243.925781 Z M 151.878906 243.90625 " fill-opacity="1" fill-rule="nonzero"/><path stroke-linecap="butt" transform="matrix(0.749996, -0.00249879, 0.00249879, 0.749996, -0.00124118, 0.124998)" fill="none" stroke-linejoin="miter" d="M -0.0000109634 0.500006 L 200.094869 0.499998 " stroke="#ffffff" stroke-width="1" stroke-opacity="1" stroke-miterlimit="4"/><path stroke-linecap="butt" transform="matrix(0.749996, -0.00249879, 0.00249879, 0.749996, 299.925014, 0.374998)" fill="none" stroke-linejoin="miter" d="M -0.000642325 0.500004 L 200.099446 0.500013 " stroke="#ffffff" stroke-width="1" stroke-opacity="1" stroke-miterlimit="4"/><path stroke-linecap="butt" transform="matrix(0.749996, -0.00249879, 0.00249879, 0.749996, 150.072462, 1.374995)" fill="none" stroke-linejoin="miter" d="M 0.000676359 0.500012 L 200.095556 0.500004 " stroke="#ffffff" stroke-width="1" stroke-opacity="1" stroke-miterlimit="4"/><path stroke-linecap="butt" transform="matrix(0, -0.75, 0.75, 0, 0.123719, 150.07159)" fill="none" stroke-linejoin="miter" d="M 0.00170321 0.501708 L 200.095469 0.501708 " stroke="#ffffff" stroke-width="1" stroke-opacity="1" stroke-miterlimit="4"/><path stroke-linecap="butt" transform="matrix(0, -0.75, 0.75, 0, 0.623723, 300.144469)" fill="none" stroke-linejoin="miter" d="M -0.0000835039 0.501703 L 200.09889 0.501703 " stroke="#ffffff" stroke-width="1" stroke-opacity="1" stroke-miterlimit="4"/><path stroke-linecap="butt" transform="matrix(0, -0.75, 0.75, 0, 0.123719, 449.998669)" fill="none" stroke-linejoin="miter" d="M -0.00177473 0.501708 L 200.097199 0.501708 " stroke="#ffffff" stroke-width="1" stroke-opacity="1" stroke-miterlimit="4"/><path stroke-linecap="butt" transform="matrix(0, -0.75, 0.75, 0, 149.698722, 449.999965)" fill="none" stroke-linejoin="miter" d="M -0.0000467333 0.500662 L 600 0.500662 " stroke="#cb6ce6" stroke-width="1" stroke-opacity="1" stroke-miterlimit="4"/><path stroke-linecap="butt" transform="matrix(0.000833333, -0.749999, 0.749999, 0.000833333, 299.770619, 449.999413)" fill="none" stroke-linejoin="miter" d="M -0.000228789 0.49855 L 600.000183 0.498549 " stroke="#cb6ce6" stroke-width="1" stroke-opacity="1" stroke-miterlimit="4"/><path stroke-linecap="butt" transform="matrix(0.75, 0, 0, 0.75, -0.00165767, 150.338542)" fill="none" stroke-linejoin="miter" d="M 0.00221023 0.501736 L 597.627257 0.501736 " stroke="#c1ff72" stroke-width="1" stroke-opacity="1" stroke-miterlimit="4"/><path stroke-linecap="butt" transform="matrix(0.75, 0, 0, 0.75, 1.780496, 300.052095)" fill="none" stroke-linejoin="miter" d="M 0.0010057 0.498248 L 597.626052 0.498248 " stroke="#c1ff72" stroke-width="1" stroke-opacity="1" stroke-miterlimit="4"/><g clip-path="url(#ebe748f9c0)"><path fill="#f4f5f7" d="M 268.457031 324.40625 L 306.914062 324.40625 L 306.914062 334.488281 L 294.003906 334.488281 L 294.003906 365.25 L 281.355469 365.25 L 281.355469 334.488281 L 268.445312 334.488281 L 268.445312 324.40625 Z M 268.457031 324.40625 " fill-opacity="1" fill-rule="nonzero"/></g><g clip-path="url(#70adef912d)"><path fill="#f4f5f7" d="M 312.613281 324.40625 L 346.519531 324.40625 L 346.519531 333.128906 L 325.285156 333.128906 L 325.285156 339.621094 L 344.980469 339.621094 L 344.980469 347.953125 L 325.285156 347.953125 L 325.285156 356.011719 L 347.128906 356.011719 L 347.128906 365.261719 L 312.605469 365.261719 L 312.605469 324.414062 Z M 312.613281 324.40625 " fill-opacity="1" fill-rule="nonzero"/></g><g clip-path="url(#6ec2a65da5)"><path fill="#f4f5f7" d="M 381.210938 348.53125 L 392.300781 351.878906 C 391.558594 354.980469 390.378906 357.578125 388.78125 359.65625 C 387.179688 361.738281 385.1875 363.304688 382.820312 364.363281 C 380.457031 365.425781 377.429688 365.953125 373.753906 365.953125 C 369.300781 365.953125 365.667969 365.300781 362.847656 364.015625 C 360.027344 362.726562 357.589844 360.449219 355.546875 357.207031 C 353.5 353.960938 352.46875 349.796875 352.46875 344.730469 C 352.46875 337.972656 354.265625 332.78125 357.871094 329.152344 C 361.472656 325.527344 366.574219 323.714844 373.164062 323.714844 C 378.316406 323.714844 382.375 324.753906 385.332031 326.835938 C 388.285156 328.917969 390.472656 332.109375 391.910156 336.417969 L 380.734375 338.898438 C 380.34375 337.652344 379.941406 336.746094 379.503906 336.167969 C 378.792969 335.199219 377.9375 334.460938 376.902344 333.945312 C 375.878906 333.429688 374.734375 333.160156 373.464844 333.160156 C 370.59375 333.160156 368.402344 334.316406 366.875 336.613281 C 365.71875 338.320312 365.140625 341 365.140625 344.65625 C 365.140625 349.191406 365.832031 352.292969 367.207031 353.96875 C 368.578125 355.648438 370.519531 356.496094 373.019531 356.496094 C 375.519531 356.496094 377.273438 355.816406 378.503906 354.464844 C 379.742188 353.105469 380.640625 351.136719 381.199219 348.5625 Z M 381.210938 348.53125 " fill-opacity="1" fill-rule="nonzero"/></g><g clip-path="url(#046fb1caa1)"><path fill="#f4f5f7" d="M 398.507812 324.40625 L 411.160156 324.40625 L 411.160156 338.703125 L 424.988281 338.703125 L 424.988281 324.40625 L 437.699219 324.40625 L 437.699219 365.25 L 424.988281 365.25 L 424.988281 348.726562 L 411.160156 348.726562 L 411.160156 365.25 L 398.507812 365.25 Z M 398.507812 324.40625 " fill-opacity="1" fill-rule="nonzero"/></g><g clip-path="url(#d765f19cac)"><path fill="#06e3a7" d="M 301.332031 381.289062 L 308.898438 393.460938 L 308.945312 393.460938 L 308.945312 381.289062 L 312.679688 381.289062 L 312.679688 399.429688 L 308.691406 399.429688 L 301.164062 387.285156 L 301.113281 387.285156 L 301.113281 399.429688 L 297.378906 399.429688 L 297.378906 381.289062 L 301.34375 381.289062 Z M 301.332031 381.289062 " fill-opacity="1" fill-rule="nonzero"/></g><path fill="#06e3a7" d="M 319.042969 386.65625 C 319.449219 385.5 320.027344 384.484375 320.789062 383.617188 C 321.546875 382.75 322.488281 382.074219 323.59375 381.589844 C 324.703125 381.097656 325.957031 380.855469 327.339844 380.855469 C 328.726562 380.855469 329.992188 381.097656 331.101562 381.589844 C 332.195312 382.085938 333.136719 382.761719 333.894531 383.617188 C 334.65625 384.484375 335.246094 385.5 335.640625 386.65625 C 336.050781 387.816406 336.257812 389.070312 336.257812 390.433594 C 336.257812 391.796875 336.050781 392.988281 335.640625 394.125 C 335.234375 395.269531 334.65625 396.257812 333.894531 397.113281 C 333.136719 397.960938 332.207031 398.621094 331.101562 399.105469 C 330.003906 399.589844 328.75 399.828125 327.339844 399.828125 C 325.933594 399.828125 324.703125 399.589844 323.59375 399.105469 C 322.488281 398.621094 321.546875 397.960938 320.789062 397.113281 C 320.027344 396.269531 319.4375 395.269531 319.042969 394.125 C 318.632812 392.976562 318.425781 391.746094 318.425781 390.433594 C 318.425781 389.117188 318.632812 387.816406 319.042969 386.65625 Z M 322.679688 392.652344 C 322.859375 393.375 323.136719 394.015625 323.535156 394.59375 C 323.921875 395.171875 324.425781 395.632812 325.050781 395.980469 C 325.679688 396.332031 326.4375 396.5 327.339844 396.5 C 328.246094 396.5 329.003906 396.332031 329.628906 395.980469 C 330.257812 395.632812 330.761719 395.171875 331.148438 394.59375 C 331.535156 394.015625 331.824219 393.375 332.003906 392.652344 C 332.183594 391.929688 332.269531 391.191406 332.269531 390.433594 C 332.269531 389.671875 332.183594 388.863281 332.003906 388.117188 C 331.824219 387.367188 331.546875 386.707031 331.148438 386.125 C 330.75 385.546875 330.257812 385.078125 329.628906 384.726562 C 329.003906 384.378906 328.246094 384.207031 327.339844 384.207031 C 326.4375 384.207031 325.679688 384.378906 325.050781 384.726562 C 324.425781 385.078125 323.921875 385.535156 323.535156 386.125 C 323.148438 386.707031 322.859375 387.382812 322.679688 388.117188 C 322.5 388.863281 322.414062 389.636719 322.414062 390.433594 C 322.414062 391.230469 322.5 391.941406 322.679688 392.652344 Z M 322.679688 392.652344 " fill-opacity="1" fill-rule="nonzero"/><path fill="#06e3a7" d="M 345.980469 381.289062 L 345.980469 396.078125 L 354.808594 396.078125 L 354.808594 399.429688 L 341.992188 399.429688 L 341.992188 381.289062 Z M 345.980469 381.289062 " fill-opacity="1" fill-rule="nonzero"/><path fill="#06e3a7" d="M 359.917969 386.65625 C 360.328125 385.5 360.90625 384.484375 361.664062 383.617188 C 362.425781 382.75 363.363281 382.074219 364.472656 381.589844 C 365.582031 381.097656 366.832031 380.855469 368.21875 380.855469 C 369.605469 380.855469 370.867188 381.097656 371.976562 381.589844 C 373.074219 382.085938 374.011719 382.761719 374.773438 383.617188 C 375.53125 384.484375 376.121094 385.5 376.519531 386.65625 C 376.929688 387.816406 377.132812 389.070312 377.132812 390.433594 C 377.132812 391.796875 376.929688 392.988281 376.519531 394.125 C 376.109375 395.269531 375.53125 396.257812 374.773438 397.113281 C 374.011719 397.960938 373.085938 398.621094 371.976562 399.105469 C 370.882812 399.589844 369.628906 399.828125 368.21875 399.828125 C 366.808594 399.828125 365.582031 399.589844 364.472656 399.105469 C 363.363281 398.621094 362.425781 397.960938 361.664062 397.113281 C 360.90625 396.269531 360.316406 395.269531 359.917969 394.125 C 359.507812 392.976562 359.304688 391.746094 359.304688 390.433594 C 359.304688 389.117188 359.507812 387.816406 359.917969 386.65625 Z M 363.554688 392.652344 C 363.738281 393.375 364.015625 394.015625 364.410156 394.59375 C 364.796875 395.171875 365.304688 395.632812 365.929688 395.980469 C 366.554688 396.332031 367.316406 396.5 368.21875 396.5 C 369.121094 396.5 369.882812 396.332031 370.507812 395.980469 C 371.132812 395.632812 371.640625 395.171875 372.027344 394.59375 C 372.410156 394.015625 372.699219 393.375 372.882812 392.652344 C 373.0625 391.929688 373.144531 391.191406 373.144531 390.433594 C 373.144531 389.671875 373.0625 388.863281 372.882812 388.117188 C 372.699219 387.367188 372.421875 386.707031 372.027344 386.125 C 371.628906 385.546875 371.132812 385.078125 370.507812 384.726562 C 369.882812 384.378906 369.121094 384.207031 368.21875 384.207031 C 367.316406 384.207031 366.554688 384.378906 365.929688 384.726562 C 365.304688 385.078125 364.796875 385.535156 364.410156 386.125 C 364.027344 386.707031 363.738281 387.382812 363.554688 388.117188 C 363.375 388.863281 363.292969 389.636719 363.292969 390.433594 C 363.292969 391.230469 363.375 391.941406 363.554688 392.652344 Z M 363.554688 392.652344 " fill-opacity="1" fill-rule="nonzero"/><path fill="#06e3a7" d="M 393.613281 399.285156 C 392.746094 399.648438 391.878906 399.828125 391 399.828125 C 389.613281 399.828125 388.363281 399.589844 387.253906 399.105469 C 386.144531 398.621094 385.207031 397.960938 384.445312 397.113281 C 383.6875 396.269531 383.097656 395.269531 382.699219 394.125 C 382.289062 392.976562 382.085938 391.746094 382.085938 390.433594 C 382.085938 389.117188 382.289062 387.816406 382.699219 386.65625 C 383.109375 385.5 383.6875 384.484375 384.445312 383.617188 C 385.207031 382.75 386.144531 382.074219 387.253906 381.589844 C 388.363281 381.097656 389.613281 380.855469 391 380.855469 C 391.929688 380.855469 392.832031 381 393.699219 381.277344 C 394.566406 381.554688 395.363281 381.964844 396.058594 382.507812 C 396.757812 383.050781 397.335938 383.714844 397.796875 384.511719 C 398.253906 385.304688 398.53125 386.222656 398.636719 387.25 L 394.832031 387.25 C 394.589844 386.234375 394.132812 385.476562 393.457031 384.957031 C 392.785156 384.449219 391.964844 384.195312 391 384.195312 C 390.109375 384.195312 389.335938 384.367188 388.710938 384.714844 C 388.085938 385.066406 387.578125 385.523438 387.191406 386.113281 C 386.808594 386.691406 386.519531 387.367188 386.339844 388.105469 C 386.15625 388.851562 386.074219 389.625 386.074219 390.421875 C 386.074219 391.214844 386.15625 391.929688 386.339844 392.640625 C 386.519531 393.363281 386.796875 394.003906 387.191406 394.582031 C 387.578125 395.160156 388.085938 395.621094 388.710938 395.96875 C 389.335938 396.320312 390.097656 396.488281 391 396.488281 C 392.324219 396.488281 393.335938 396.148438 394.058594 395.488281 C 394.785156 394.824219 395.191406 393.847656 395.3125 392.578125 L 391.300781 392.578125 L 391.300781 389.613281 L 398.914062 389.613281 L 398.914062 399.417969 L 396.375 399.417969 L 395.964844 397.355469 C 395.253906 398.273438 394.46875 398.914062 393.601562 399.273438 Z M 393.613281 399.285156 " fill-opacity="1" fill-rule="nonzero"/><path fill="#06e3a7" d="M 403.226562 381.289062 L 407.699219 381.289062 L 411.9375 388.453125 L 416.15625 381.289062 L 420.601562 381.289062 L 413.878906 392.472656 L 413.878906 399.429688 L 409.890625 399.429688 L 409.890625 392.363281 L 403.242188 381.289062 Z M 403.226562 381.289062 " fill-opacity="1" fill-rule="nonzero"/></svg>