<svg xmlns="http://www.w3.org/2000/svg" xmlns:xlink="http://www.w3.org/1999/xlink" width="600" zoomAndPan="magnify" viewBox="0 0 450 449.999984" height="600" preserveAspectRatio="xMidYMid meet" version="1.0"><rect x="-45" width="540" fill="#ffffff" y="-44.999998" height="539.99998" fill-opacity="1"/><rect x="-45" width="540" fill="#13144d" y="-44.999998" height="539.99998" fill-opacity="1"/><path fill="#1bdb00" d="M 304.730469 724.921875 C 281.449219 739.277344 254.085938 747.042969 228.292969 757.15625 C 212.992188 763.1875 197.136719 767.9375 179.769531 773.859375 C 194.511719 790.003906 211.039062 798.996094 228.683594 799.332031 C 234.546875 799.441406 240.574219 798.660156 246.660156 796.816406 C 277.425781 787.601562 309.589844 777.710938 336.054688 760.28125 C 395.519531 721.179688 421.203125 661.796875 421.261719 591.015625 C 421.371094 505.042969 421.261719 419.125 421.261719 333.148438 L 374.246094 333.148438 C 374.246094 421.191406 374.246094 509.289062 374.078125 597.328125 C 373.96875 652.074219 351.019531 696.261719 304.675781 724.867188 Z M 304.730469 724.921875 " fill-opacity="1" fill-rule="nonzero"/><path fill="#1bdb00" d="M 445.324219 552.46875 L 444.992188 601.742188 L 444.042969 623.417969 L 442.980469 631.347656 C 442.980469 631.347656 419.304688 824.136719 233.597656 821.007812 L 231.363281 821.007812 C 230.300781 820.949219 229.242188 820.894531 228.234375 820.839844 C 223.9375 820.617188 219.691406 820.113281 215.5625 819.273438 C 213.996094 818.996094 212.433594 818.660156 210.925781 818.269531 L 210.816406 818.269531 C 209.308594 817.878906 207.800781 817.488281 206.347656 817.039062 C 202.105469 815.753906 198.027344 814.191406 194.121094 812.402344 C 192.164062 811.507812 190.265625 810.558594 188.425781 809.554688 C 188.257812 809.441406 188.035156 809.332031 187.867188 809.21875 C 186.246094 808.382812 184.683594 807.429688 183.175781 806.425781 C 182.839844 806.257812 182.5625 806.089844 182.226562 805.867188 C 180.382812 804.695312 178.652344 803.464844 176.921875 802.179688 C 175.695312 801.285156 174.523438 800.335938 173.347656 799.332031 L 172.398438 798.605469 L 170.78125 797.152344 C 163.464844 790.726562 157.210938 783.132812 152.242188 774.75 L 151.628906 773.800781 L 150.957031 772.515625 C 150.234375 771.289062 149.5625 770.058594 148.949219 768.828125 C 148.390625 767.824219 147.886719 766.761719 147.441406 765.703125 C 146.546875 763.746094 145.710938 761.792969 144.984375 759.722656 C 143.867188 756.875 142.917969 753.96875 142.136719 750.953125 C 141.1875 747.601562 140.460938 744.136719 139.960938 740.675781 C 139.847656 740.117188 139.792969 739.667969 139.792969 739.167969 C 139.34375 736.484375 139.121094 733.804688 138.953125 731.066406 C 138.953125 731.066406 138.730469 728.777344 138.730469 728.777344 L 138.730469 333.207031 L 91.996094 333.207031 L 91.996094 693.078125 C 91.996094 693.078125 91.996094 714.808594 92.050781 724.363281 C 91.996094 726.542969 91.996094 728.105469 92.050781 728.609375 C 91.996094 728.71875 91.996094 728.886719 92.050781 729 L 92.273438 734.921875 C 92.332031 736.484375 92.5 738.050781 92.667969 739.667969 L 93.222656 744.695312 L 93.78125 748.664062 C 93.894531 749.390625 94.007812 750.171875 94.171875 750.898438 L 95.347656 756.761719 C 95.511719 757.714844 95.738281 758.605469 96.015625 759.554688 L 96.964844 763.410156 C 96.964844 763.410156 97.019531 763.746094 97.132812 763.914062 L 99.199219 770.898438 C 99.367188 771.398438 99.535156 771.902344 99.757812 772.40625 L 102.773438 780.503906 L 106.738281 789.164062 L 110.535156 796.257812 C 110.8125 796.875 111.203125 797.488281 111.59375 798.101562 L 114.21875 802.347656 C 114.496094 802.851562 114.777344 803.296875 115.113281 803.800781 L 117.289062 807.039062 C 117.625 807.488281 117.902344 807.933594 118.238281 808.324219 L 121.589844 812.851562 C 122.59375 814.191406 123.597656 815.476562 124.660156 816.703125 C 125.050781 817.207031 125.496094 817.65625 125.832031 818.15625 L 128.175781 820.726562 C 128.570312 821.230469 129.015625 821.734375 129.519531 822.179688 C 130.800781 823.632812 132.140625 825.027344 133.480469 826.371094 C 134.878906 827.765625 136.328125 829.164062 137.78125 830.503906 C 138.339844 831.007812 138.898438 831.566406 139.511719 832.011719 C 140.574219 833.015625 141.691406 833.96875 142.804688 834.917969 C 147.71875 839.050781 152.914062 842.792969 158.328125 846.199219 L 162.515625 848.714844 C 162.851562 848.9375 163.1875 849.160156 163.523438 849.273438 L 167.542969 851.507812 C 167.878906 851.730469 168.210938 851.898438 168.546875 852.066406 L 171.671875 853.574219 L 173.796875 854.636719 C 175.023438 855.195312 176.253906 855.753906 177.480469 856.3125 C 178.261719 856.648438 179.101562 856.984375 179.882812 857.316406 C 181.054688 857.820312 182.28125 858.269531 183.457031 858.714844 L 186.972656 860 C 188.757812 860.667969 190.601562 861.226562 192.445312 861.785156 C 194.121094 862.347656 195.796875 862.792969 197.46875 863.238281 L 198.195312 863.40625 C 199.089844 863.628906 199.984375 863.855469 200.875 864.078125 L 201.65625 864.246094 C 202.550781 864.46875 203.445312 864.636719 204.394531 864.859375 L 205.0625 864.972656 L 207.242188 865.417969 L 210.816406 866.03125 L 210.871094 866.03125 L 213.496094 866.421875 C 216.398438 866.871094 219.300781 867.207031 222.261719 867.375 L 227.675781 867.765625 L 228.066406 867.765625 C 229.910156 867.820312 231.753906 867.875 233.597656 867.875 L 234.601562 867.875 C 234.601562 867.875 425.785156 880.667969 479.386719 684.699219 L 481.394531 678.109375 L 484.019531 668.5 L 485.25 663.246094 L 486.421875 657.660156 L 487.648438 651.347656 L 488.542969 645.539062 L 489.828125 636.042969 L 490.328125 630.679688 L 490.71875 625.652344 L 491.222656 613.808594 L 491.222656 605.597656 L 491.390625 598.726562 L 492.0625 583.585938 L 492.0625 333.207031 L 445.324219 333.207031 Z M 445.324219 552.46875 " fill-opacity="1" fill-rule="nonzero"/><path fill="#1bdb00" d="M 68.378906 679.503906 C 68.433594 675.648438 68.488281 671.738281 68.488281 667.882812 C 68.320312 621.964844 68.265625 576.042969 68.210938 530.125 L 68.210938 333.261719 L 21.476562 333.261719 L 21.476562 637.382812 L 21.53125 637.382812 L 22.199219 687.214844 C 22.199219 687.214844 22.199219 688.609375 22.3125 691.066406 C 23.316406 719.726562 33.480469 745.03125 51.125 766.59375 C 51.234375 766.761719 51.402344 766.929688 51.515625 767.097656 C 56.707031 773.355469 62.457031 779.332031 68.824219 784.917969 C 71.167969 786.984375 74.238281 788.101562 76.976562 789.667969 C 76.808594 789.277344 76.753906 788.828125 76.585938 788.4375 C 75.023438 782.964844 69.269531 757.488281 68.265625 679.503906 Z M 68.378906 679.503906 " fill-opacity="1" fill-rule="nonzero"/><path fill="#1bdb00" d="M 492.0625 133.214844 L 492.0625 132.710938 L -49.101562 132.710938 C -49.101562 132.710938 -49.101562 132.710938 -49.15625 132.710938 L -49.15625 179.46875 L -49.101562 179.46875 C -49.101562 179.46875 492.003906 179.46875 492.003906 179.46875 C 492.003906 179.46875 492.003906 179.46875 492.0625 179.46875 L 492.0625 133.214844 L 492.003906 133.214844 Z M 492.0625 133.214844 " fill-opacity="1" fill-rule="nonzero"/><path fill="#1bdb00" d="M 304.003906 333.207031 L 303.835938 333.207031 C 303.835938 417.726562 303.835938 502.25 303.835938 586.828125 C 303.835938 629.839844 280.554688 664.199219 240.351562 679.113281 C 221.648438 686.039062 202.605469 691.960938 183.789062 698.609375 L 163.074219 705.648438 C 159.5 743.578125 168.101562 753.46875 168.101562 753.46875 L 200.261719 742.128906 C 220.027344 735.535156 239.90625 729.222656 259.558594 722.238281 C 310.816406 703.972656 349.902344 650.902344 350.125 596.433594 C 350.515625 508.730469 350.628906 421.023438 350.683594 333.316406 L 303.949219 333.316406 Z M 304.003906 333.207031 " fill-opacity="1" fill-rule="nonzero"/><path fill="#1bdb00" d="M 5.5625 729.78125 C 4 717.828125 1.652344 705.925781 -0.0234375 693.972656 C -0.972656 685.648438 -1.753906 677.269531 -2.144531 669.785156 C -2.144531 669.617188 -2.144531 669.394531 -2.144531 669.226562 C -2.253906 656.320312 -2.3125 643.359375 -2.421875 630.457031 L -2.421875 333.261719 L -49.15625 333.261719 L -49.15625 643.082031 C -49.15625 643.082031 -49.15625 664.644531 -37.65625 685.871094 C -37.65625 685.871094 -37.433594 686.375 -36.984375 687.269531 C -36.875 687.546875 -36.761719 687.773438 -36.59375 687.996094 C -36.203125 688.832031 -35.699219 689.839844 -34.976562 691.125 C -32.742188 695.480469 -30.339844 699.78125 -27.550781 703.972656 C -25.203125 707.492188 -21.742188 711.625 -17.890625 715.816406 C -13.644531 720.730469 -8.675781 725.816406 -2.980469 730.675781 C 1.988281 735.144531 5.730469 738.105469 6.175781 737.769531 C 6.007812 735.144531 5.953125 732.460938 5.617188 729.835938 Z M 5.5625 729.78125 " fill-opacity="1" fill-rule="nonzero"/><path fill="#06e3a7" d="M 304.730469 724.921875 C 281.449219 739.277344 254.085938 747.042969 228.292969 757.15625 C 212.992188 763.1875 197.136719 767.9375 179.769531 773.859375 C 194.511719 790.003906 211.039062 798.996094 228.683594 799.332031 C 234.546875 799.441406 240.574219 798.660156 246.660156 796.816406 C 277.425781 787.601562 309.589844 777.710938 336.054688 760.28125 C 395.519531 721.179688 421.203125 661.796875 421.261719 591.015625 C 421.371094 505.042969 421.261719 419.125 421.261719 333.148438 L 374.246094 333.148438 C 374.246094 421.191406 374.246094 509.289062 374.078125 597.328125 C 373.96875 652.074219 351.019531 696.261719 304.675781 724.867188 Z M 304.730469 724.921875 " fill-opacity="1" fill-rule="nonzero"/><path fill="#06e3a7" d="M 445.324219 552.46875 L 444.992188 601.742188 L 444.042969 623.417969 L 442.980469 631.347656 C 442.980469 631.347656 419.304688 824.136719 233.597656 821.007812 L 231.363281 821.007812 C 230.300781 820.949219 229.242188 820.894531 228.234375 820.839844 C 223.9375 820.617188 219.691406 820.113281 215.5625 819.273438 C 213.996094 818.996094 212.433594 818.660156 210.925781 818.269531 L 210.816406 818.269531 C 209.308594 817.878906 207.800781 817.488281 206.347656 817.039062 C 202.105469 815.753906 198.027344 814.191406 194.121094 812.402344 C 192.164062 811.507812 190.265625 810.558594 188.425781 809.554688 C 188.257812 809.441406 188.035156 809.332031 187.867188 809.21875 C 186.246094 808.382812 184.683594 807.429688 183.175781 806.425781 C 182.839844 806.257812 182.5625 806.089844 182.226562 805.867188 C 180.382812 804.695312 178.652344 803.464844 176.921875 802.179688 C 175.695312 801.285156 174.523438 800.335938 173.347656 799.332031 L 172.398438 798.605469 L 170.78125 797.152344 C 163.464844 790.726562 157.210938 783.132812 152.242188 774.75 L 151.628906 773.800781 L 150.957031 772.515625 C 150.234375 771.289062 149.5625 770.058594 148.949219 768.828125 C 148.390625 767.824219 147.886719 766.761719 147.441406 765.703125 C 146.546875 763.746094 145.710938 761.792969 144.984375 759.722656 C 143.867188 756.875 142.917969 753.96875 142.136719 750.953125 C 141.1875 747.601562 140.460938 744.136719 139.960938 740.675781 C 139.847656 740.117188 139.792969 739.667969 139.792969 739.167969 C 139.34375 736.484375 139.121094 733.804688 138.953125 731.066406 C 138.953125 731.066406 138.730469 728.777344 138.730469 728.777344 L 138.730469 333.207031 L 91.996094 333.207031 L 91.996094 693.078125 C 91.996094 693.078125 91.996094 714.808594 92.050781 724.363281 C 91.996094 726.542969 91.996094 728.105469 92.050781 728.609375 C 91.996094 728.71875 91.996094 728.886719 92.050781 729 L 92.273438 734.921875 C 92.332031 736.484375 92.5 738.050781 92.667969 739.667969 L 93.222656 744.695312 L 93.78125 748.664062 C 93.894531 749.390625 94.007812 750.171875 94.171875 750.898438 L 95.347656 756.761719 C 95.511719 757.714844 95.738281 758.605469 96.015625 759.554688 L 96.964844 763.410156 C 96.964844 763.410156 97.019531 763.746094 97.132812 763.914062 L 99.199219 770.898438 C 99.367188 771.398438 99.535156 771.902344 99.757812 772.40625 L 102.773438 780.503906 L 106.738281 789.164062 L 110.535156 796.257812 C 110.8125 796.875 111.203125 797.488281 111.59375 798.101562 L 114.21875 802.347656 C 114.496094 802.851562 114.777344 803.296875 115.113281 803.800781 L 117.289062 807.039062 C 117.625 807.488281 117.902344 807.933594 118.238281 808.324219 L 121.589844 812.851562 C 122.59375 814.191406 123.597656 815.476562 124.660156 816.703125 C 125.050781 817.207031 125.496094 817.65625 125.832031 818.15625 L 128.175781 820.726562 C 128.570312 821.230469 129.015625 821.734375 129.519531 822.179688 C 130.800781 823.632812 132.140625 825.027344 133.480469 826.371094 C 134.878906 827.765625 136.328125 829.164062 137.78125 830.503906 C 138.339844 831.007812 138.898438 831.566406 139.511719 832.011719 C 140.574219 833.015625 141.691406 833.96875 142.804688 834.917969 C 147.71875 839.050781 152.914062 842.792969 158.328125 846.199219 L 162.515625 848.714844 C 162.851562 848.9375 163.1875 849.160156 163.523438 849.273438 L 167.542969 851.507812 C 167.878906 851.730469 168.210938 851.898438 168.546875 852.066406 L 171.671875 853.574219 L 173.796875 854.636719 C 175.023438 855.195312 176.253906 855.753906 177.480469 856.3125 C 178.261719 856.648438 179.101562 856.984375 179.882812 857.316406 C 181.054688 857.820312 182.28125 858.269531 183.457031 858.714844 L 186.972656 860 C 188.757812 860.667969 190.601562 861.226562 192.445312 861.785156 C 194.121094 862.347656 195.796875 862.792969 197.46875 863.238281 L 198.195312 863.40625 C 199.089844 863.628906 199.984375 863.855469 200.875 864.078125 L 201.65625 864.246094 C 202.550781 864.46875 203.445312 864.636719 204.394531 864.859375 L 205.0625 864.972656 L 207.242188 865.417969 L 210.816406 866.03125 L 210.871094 866.03125 L 213.496094 866.421875 C 216.398438 866.871094 219.300781 867.207031 222.261719 867.375 L 227.675781 867.765625 L 228.066406 867.765625 C 229.910156 867.820312 231.753906 867.875 233.597656 867.875 L 234.601562 867.875 C 234.601562 867.875 425.785156 880.667969 479.386719 684.699219 L 481.394531 678.109375 L 484.019531 668.5 L 485.25 663.246094 L 486.421875 657.660156 L 487.648438 651.347656 L 488.542969 645.539062 L 489.828125 636.042969 L 490.328125 630.679688 L 490.71875 625.652344 L 491.222656 613.808594 L 491.222656 605.597656 L 491.390625 598.726562 L 492.0625 583.585938 L 492.0625 333.207031 L 445.324219 333.207031 Z M 445.324219 552.46875 " fill-opacity="1" fill-rule="nonzero"/><path fill="#06e3a7" d="M 68.378906 679.503906 C 68.433594 675.648438 68.488281 671.738281 68.488281 667.882812 C 68.320312 621.964844 68.265625 576.042969 68.210938 530.125 L 68.210938 333.261719 L 21.476562 333.261719 L 21.476562 637.382812 L 21.53125 637.382812 L 22.199219 687.214844 C 22.199219 687.214844 22.199219 688.609375 22.3125 691.066406 C 23.316406 719.726562 33.480469 745.03125 51.125 766.59375 C 51.234375 766.761719 51.402344 766.929688 51.515625 767.097656 C 56.707031 773.355469 62.457031 779.332031 68.824219 784.917969 C 71.167969 786.984375 74.238281 788.101562 76.976562 789.667969 C 76.808594 789.277344 76.753906 788.828125 76.585938 788.4375 C 75.023438 782.964844 69.269531 757.488281 68.265625 679.503906 Z M 68.378906 679.503906 " fill-opacity="1" fill-rule="nonzero"/><path fill="#06e3a7" d="M 492.0625 133.214844 L 492.0625 132.710938 L -49.101562 132.710938 C -49.101562 132.710938 -49.101562 132.710938 -49.15625 132.710938 L -49.15625 179.46875 L -49.101562 179.46875 C -49.101562 179.46875 492.003906 179.46875 492.003906 179.46875 C 492.003906 179.46875 492.003906 179.46875 492.0625 179.46875 L 492.0625 133.214844 L 492.003906 133.214844 Z M 492.0625 133.214844 " fill-opacity="1" fill-rule="nonzero"/><path fill="#06e3a7" d="M 304.003906 333.207031 L 303.835938 333.207031 C 303.835938 417.726562 303.835938 502.25 303.835938 586.828125 C 303.835938 629.839844 280.554688 664.199219 240.351562 679.113281 C 221.648438 686.039062 202.605469 691.960938 183.789062 698.609375 L 163.074219 705.648438 C 159.5 743.578125 168.101562 753.46875 168.101562 753.46875 L 200.261719 742.128906 C 220.027344 735.535156 239.90625 729.222656 259.558594 722.238281 C 310.816406 703.972656 349.902344 650.902344 350.125 596.433594 C 350.515625 508.730469 350.628906 421.023438 350.683594 333.316406 L 303.949219 333.316406 Z M 304.003906 333.207031 " fill-opacity="1" fill-rule="nonzero"/><path fill="#06e3a7" d="M 5.5625 729.78125 C 4 717.828125 1.652344 705.925781 -0.0234375 693.972656 C -0.972656 685.648438 -1.753906 677.269531 -2.144531 669.785156 C -2.144531 669.617188 -2.144531 669.394531 -2.144531 669.226562 C -2.253906 656.320312 -2.3125 643.359375 -2.421875 630.457031 L -2.421875 333.261719 L -49.15625 333.261719 L -49.15625 643.082031 C -49.15625 643.082031 -49.15625 664.644531 -37.65625 685.871094 C -37.65625 685.871094 -37.433594 686.375 -36.984375 687.269531 C -36.875 687.546875 -36.761719 687.773438 -36.59375 687.996094 C -36.203125 688.832031 -35.699219 689.839844 -34.976562 691.125 C -32.742188 695.480469 -30.339844 699.78125 -27.550781 703.972656 C -25.203125 707.492188 -21.742188 711.625 -17.890625 715.816406 C -13.644531 720.730469 -8.675781 725.816406 -2.980469 730.675781 C 1.988281 735.144531 5.730469 738.105469 6.175781 737.769531 C 6.007812 735.144531 5.953125 732.460938 5.617188 729.835938 Z M 5.5625 729.78125 " fill-opacity="1" fill-rule="nonzero"/></svg>