<svg xmlns="http://www.w3.org/2000/svg" xmlns:xlink="http://www.w3.org/1999/xlink" width="600" zoomAndPan="magnify" viewBox="0 0 450 449.999984" height="600" preserveAspectRatio="xMidYMid meet" version="1.0"><rect x="-45" width="540" fill="#ffffff" y="-44.999998" height="539.99998" fill-opacity="1"/><rect x="-45" width="540" fill="#0b0c2e" y="-44.999998" height="539.99998" fill-opacity="1"/><path fill="#1bdb00" d="M -5.113281 551.460938 L -5.449219 600.59375 L -6.394531 622.207031 L -7.453125 630.117188 C -7.453125 630.117188 -31.070312 822.355469 -216.339844 819.238281 L -218.570312 819.238281 C -219.628906 819.183594 -220.6875 819.125 -221.6875 819.070312 C -225.976562 818.847656 -230.210938 818.347656 -234.332031 817.511719 C -235.890625 817.230469 -237.453125 816.898438 -238.957031 816.507812 L -239.066406 816.507812 C -240.570312 816.117188 -242.074219 815.726562 -243.523438 815.28125 C -247.757812 814 -251.824219 812.441406 -255.722656 810.660156 C -257.671875 809.765625 -259.566406 808.820312 -261.40625 807.816406 C -261.570312 807.707031 -261.792969 807.59375 -261.960938 807.484375 C -263.578125 806.648438 -265.136719 805.699219 -266.640625 804.699219 C -266.976562 804.53125 -267.253906 804.363281 -267.585938 804.140625 C -269.425781 802.972656 -271.152344 801.746094 -272.878906 800.464844 C -274.105469 799.574219 -275.273438 798.625 -276.445312 797.625 L -277.390625 796.898438 L -279.007812 795.453125 C -286.304688 789.046875 -292.542969 781.46875 -297.5 773.113281 L -298.113281 772.167969 L -298.78125 770.886719 C -299.503906 769.660156 -300.175781 768.433594 -300.785156 767.207031 C -301.34375 766.207031 -301.84375 765.148438 -302.289062 764.089844 C -303.183594 762.140625 -304.015625 760.1875 -304.742188 758.128906 C -305.855469 755.289062 -306.800781 752.390625 -307.582031 749.382812 C -308.53125 746.039062 -309.253906 742.585938 -309.753906 739.132812 C -309.867188 738.574219 -309.921875 738.128906 -309.921875 737.628906 C -310.367188 734.953125 -310.589844 732.28125 -310.757812 729.550781 C -310.757812 729.550781 -310.980469 727.265625 -310.980469 727.265625 L -310.980469 332.8125 L -357.605469 332.8125 L -357.605469 691.671875 C -357.605469 691.671875 -357.605469 713.339844 -357.546875 722.867188 C -357.605469 725.039062 -357.605469 726.597656 -357.546875 727.101562 C -357.605469 727.210938 -357.605469 727.378906 -357.546875 727.488281 L -357.324219 733.394531 C -357.269531 734.953125 -357.101562 736.515625 -356.933594 738.128906 L -356.378906 743.144531 L -355.820312 747.097656 C -355.710938 747.824219 -355.597656 748.601562 -355.429688 749.328125 L -354.261719 755.175781 C -354.09375 756.121094 -353.871094 757.015625 -353.59375 757.960938 L -352.644531 761.804688 C -352.644531 761.804688 -352.589844 762.140625 -352.480469 762.304688 L -350.417969 769.269531 C -350.25 769.769531 -350.085938 770.273438 -349.859375 770.773438 L -346.851562 778.851562 L -342.898438 787.484375 L -339.109375 794.558594 C -338.832031 795.171875 -338.441406 795.785156 -338.050781 796.398438 L -335.433594 800.632812 C -335.15625 801.132812 -334.878906 801.578125 -334.542969 802.082031 L -332.371094 805.3125 C -332.035156 805.757812 -331.757812 806.203125 -331.421875 806.59375 L -328.082031 811.105469 C -327.078125 812.441406 -326.074219 813.722656 -325.019531 814.949219 C -324.628906 815.449219 -324.183594 815.894531 -323.847656 816.398438 L -321.507812 818.960938 C -321.117188 819.460938 -320.671875 819.960938 -320.171875 820.40625 C -318.890625 821.855469 -317.554688 823.25 -316.214844 824.585938 C -314.824219 825.976562 -313.375 827.371094 -311.925781 828.707031 C -311.371094 829.207031 -310.8125 829.765625 -310.199219 830.210938 C -309.140625 831.214844 -308.027344 832.160156 -306.914062 833.109375 C -302.011719 837.230469 -296.832031 840.964844 -291.429688 844.359375 L -287.25 846.867188 C -286.917969 847.089844 -286.582031 847.3125 -286.25 847.425781 L -282.238281 849.652344 C -281.902344 849.875 -281.570312 850.042969 -281.234375 850.210938 L -278.117188 851.714844 L -276 852.773438 C -274.773438 853.328125 -273.546875 853.886719 -272.324219 854.445312 C -271.542969 854.777344 -270.707031 855.113281 -269.925781 855.445312 C -268.757812 855.949219 -267.53125 856.394531 -266.363281 856.839844 L -262.851562 858.121094 C -261.070312 858.789062 -259.230469 859.347656 -257.394531 859.902344 C -255.722656 860.460938 -254.050781 860.90625 -252.378906 861.351562 L -251.65625 861.519531 C -250.765625 861.742188 -249.875 861.964844 -248.984375 862.1875 L -248.203125 862.355469 C -247.3125 862.578125 -246.421875 862.742188 -245.472656 862.96875 L -244.804688 863.078125 L -242.632812 863.523438 L -239.066406 864.136719 L -239.011719 864.136719 L -236.394531 864.527344 C -233.496094 864.972656 -230.601562 865.304688 -227.648438 865.472656 L -222.246094 865.863281 L -221.855469 865.863281 C -220.015625 865.917969 -218.179688 865.976562 -216.339844 865.976562 L -215.339844 865.976562 C -215.339844 865.976562 -24.609375 878.730469 28.863281 683.316406 L 30.871094 676.742188 L 33.488281 667.160156 L 34.714844 661.925781 L 35.882812 656.355469 L 37.109375 650.058594 L 38 644.265625 L 39.28125 634.796875 L 39.78125 629.449219 L 40.171875 624.433594 L 40.671875 612.625 L 40.671875 604.4375 L 40.839844 597.582031 L 41.507812 582.488281 L 41.507812 332.8125 L -5.113281 332.8125 Z M -5.113281 551.460938 " fill-opacity="1" fill-rule="nonzero"/><path fill="#1bdb00" d="M 41.507812 133.386719 L 41.507812 132.886719 L -498.367188 132.886719 C -498.367188 132.886719 -498.367188 132.886719 -498.421875 132.886719 L -498.421875 179.511719 L -498.367188 179.511719 C -498.367188 179.511719 41.453125 179.511719 41.453125 179.511719 C 41.453125 179.511719 41.453125 179.511719 41.507812 179.511719 L 41.507812 133.386719 L 41.453125 133.386719 Z M 41.507812 133.386719 " fill-opacity="1" fill-rule="nonzero"/><path fill="#06e3a7" d="M -5.113281 551.460938 L -5.449219 600.59375 L -6.394531 622.207031 L -7.453125 630.117188 C -7.453125 630.117188 -31.070312 822.355469 -216.339844 819.238281 L -218.570312 819.238281 C -219.628906 819.183594 -220.6875 819.125 -221.6875 819.070312 C -225.976562 818.847656 -230.210938 818.347656 -234.332031 817.511719 C -235.890625 817.230469 -237.453125 816.898438 -238.957031 816.507812 L -239.066406 816.507812 C -240.570312 816.117188 -242.074219 815.726562 -243.523438 815.28125 C -247.757812 814 -251.824219 812.441406 -255.722656 810.660156 C -257.671875 809.765625 -259.566406 808.820312 -261.40625 807.816406 C -261.570312 807.707031 -261.792969 807.59375 -261.960938 807.484375 C -263.578125 806.648438 -265.136719 805.699219 -266.640625 804.699219 C -266.976562 804.53125 -267.253906 804.363281 -267.585938 804.140625 C -269.425781 802.972656 -271.152344 801.746094 -272.878906 800.464844 C -274.105469 799.574219 -275.273438 798.625 -276.445312 797.625 L -277.390625 796.898438 L -279.007812 795.453125 C -286.304688 789.046875 -292.542969 781.46875 -297.5 773.113281 L -298.113281 772.167969 L -298.78125 770.886719 C -299.503906 769.660156 -300.175781 768.433594 -300.785156 767.207031 C -301.34375 766.207031 -301.84375 765.148438 -302.289062 764.089844 C -303.183594 762.140625 -304.015625 760.1875 -304.742188 758.128906 C -305.855469 755.289062 -306.800781 752.390625 -307.582031 749.382812 C -308.53125 746.039062 -309.253906 742.585938 -309.753906 739.132812 C -309.867188 738.574219 -309.921875 738.128906 -309.921875 737.628906 C -310.367188 734.953125 -310.589844 732.28125 -310.757812 729.550781 C -310.757812 729.550781 -310.980469 727.265625 -310.980469 727.265625 L -310.980469 332.8125 L -357.605469 332.8125 L -357.605469 691.671875 C -357.605469 691.671875 -357.605469 713.339844 -357.546875 722.867188 C -357.605469 725.039062 -357.605469 726.597656 -357.546875 727.101562 C -357.605469 727.210938 -357.605469 727.378906 -357.546875 727.488281 L -357.324219 733.394531 C -357.269531 734.953125 -357.101562 736.515625 -356.933594 738.128906 L -356.378906 743.144531 L -355.820312 747.097656 C -355.710938 747.824219 -355.597656 748.601562 -355.429688 749.328125 L -354.261719 755.175781 C -354.09375 756.121094 -353.871094 757.015625 -353.59375 757.960938 L -352.644531 761.804688 C -352.644531 761.804688 -352.589844 762.140625 -352.480469 762.304688 L -350.417969 769.269531 C -350.25 769.769531 -350.085938 770.273438 -349.859375 770.773438 L -346.851562 778.851562 L -342.898438 787.484375 L -339.109375 794.558594 C -338.832031 795.171875 -338.441406 795.785156 -338.050781 796.398438 L -335.433594 800.632812 C -335.15625 801.132812 -334.878906 801.578125 -334.542969 802.082031 L -332.371094 805.3125 C -332.035156 805.757812 -331.757812 806.203125 -331.421875 806.59375 L -328.082031 811.105469 C -327.078125 812.441406 -326.074219 813.722656 -325.019531 814.949219 C -324.628906 815.449219 -324.183594 815.894531 -323.847656 816.398438 L -321.507812 818.960938 C -321.117188 819.460938 -320.671875 819.960938 -320.171875 820.40625 C -318.890625 821.855469 -317.554688 823.25 -316.214844 824.585938 C -314.824219 825.976562 -313.375 827.371094 -311.925781 828.707031 C -311.371094 829.207031 -310.8125 829.765625 -310.199219 830.210938 C -309.140625 831.214844 -308.027344 832.160156 -306.914062 833.109375 C -302.011719 837.230469 -296.832031 840.964844 -291.429688 844.359375 L -287.25 846.867188 C -286.917969 847.089844 -286.582031 847.3125 -286.25 847.425781 L -282.238281 849.652344 C -281.902344 849.875 -281.570312 850.042969 -281.234375 850.210938 L -278.117188 851.714844 L -276 852.773438 C -274.773438 853.328125 -273.546875 853.886719 -272.324219 854.445312 C -271.542969 854.777344 -270.707031 855.113281 -269.925781 855.445312 C -268.757812 855.949219 -267.53125 856.394531 -266.363281 856.839844 L -262.851562 858.121094 C -261.070312 858.789062 -259.230469 859.347656 -257.394531 859.902344 C -255.722656 860.460938 -254.050781 860.90625 -252.378906 861.351562 L -251.65625 861.519531 C -250.765625 861.742188 -249.875 861.964844 -248.984375 862.1875 L -248.203125 862.355469 C -247.3125 862.578125 -246.421875 862.742188 -245.472656 862.96875 L -244.804688 863.078125 L -242.632812 863.523438 L -239.066406 864.136719 L -239.011719 864.136719 L -236.394531 864.527344 C -233.496094 864.972656 -230.601562 865.304688 -227.648438 865.472656 L -222.246094 865.863281 L -221.855469 865.863281 C -220.015625 865.917969 -218.179688 865.976562 -216.339844 865.976562 L -215.339844 865.976562 C -215.339844 865.976562 -24.609375 878.730469 28.863281 683.316406 L 30.871094 676.742188 L 33.488281 667.160156 L 34.714844 661.925781 L 35.882812 656.355469 L 37.109375 650.058594 L 38 644.265625 L 39.28125 634.796875 L 39.78125 629.449219 L 40.171875 624.433594 L 40.671875 612.625 L 40.671875 604.4375 L 40.839844 597.582031 L 41.507812 582.488281 L 41.507812 332.8125 L -5.113281 332.8125 Z M -5.113281 551.460938 " fill-opacity="1" fill-rule="nonzero"/><path fill="#06e3a7" d="M 41.507812 133.386719 L 41.507812 132.886719 L -498.367188 132.886719 C -498.367188 132.886719 -498.367188 132.886719 -498.421875 132.886719 L -498.421875 179.511719 L -498.367188 179.511719 C -498.367188 179.511719 41.453125 179.511719 41.453125 179.511719 C 41.453125 179.511719 41.453125 179.511719 41.507812 179.511719 L 41.507812 133.386719 L 41.453125 133.386719 Z M 41.507812 133.386719 " fill-opacity="1" fill-rule="nonzero"/></svg>