<svg xmlns="http://www.w3.org/2000/svg" xmlns:xlink="http://www.w3.org/1999/xlink" width="600" zoomAndPan="magnify" viewBox="0 0 450 449.999984" height="600" preserveAspectRatio="xMidYMid meet" version="1.0"><rect x="-45" width="540" fill="#ffffff" y="-44.999998" height="539.99998" fill-opacity="1"/><rect x="-45" width="540" fill="#0b0c2e" y="-44.999998" height="539.99998" fill-opacity="1"/><path fill="#1bdb00" d="M 305.53125 274.515625 C 282.171875 288.914062 254.726562 296.703125 228.847656 306.839844 C 213.5 312.890625 197.59375 317.652344 180.171875 323.59375 C 194.960938 339.78125 211.542969 348.800781 229.242188 349.136719 C 235.121094 349.25 241.171875 348.464844 247.277344 346.617188 C 278.140625 337.375 310.402344 327.457031 336.953125 309.980469 C 396.609375 270.765625 422.375 211.214844 422.429688 140.234375 C 422.542969 54.019531 422.429688 -32.144531 422.429688 -118.359375 L 375.265625 -118.359375 C 375.265625 -30.070312 375.265625 58.273438 375.097656 146.566406 C 374.988281 201.464844 351.964844 245.777344 305.476562 274.460938 Z M 305.53125 274.515625 " fill-opacity="1" fill-rule="nonzero"/><path fill="#1bdb00" d="M 446.570312 101.578125 L 446.234375 150.992188 L 445.285156 172.726562 L 444.21875 180.679688 C 444.21875 180.679688 420.46875 374.011719 234.171875 370.875 L 231.929688 370.875 C 230.867188 370.816406 229.800781 370.761719 228.792969 370.707031 C 224.480469 370.480469 220.222656 369.976562 216.078125 369.136719 C 214.511719 368.855469 212.941406 368.519531 211.429688 368.128906 L 211.316406 368.128906 C 209.804688 367.738281 208.292969 367.34375 206.835938 366.894531 C 202.578125 365.609375 198.488281 364.039062 194.570312 362.246094 C 192.609375 361.351562 190.703125 360.398438 188.855469 359.390625 C 188.6875 359.277344 188.464844 359.164062 188.296875 359.054688 C 186.671875 358.214844 185.101562 357.261719 183.589844 356.253906 C 183.253906 356.085938 182.972656 355.917969 182.636719 355.691406 C 180.789062 354.515625 179.054688 353.28125 177.316406 351.996094 C 176.085938 351.097656 174.910156 350.144531 173.730469 349.136719 L 172.78125 348.410156 L 171.15625 346.953125 C 163.816406 340.511719 157.542969 332.890625 152.558594 324.488281 L 151.941406 323.535156 L 151.269531 322.246094 C 150.542969 321.015625 149.871094 319.78125 149.253906 318.550781 C 148.695312 317.542969 148.191406 316.476562 147.742188 315.414062 C 146.847656 313.453125 146.007812 311.492188 145.277344 309.417969 C 144.15625 306.5625 143.207031 303.648438 142.421875 300.625 C 141.46875 297.261719 140.742188 293.789062 140.238281 290.316406 C 140.125 289.753906 140.070312 289.308594 140.070312 288.800781 C 139.621094 286.113281 139.394531 283.425781 139.226562 280.679688 C 139.226562 280.679688 139.003906 278.382812 139.003906 278.382812 L 139.003906 -118.304688 L 92.121094 -118.304688 L 92.121094 242.585938 C 92.121094 242.585938 92.121094 264.378906 92.175781 273.957031 C 92.121094 276.140625 92.121094 277.710938 92.175781 278.214844 C 92.121094 278.328125 92.121094 278.496094 92.175781 278.605469 L 92.402344 284.546875 C 92.457031 286.113281 92.625 287.683594 92.792969 289.308594 L 93.351562 294.347656 L 93.914062 298.328125 C 94.027344 299.054688 94.136719 299.839844 94.304688 300.566406 L 95.480469 306.449219 C 95.648438 307.402344 95.875 308.296875 96.152344 309.25 L 97.105469 313.117188 C 97.105469 313.117188 97.164062 313.453125 97.273438 313.621094 L 99.347656 320.621094 C 99.515625 321.125 99.683594 321.632812 99.90625 322.136719 L 102.933594 330.257812 L 106.910156 338.941406 L 110.71875 346.054688 C 110.996094 346.671875 111.390625 347.289062 111.78125 347.90625 L 114.414062 352.164062 C 114.695312 352.667969 114.972656 353.113281 115.3125 353.621094 L 117.496094 356.867188 C 117.832031 357.316406 118.109375 357.765625 118.449219 358.15625 L 121.808594 362.695312 C 122.816406 364.039062 123.824219 365.328125 124.890625 366.558594 C 125.28125 367.0625 125.730469 367.511719 126.066406 368.015625 L 128.417969 370.59375 C 128.808594 371.097656 129.257812 371.601562 129.761719 372.050781 C 131.050781 373.507812 132.394531 374.90625 133.738281 376.25 C 135.140625 377.652344 136.59375 379.054688 138.050781 380.398438 C 138.613281 380.902344 139.171875 381.460938 139.789062 381.910156 C 140.851562 382.917969 141.972656 383.871094 143.09375 384.824219 C 148.023438 388.96875 153.230469 392.722656 158.664062 396.140625 L 162.867188 398.660156 C 163.203125 398.882812 163.539062 399.109375 163.875 399.21875 L 167.90625 401.460938 C 168.242188 401.683594 168.578125 401.855469 168.914062 402.023438 L 172.050781 403.535156 L 174.179688 404.597656 C 175.414062 405.160156 176.644531 405.71875 177.878906 406.28125 C 178.660156 406.617188 179.5 406.953125 180.285156 407.289062 C 181.460938 407.792969 182.695312 408.238281 183.871094 408.6875 L 187.398438 409.976562 C 189.191406 410.648438 191.039062 411.210938 192.886719 411.769531 C 194.570312 412.328125 196.25 412.777344 197.929688 413.226562 L 198.65625 413.394531 C 199.554688 413.617188 200.449219 413.84375 201.347656 414.066406 L 202.128906 414.234375 C 203.027344 414.457031 203.921875 414.625 204.875 414.851562 L 205.546875 414.960938 L 207.730469 415.410156 L 211.316406 416.027344 L 211.371094 416.027344 L 214.003906 416.417969 C 216.917969 416.867188 219.832031 417.203125 222.800781 417.371094 L 228.234375 417.765625 L 228.625 417.765625 C 230.472656 417.820312 232.320312 417.875 234.171875 417.875 L 235.179688 417.875 C 235.179688 417.875 426.96875 430.703125 480.738281 234.183594 L 482.757812 227.570312 L 485.390625 217.9375 L 486.621094 212.671875 L 487.796875 207.066406 L 489.03125 200.738281 L 489.925781 194.910156 L 491.214844 185.386719 L 491.71875 180.007812 L 492.109375 174.96875 L 492.613281 163.089844 L 492.613281 154.855469 L 492.78125 147.964844 L 493.453125 132.785156 L 493.453125 -118.304688 L 446.570312 -118.304688 Z M 446.570312 101.578125 " fill-opacity="1" fill-rule="nonzero"/><path fill="#1bdb00" d="M 68.425781 228.972656 C 68.484375 225.105469 68.539062 221.183594 68.539062 217.320312 C 68.371094 171.269531 68.316406 125.21875 68.257812 79.171875 L 68.257812 -118.246094 L 21.375 -118.246094 L 21.375 186.730469 L 21.433594 186.730469 L 22.105469 236.703125 C 22.105469 236.703125 22.105469 238.101562 22.214844 240.566406 C 23.226562 269.308594 33.417969 294.683594 51.121094 316.308594 C 51.230469 316.476562 51.398438 316.644531 51.511719 316.8125 C 56.722656 323.085938 62.488281 329.082031 68.875 334.683594 C 71.226562 336.757812 74.308594 337.878906 77.054688 339.445312 C 76.886719 339.054688 76.828125 338.605469 76.660156 338.214844 C 75.09375 332.722656 69.324219 307.175781 68.316406 228.972656 Z M 68.425781 228.972656 " fill-opacity="1" fill-rule="nonzero"/><path fill="#1bdb00" d="M 304.804688 -118.304688 L 304.636719 -118.304688 C 304.636719 -33.542969 304.636719 51.214844 304.636719 136.03125 C 304.636719 179.167969 281.277344 213.621094 240.949219 228.578125 C 222.183594 235.527344 203.082031 241.464844 184.207031 248.132812 L 163.425781 255.191406 C 159.839844 293.226562 168.46875 303.144531 168.46875 303.144531 L 200.730469 291.773438 C 220.558594 285.160156 240.5 278.832031 260.214844 271.828125 C 311.636719 253.507812 350.84375 200.289062 351.070312 145.667969 C 351.460938 57.714844 351.574219 -30.238281 351.628906 -118.191406 L 304.746094 -118.191406 Z M 304.804688 -118.304688 " fill-opacity="1" fill-rule="nonzero"/><path fill="#1bdb00" d="M 5.414062 279.390625 C 3.84375 267.402344 1.492188 255.46875 -0.1875 243.480469 C -1.140625 235.132812 -1.925781 226.730469 -2.316406 219.222656 C -2.316406 219.054688 -2.316406 218.832031 -2.316406 218.664062 C -2.429688 205.722656 -2.484375 192.726562 -2.597656 179.785156 L -2.597656 -118.246094 L -49.480469 -118.246094 L -49.480469 192.445312 C -49.480469 192.445312 -49.480469 214.070312 -37.941406 235.359375 C -37.941406 235.359375 -37.71875 235.863281 -37.269531 236.757812 C -37.15625 237.039062 -37.046875 237.261719 -36.878906 237.488281 C -36.484375 238.328125 -35.980469 239.335938 -35.253906 240.625 C -33.011719 244.992188 -30.605469 249.308594 -27.804688 253.507812 C -25.449219 257.039062 -21.976562 261.183594 -18.113281 265.386719 C -13.855469 270.316406 -8.871094 275.414062 -3.15625 280.289062 C 1.828125 284.769531 5.582031 287.738281 6.027344 287.402344 C 5.859375 284.769531 5.804688 282.082031 5.46875 279.445312 Z M 5.414062 279.390625 " fill-opacity="1" fill-rule="nonzero"/><path fill="#06e3a7" d="M 305.53125 274.515625 C 282.171875 288.914062 254.726562 296.703125 228.847656 306.839844 C 213.5 312.890625 197.59375 317.652344 180.171875 323.59375 C 194.960938 339.78125 211.542969 348.800781 229.242188 349.136719 C 235.121094 349.25 241.171875 348.464844 247.277344 346.617188 C 278.140625 337.375 310.402344 327.457031 336.953125 309.980469 C 396.609375 270.765625 422.375 211.214844 422.429688 140.234375 C 422.542969 54.019531 422.429688 -32.144531 422.429688 -118.359375 L 375.265625 -118.359375 C 375.265625 -30.070312 375.265625 58.273438 375.097656 146.566406 C 374.988281 201.464844 351.964844 245.777344 305.476562 274.460938 Z M 305.53125 274.515625 " fill-opacity="1" fill-rule="nonzero"/><path fill="#06e3a7" d="M 446.570312 101.578125 L 446.234375 150.992188 L 445.285156 172.726562 L 444.21875 180.679688 C 444.21875 180.679688 420.46875 374.011719 234.171875 370.875 L 231.929688 370.875 C 230.867188 370.816406 229.800781 370.761719 228.792969 370.707031 C 224.480469 370.480469 220.222656 369.976562 216.078125 369.136719 C 214.511719 368.855469 212.941406 368.519531 211.429688 368.128906 L 211.316406 368.128906 C 209.804688 367.738281 208.292969 367.34375 206.835938 366.894531 C 202.578125 365.609375 198.488281 364.039062 194.570312 362.246094 C 192.609375 361.351562 190.703125 360.398438 188.855469 359.390625 C 188.6875 359.277344 188.464844 359.164062 188.296875 359.054688 C 186.671875 358.214844 185.101562 357.261719 183.589844 356.253906 C 183.253906 356.085938 182.972656 355.917969 182.636719 355.691406 C 180.789062 354.515625 179.054688 353.28125 177.316406 351.996094 C 176.085938 351.097656 174.910156 350.144531 173.730469 349.136719 L 172.78125 348.410156 L 171.15625 346.953125 C 163.816406 340.511719 157.542969 332.890625 152.558594 324.488281 L 151.941406 323.535156 L 151.269531 322.246094 C 150.542969 321.015625 149.871094 319.78125 149.253906 318.550781 C 148.695312 317.542969 148.191406 316.476562 147.742188 315.414062 C 146.847656 313.453125 146.007812 311.492188 145.277344 309.417969 C 144.15625 306.5625 143.207031 303.648438 142.421875 300.625 C 141.46875 297.261719 140.742188 293.789062 140.238281 290.316406 C 140.125 289.753906 140.070312 289.308594 140.070312 288.800781 C 139.621094 286.113281 139.394531 283.425781 139.226562 280.679688 C 139.226562 280.679688 139.003906 278.382812 139.003906 278.382812 L 139.003906 -118.304688 L 92.121094 -118.304688 L 92.121094 242.585938 C 92.121094 242.585938 92.121094 264.378906 92.175781 273.957031 C 92.121094 276.140625 92.121094 277.710938 92.175781 278.214844 C 92.121094 278.328125 92.121094 278.496094 92.175781 278.605469 L 92.402344 284.546875 C 92.457031 286.113281 92.625 287.683594 92.792969 289.308594 L 93.351562 294.347656 L 93.914062 298.328125 C 94.027344 299.054688 94.136719 299.839844 94.304688 300.566406 L 95.480469 306.449219 C 95.648438 307.402344 95.875 308.296875 96.152344 309.25 L 97.105469 313.117188 C 97.105469 313.117188 97.164062 313.453125 97.273438 313.621094 L 99.347656 320.621094 C 99.515625 321.125 99.683594 321.632812 99.90625 322.136719 L 102.933594 330.257812 L 106.910156 338.941406 L 110.71875 346.054688 C 110.996094 346.671875 111.390625 347.289062 111.78125 347.90625 L 114.414062 352.164062 C 114.695312 352.667969 114.972656 353.113281 115.3125 353.621094 L 117.496094 356.867188 C 117.832031 357.316406 118.109375 357.765625 118.449219 358.15625 L 121.808594 362.695312 C 122.816406 364.039062 123.824219 365.328125 124.890625 366.558594 C 125.28125 367.0625 125.730469 367.511719 126.066406 368.015625 L 128.417969 370.59375 C 128.808594 371.097656 129.257812 371.601562 129.761719 372.050781 C 131.050781 373.507812 132.394531 374.90625 133.738281 376.25 C 135.140625 377.652344 136.59375 379.054688 138.050781 380.398438 C 138.613281 380.902344 139.171875 381.460938 139.789062 381.910156 C 140.851562 382.917969 141.972656 383.871094 143.09375 384.824219 C 148.023438 388.96875 153.230469 392.722656 158.664062 396.140625 L 162.867188 398.660156 C 163.203125 398.882812 163.539062 399.109375 163.875 399.21875 L 167.90625 401.460938 C 168.242188 401.683594 168.578125 401.855469 168.914062 402.023438 L 172.050781 403.535156 L 174.179688 404.597656 C 175.414062 405.160156 176.644531 405.71875 177.878906 406.28125 C 178.660156 406.617188 179.5 406.953125 180.285156 407.289062 C 181.460938 407.792969 182.695312 408.238281 183.871094 408.6875 L 187.398438 409.976562 C 189.191406 410.648438 191.039062 411.210938 192.886719 411.769531 C 194.570312 412.328125 196.25 412.777344 197.929688 413.226562 L 198.65625 413.394531 C 199.554688 413.617188 200.449219 413.84375 201.347656 414.066406 L 202.128906 414.234375 C 203.027344 414.457031 203.921875 414.625 204.875 414.851562 L 205.546875 414.960938 L 207.730469 415.410156 L 211.316406 416.027344 L 211.371094 416.027344 L 214.003906 416.417969 C 216.917969 416.867188 219.832031 417.203125 222.800781 417.371094 L 228.234375 417.765625 L 228.625 417.765625 C 230.472656 417.820312 232.320312 417.875 234.171875 417.875 L 235.179688 417.875 C 235.179688 417.875 426.96875 430.703125 480.738281 234.183594 L 482.757812 227.570312 L 485.390625 217.9375 L 486.621094 212.671875 L 487.796875 207.066406 L 489.03125 200.738281 L 489.925781 194.910156 L 491.214844 185.386719 L 491.71875 180.007812 L 492.109375 174.96875 L 492.613281 163.089844 L 492.613281 154.855469 L 492.78125 147.964844 L 493.453125 132.785156 L 493.453125 -118.304688 L 446.570312 -118.304688 Z M 446.570312 101.578125 " fill-opacity="1" fill-rule="nonzero"/><path fill="#06e3a7" d="M 68.425781 228.972656 C 68.484375 225.105469 68.539062 221.183594 68.539062 217.320312 C 68.371094 171.269531 68.316406 125.21875 68.257812 79.171875 L 68.257812 -118.246094 L 21.375 -118.246094 L 21.375 186.730469 L 21.433594 186.730469 L 22.105469 236.703125 C 22.105469 236.703125 22.105469 238.101562 22.214844 240.566406 C 23.226562 269.308594 33.417969 294.683594 51.121094 316.308594 C 51.230469 316.476562 51.398438 316.644531 51.511719 316.8125 C 56.722656 323.085938 62.488281 329.082031 68.875 334.683594 C 71.226562 336.757812 74.308594 337.878906 77.054688 339.445312 C 76.886719 339.054688 76.828125 338.605469 76.660156 338.214844 C 75.09375 332.722656 69.324219 307.175781 68.316406 228.972656 Z M 68.425781 228.972656 " fill-opacity="1" fill-rule="nonzero"/><path fill="#06e3a7" d="M 304.804688 -118.304688 L 304.636719 -118.304688 C 304.636719 -33.542969 304.636719 51.214844 304.636719 136.03125 C 304.636719 179.167969 281.277344 213.621094 240.949219 228.578125 C 222.183594 235.527344 203.082031 241.464844 184.207031 248.132812 L 163.425781 255.191406 C 159.839844 293.226562 168.46875 303.144531 168.46875 303.144531 L 200.730469 291.773438 C 220.558594 285.160156 240.5 278.832031 260.214844 271.828125 C 311.636719 253.507812 350.84375 200.289062 351.070312 145.667969 C 351.460938 57.714844 351.574219 -30.238281 351.628906 -118.191406 L 304.746094 -118.191406 Z M 304.804688 -118.304688 " fill-opacity="1" fill-rule="nonzero"/><path fill="#06e3a7" d="M 5.414062 279.390625 C 3.84375 267.402344 1.492188 255.46875 -0.1875 243.480469 C -1.140625 235.132812 -1.925781 226.730469 -2.316406 219.222656 C -2.316406 219.054688 -2.316406 218.832031 -2.316406 218.664062 C -2.429688 205.722656 -2.484375 192.726562 -2.597656 179.785156 L -2.597656 -118.246094 L -49.480469 -118.246094 L -49.480469 192.445312 C -49.480469 192.445312 -49.480469 214.070312 -37.941406 235.359375 C -37.941406 235.359375 -37.71875 235.863281 -37.269531 236.757812 C -37.15625 237.039062 -37.046875 237.261719 -36.878906 237.488281 C -36.484375 238.328125 -35.980469 239.335938 -35.253906 240.625 C -33.011719 244.992188 -30.605469 249.308594 -27.804688 253.507812 C -25.449219 257.039062 -21.976562 261.183594 -18.113281 265.386719 C -13.855469 270.316406 -8.871094 275.414062 -3.15625 280.289062 C 1.828125 284.769531 5.582031 287.738281 6.027344 287.402344 C 5.859375 284.769531 5.804688 282.082031 5.46875 279.445312 Z M 5.414062 279.390625 " fill-opacity="1" fill-rule="nonzero"/></svg>