<svg xmlns="http://www.w3.org/2000/svg" xmlns:xlink="http://www.w3.org/1999/xlink" width="600" zoomAndPan="magnify" viewBox="0 0 450 449.999984" height="600" preserveAspectRatio="xMidYMid meet" version="1.0"><rect x="-45" width="540" fill="#ffffff" y="-44.999998" height="539.99998" fill-opacity="1"/><rect x="-45" width="540" fill="#0b0c2e" y="-44.999998" height="539.99998" fill-opacity="1"/><path fill="#1bdb00" d="M 457.75 280.195312 C 456.179688 268.171875 453.816406 256.207031 452.132812 244.183594 C 451.175781 235.8125 450.390625 227.386719 449.996094 219.859375 C 449.996094 219.691406 449.996094 219.464844 449.996094 219.296875 C 449.882812 206.320312 449.828125 193.285156 449.714844 180.308594 L 449.714844 -118.5625 L 402.683594 -118.5625 L 402.683594 193.003906 C 402.683594 193.003906 402.683594 214.691406 414.261719 236.039062 C 414.261719 236.039062 414.484375 236.542969 414.933594 237.441406 C 415.046875 237.722656 415.160156 237.949219 415.328125 238.171875 C 415.722656 239.015625 416.226562 240.027344 416.957031 241.320312 C 419.203125 245.699219 421.621094 250.027344 424.429688 254.238281 C 426.789062 257.777344 430.273438 261.9375 434.152344 266.148438 C 438.421875 271.09375 443.421875 276.207031 449.152344 281.09375 C 454.15625 285.585938 457.917969 288.566406 458.371094 288.226562 C 458.199219 285.585938 458.144531 282.890625 457.808594 280.25 Z M 457.75 280.195312 " fill-opacity="1" fill-rule="nonzero"/><path fill="#06e3a7" d="M 457.75 280.195312 C 456.179688 268.171875 453.816406 256.207031 452.132812 244.183594 C 451.175781 235.8125 450.390625 227.386719 449.996094 219.859375 C 449.996094 219.691406 449.996094 219.464844 449.996094 219.296875 C 449.882812 206.320312 449.828125 193.285156 449.714844 180.308594 L 449.714844 -118.5625 L 402.683594 -118.5625 L 402.683594 193.003906 C 402.683594 193.003906 402.683594 214.691406 414.261719 236.039062 C 414.261719 236.039062 414.484375 236.542969 414.933594 237.441406 C 415.046875 237.722656 415.160156 237.949219 415.328125 238.171875 C 415.722656 239.015625 416.226562 240.027344 416.957031 241.320312 C 419.203125 245.699219 421.621094 250.027344 424.429688 254.238281 C 426.789062 257.777344 430.273438 261.9375 434.152344 266.148438 C 438.421875 271.09375 443.421875 276.207031 449.152344 281.09375 C 454.15625 285.585938 457.917969 288.566406 458.371094 288.226562 C 458.199219 285.585938 458.144531 282.890625 457.808594 280.25 Z M 457.75 280.195312 " fill-opacity="1" fill-rule="nonzero"/></svg>