<svg xmlns="http://www.w3.org/2000/svg" viewBox="900 450 450 450" width="600" height="600" preserveAspectRatio="none"><rect x="0" y="0" width="1350" height="1350" fill="#0b0c2e"/><g fill="#06e3a7" transform="translate(227.466 -43.708) scale(5.43949)"><path d="M97.19,136.29c-4.17,2.57-9.07,3.96-13.69,5.77-2.74,1.08-5.58,1.93-8.69,2.99,2.64,2.89,5.6,4.5,8.76,4.56,1.05.02,2.13-.12,3.22-.45,5.51-1.65,11.27-3.42,16.01-6.54,10.65-7,15.25-17.63,15.26-30.3.02-15.39,0-30.77,0-46.16h-8.42c0,15.76,0,31.53-.03,47.29-.02,9.8-4.13,17.71-12.43,22.83Z"/><path d="M122.37,105.42l-.06,8.82-.17,3.88-.19,1.42s-4.24,34.51-37.5,33.95h-.4c-.19-.01-.38-.02-.56-.03-.77-.04-1.53-.13-2.27-.28-.28-.05-.56-.11-.83-.18h-.02c-.27-.07-.54-.14-.8-.22-.76-.23-1.49-.51-2.19-.83-.35-.16-.69-.33-1.02-.51-.03-.02-.07-.04-.1-.06-.29-.15-.57-.32-.84-.5-.06-.03-.11-.06-.17-.1-.33-.21-.64-.43-.95-.66-.22-.16-.43-.33-.64-.51l-.17-.13-.29-.26c-1.31-1.15-2.43-2.51-3.32-4.01l-.11-.17-.12-.23c-.13-.22-.25-.44-.36-.66-.1-.18-.19-.37-.27-.56-.16-.35-.31-.7-.44-1.07-.2-.51-.37-1.03-.51-1.57-.17-.6-.3-1.22-.39-1.84-.02-.1-.03-.18-.03-.27-.08-.48-.12-.96-.15-1.45h0s-.04-.41-.04-.41v-70.81h-8.37v64.42s0,3.89.01,5.6c-.01.39-.01.67,0,.76-.01.02-.01.05,0,.07l.04,1.06c.01.28.04.56.07.85l.1.9.1.71c.02.13.04.27.07.4l.21,1.05c.03.17.07.33.12.5l.17.69s.01.06.03.09l.37,1.25c.03.09.06.18.1.27l.54,1.45.71,1.55.68,1.27c.05.11.12.22.19.33l.47.76c.05.09.1.17.16.26l.39.58c.06.08.11.16.17.23l.6.81c.18.24.36.47.55.69.07.09.15.17.21.26l.42.46c.07.09.15.18.24.26.23.26.47.51.71.75.25.25.51.5.77.74.1.09.2.19.31.27.19.18.39.35.59.52.88.74,1.81,1.41,2.78,2.02l.75.45c.06.04.12.08.18.1l.72.4c.06.04.12.07.18.1l.56.27.38.19c.22.1.44.2.66.3.14.06.29.12.43.18.21.09.43.17.64.25l.63.23c.32.12.65.22.98.32.3.1.6.18.9.26l.13.03c.16.04.32.08.48.12l.14.03c.16.04.32.07.49.11l.12.02.39.08.64.11h.01l.47.07c.52.08,1.04.14,1.57.17l.97.07h.07c.33.01.66.02.99.02h.18s34.24,2.29,43.84-32.79l.36-1.18.47-1.72.22-.94.21-1,.22-1.13.16-1.04.23-1.7.09-.96.07-.9.09-2.12v-1.47l.03-1.23.12-2.71v-44.82h-8.37v39.25Z"/><path d="M54.86,128.16c.01-.69.02-1.39.02-2.08-.03-8.22-.04-16.44-.05-24.66v-35.24h-8.37v54.44h.01l.12,8.92s0,.25.02.69c.18,5.13,2,9.66,5.16,13.52.02.03.05.06.07.09.93,1.12,1.96,2.19,3.1,3.19.42.37.97.57,1.46.85-.03-.07-.04-.15-.07-.22-.28-.98-1.31-5.54-1.49-19.5Z"/><path d="M130.74,30.37v-.09H33.82s0,0-.01,0v8.37h.01s96.91,0,96.91,0h0s0,0,.01,0v-8.28h-.01Z"/><path d="M97.06,66.17h-.03c0,15.13,0,30.26,0,45.4,0,7.7-4.17,13.85-11.37,16.52-3.35,1.24-6.76,2.3-10.13,3.49l-3.71,1.26c-.64,6.79.9,8.56.9,8.56l5.76-2.03c3.54-1.18,7.1-2.31,10.62-3.56,9.18-3.27,16.18-12.77,16.22-22.52.07-15.7.09-31.4.1-47.1h-8.37Z"/><path d="M43.61,137.16c-.28-2.14-.7-4.27-1-6.41-.17-1.49-.31-2.99-.38-4.33,0-.03,0-.07,0-.1-.02-2.31-.03-4.63-.05-6.94v-53.2h-8.37v55.46s0,3.86,2.06,7.66c0,0,.04.09.12.25.02.05.04.09.07.13.07.15.16.33.29.56.4.78.83,1.55,1.33,2.3.42.63,1.04,1.37,1.73,2.12.76.88,1.65,1.79,2.67,2.66.89.8,1.56,1.33,1.64,1.27-.03-.47-.04-.95-.1-1.42Z"/></g><g fill="#f4f5f7" transform="translate(-69.933 825.597) scale(3.11929)"><path d="M59.42,34.14h12.23v23.62c0,2.34-.37,4.55-1.1,6.64s-1.88,3.9-3.43,5.46c-1.56,1.56-3.2,2.65-4.91,3.28-2.38.88-5.24,1.32-8.57,1.32-1.93,0-4.03-.14-6.32-.41-2.28-.27-4.19-.81-5.72-1.61-1.53-.8-2.93-1.94-4.21-3.42-1.27-1.48-2.14-3-2.61-4.57-.76-2.52-1.14-4.76-1.14-6.7v-23.62h12.23v24.19c0,2.16.6,3.85,1.8,5.07,1.2,1.22,2.86,1.82,4.99,1.82s3.76-.6,4.96-1.8c1.2-1.2,1.8-2.9,1.8-5.09v-24.19Z"/><path d="M77.14,34.14h16.11l6.21,24.13,6.17-24.13h16.1v39.65h-10.03v-30.24l-7.73,30.24h-9.08l-7.72-30.24v30.24h-10.03v-39.65Z"/><path d="M127.21,34.14h16.11l6.21,24.13,6.17-24.13h16.1v39.65h-10.03v-30.24l-7.73,30.24h-9.08l-7.72-30.24v30.24h-10.03v-39.65Z"/><path d="M204,67.24h-13.91l-1.93,6.55h-12.51l14.9-39.65h13.36l14.9,39.65h-12.83l-1.98-6.55ZM201.46,58.67l-4.38-14.25-4.33,14.25h8.71Z"/><path d="M222.76,34.14h12.25v13.88h13.39v-13.88h12.31v39.65h-12.31v-16.04h-13.39v16.04h-12.25v-39.65Z"/><path d="M280.11,34.14h37.24v9.79h-12.5v29.86h-12.25v-29.86h-12.5v-9.79Z"/><path d="M322.87,34.14h32.83v8.47h-20.56v6.3h19.07v8.09h-19.07v7.82h21.15v8.98h-33.43v-39.65Z"/><path d="M389.29,57.56l10.74,3.25c-.72,3.01-1.86,5.53-3.41,7.55-1.55,2.02-3.48,3.54-5.77,4.57s-5.22,1.54-8.78,1.54c-4.31,0-7.83-.63-10.56-1.88s-5.09-3.46-7.07-6.61c-1.98-3.15-2.98-7.19-2.98-12.11,0-6.56,1.74-11.6,5.23-15.12,3.49-3.52,8.43-5.28,14.81-5.28,4.99,0,8.92,1.01,11.78,3.03,2.86,2.02,4.98,5.12,6.37,9.3l-10.82,2.41c-.38-1.21-.77-2.09-1.19-2.65-.69-.94-1.52-1.66-2.52-2.16-.99-.5-2.1-.76-3.33-.76-2.78,0-4.9,1.12-6.38,3.35-1.12,1.66-1.68,4.26-1.68,7.81,0,4.4.67,7.41,2,9.04,1.33,1.63,3.21,2.45,5.63,2.45s4.12-.66,5.31-1.97c1.2-1.32,2.07-3.23,2.61-5.73Z"/><path d="M406.04,34.14h12.25v13.88h13.39v-13.88h12.31v39.65h-12.31v-16.04h-13.39v16.04h-12.25v-39.65Z"/></g><g fill="#06e3a7" transform="translate(-21.398 996.603) scale(3.52651)"><path d="M47.84,29.68v2.78h-7.27v3.47h6.3v2.57h-6.3v6.21h-3.31v-15.04h10.57Z"/><path d="M58.62,29.68l5.62,15.04h-3.43l-1.14-3.35h-5.62l-1.18,3.35h-3.33l5.69-15.04h3.39ZM58.81,38.9l-1.9-5.52h-.04l-1.96,5.52h3.9Z"/><path d="M71.39,29.68v15.04h-3.31v-15.04h3.31Z"/><path d="M75.64,32.46v-2.78h12.32v2.78h-4.51v12.26h-3.31v-12.26h-4.51Z"/><path d="M95.52,29.68v5.77h6.09v-5.77h3.31v15.04h-3.31v-6.49h-6.09v6.49h-3.31v-15.04h3.31Z"/><path d="M110.22,29.68h1.33l5.88,14.01h.04l5.81-14.01h1.33v15.04h-.93v-13.9h-.04l-5.73,13.9h-.93l-5.79-13.9h-.04v13.9h-.93v-15.04Z"/><path d="M129.79,29.68h10.11v.8h-9.18v6.02h8.63v.8h-8.63v6.61h9.29v.8h-10.21v-15.04Z"/><path d="M144.11,29.68h10.11v.8h-9.18v6.02h8.63v.8h-8.63v6.61h9.29v.8h-10.21v-15.04Z"/><path d="M156.81,30.48v-.8h11.52v.8h-5.31v14.24h-.93v-14.24h-5.29Z"/><path d="M181.45,33.97c-.03-.65-.17-1.21-.41-1.69-.25-.48-.58-.88-1-1.2s-.92-.57-1.51-.73c-.58-.16-1.22-.24-1.91-.24-.42,0-.87.05-1.36.15-.49.1-.93.27-1.35.52-.41.25-.76.58-1.02.99-.27.41-.4.93-.4,1.55s.15,1.1.44,1.47c.29.38.68.68,1.16.92.48.23,1.03.42,1.64.56.62.14,1.24.27,1.87.4.65.13,1.27.28,1.89.45.61.18,1.16.41,1.64.72.49.3.87.7,1.17,1.18.29.48.44,1.09.44,1.82,0,.79-.17,1.45-.51,1.98-.34.53-.76.97-1.27,1.31-.51.34-1.08.58-1.71.73s-1.22.22-1.8.22c-.88,0-1.71-.09-2.49-.28s-1.45-.5-2.02-.93-1.03-.98-1.36-1.65c-.33-.67-.49-1.5-.47-2.46h.93c-.04.83.08,1.53.36,2.1.28.57.67,1.04,1.17,1.4.5.37,1.08.63,1.76.79.67.16,1.38.24,2.13.24.45,0,.93-.06,1.44-.17.51-.11.98-.3,1.41-.57.43-.27.79-.62,1.07-1.05s.43-.98.43-1.64-.15-1.15-.44-1.55c-.29-.4-.68-.72-1.17-.97-.48-.25-1.03-.44-1.64-.59s-1.24-.28-1.89-.41c-.63-.13-1.26-.27-1.87-.44s-1.17-.4-1.64-.68c-.48-.29-.86-.66-1.16-1.12-.29-.46-.44-1.04-.44-1.76s.15-1.33.45-1.84c.3-.51.69-.93,1.18-1.24s1.03-.55,1.63-.69c.6-.15,1.2-.22,1.79-.22.79,0,1.52.09,2.2.26.68.18,1.28.45,1.79.82.51.37.92.85,1.23,1.44.31.59.48,1.3.53,2.13h-.93Z"/><path d="M186.38,32.46v-2.78h12.32v2.78h-4.51v12.26h-3.31v-12.26h-4.51Z"/><path d="M214.2,29.68v2.78h-7.94v3.22h7.29v2.57h-7.29v3.69h8.11v2.78h-11.42v-15.04h11.25Z"/><path d="M228.78,33.69c-.2-.32-.44-.59-.74-.83-.29-.24-.63-.42-1-.56-.37-.13-.76-.2-1.17-.2-.74,0-1.38.14-1.9.43-.52.29-.94.67-1.26,1.16-.32.48-.56,1.04-.71,1.65-.15.62-.22,1.26-.22,1.92s.07,1.25.22,1.84c.15.6.38,1.13.71,1.61.32.48.74.86,1.26,1.15.52.29,1.15.43,1.9.43,1.01,0,1.8-.31,2.37-.93.57-.62.92-1.43,1.04-2.44h3.2c-.08.94-.3,1.79-.65,2.55s-.81,1.4-1.39,1.94c-.58.53-1.25.94-2.02,1.22-.77.28-1.62.42-2.55.42-1.15,0-2.19-.2-3.11-.6-.92-.4-1.7-.95-2.33-1.65-.63-.7-1.12-1.53-1.45-2.48-.34-.95-.51-1.97-.51-3.06s.17-2.17.51-3.13c.34-.96.82-1.8,1.45-2.52.63-.72,1.41-1.28,2.33-1.68.92-.41,1.96-.61,3.11-.61.83,0,1.61.12,2.35.36.74.24,1.4.59,1.98,1.04s1.06,1.02,1.44,1.7c.38.67.62,1.45.72,2.32h-3.2c-.06-.38-.18-.73-.38-1.04Z"/><path d="M240.57,29.68v5.77h6.09v-5.77h3.31v15.04h-3.31v-6.49h-6.09v6.49h-3.31v-15.04h3.31Z"/><path d="M258.69,29.68l6.28,10.09h.04v-10.09h3.1v15.04h-3.31l-6.25-10.07h-.04v10.07h-3.1v-15.04h3.29Z"/><path d="M273.39,34.13c.34-.96.82-1.8,1.45-2.52.63-.72,1.41-1.28,2.33-1.68.92-.41,1.96-.61,3.11-.61s2.2.2,3.12.61c.91.41,1.69.97,2.32,1.68.63.72,1.12,1.56,1.45,2.52.34.96.51,2,.51,3.13s-.17,2.12-.51,3.06c-.34.95-.82,1.77-1.45,2.48-.63.7-1.4,1.25-2.32,1.65-.91.4-1.95.6-3.12.6s-2.19-.2-3.11-.6c-.92-.4-1.7-.95-2.33-1.65-.63-.7-1.12-1.53-1.45-2.48-.34-.95-.51-1.97-.51-3.06s.17-2.17.51-3.13ZM276.41,39.1c.15.6.38,1.13.71,1.61.32.48.74.86,1.26,1.15.52.29,1.15.43,1.9.43s1.38-.14,1.9-.43.94-.67,1.26-1.15.56-1.01.71-1.61c.15-.6.22-1.21.22-1.84s-.07-1.3-.22-1.92c-.15-.62-.38-1.17-.71-1.65s-.74-.87-1.26-1.16-1.15-.43-1.9-.43-1.38.14-1.9.43c-.52.29-.94.67-1.26,1.16-.32.48-.56,1.04-.71,1.65-.15.62-.22,1.26-.22,1.92s.07,1.25.22,1.84Z"/><path d="M295.75,29.68v12.26h7.33v2.78h-10.64v-15.04h3.31Z"/><path d="M307.32,34.13c.34-.96.82-1.8,1.45-2.52.63-.72,1.41-1.28,2.33-1.68.92-.41,1.96-.61,3.11-.61s2.2.2,3.12.61c.91.41,1.69.97,2.32,1.68.63.72,1.12,1.56,1.45,2.52.34.96.51,2,.51,3.13s-.17,2.12-.51,3.06c-.34.95-.82,1.77-1.45,2.48-.63.7-1.4,1.25-2.32,1.65-.91.4-1.95.6-3.12.6s-2.19-.2-3.11-.6c-.92-.4-1.7-.95-2.33-1.65-.63-.7-1.12-1.53-1.45-2.48-.34-.95-.51-1.97-.51-3.06s.17-2.17.51-3.13ZM310.34,39.1c.15.6.38,1.13.71,1.61.32.48.74.86,1.26,1.15.52.29,1.15.43,1.9.43s1.38-.14,1.9-.43.94-.67,1.26-1.15.56-1.01.71-1.61c.15-.6.22-1.21.22-1.84s-.07-1.3-.22-1.92c-.15-.62-.38-1.17-.71-1.65s-.74-.87-1.26-1.16-1.15-.43-1.9-.43-1.38.14-1.9.43c-.52.29-.94.67-1.26,1.16-.32.48-.56,1.04-.71,1.65-.15.62-.22,1.26-.22,1.92s.07,1.25.22,1.84Z"/><path d="M335.29,44.6c-.72.3-1.44.45-2.17.45-1.15,0-2.19-.2-3.11-.6-.92-.4-1.7-.95-2.33-1.65-.63-.7-1.12-1.53-1.45-2.48-.34-.95-.51-1.97-.51-3.06s.17-2.17.51-3.13c.34-.96.82-1.8,1.45-2.52.63-.72,1.41-1.28,2.33-1.68.92-.41,1.96-.61,3.11-.61.77,0,1.52.12,2.24.35.72.23,1.38.57,1.96,1.02.58.45,1.06,1,1.44,1.66.38.66.61,1.42.7,2.27h-3.16c-.2-.84-.58-1.47-1.14-1.9-.56-.42-1.24-.63-2.04-.63-.74,0-1.38.14-1.9.43-.52.29-.94.67-1.26,1.16-.32.48-.56,1.04-.71,1.65-.15.62-.22,1.26-.22,1.92s.07,1.25.22,1.84c.15.6.38,1.13.71,1.61.32.48.74.86,1.26,1.15.52.29,1.15.43,1.9.43,1.1,0,1.94-.28,2.54-.83.6-.55.94-1.36,1.04-2.41h-3.33v-2.46h6.32v8.13h-2.11l-.34-1.71c-.59.76-1.24,1.29-1.96,1.59Z"/><path d="M343.27,29.68h3.71l3.52,5.94,3.5-5.94h3.69l-5.58,9.27v5.77h-3.31v-5.86l-5.52-9.18Z"/></g></svg>