<svg xmlns="http://www.w3.org/2000/svg" xmlns:xlink="http://www.w3.org/1999/xlink" width="600" zoomAndPan="magnify" viewBox="0 0 450 449.999984" height="600" preserveAspectRatio="xMidYMid meet" version="1.0"><rect x="-45" width="540" fill="#ffffff" y="-44.999998" height="539.99998" fill-opacity="1"/><rect x="-45" width="540" fill="#0b0c2e" y="-44.999998" height="539.99998" fill-opacity="1"/><path fill="#1bdb00" d="M -3.871094 101.734375 L -4.207031 151.355469 L -5.164062 173.179688 L -6.230469 181.171875 C -6.230469 181.171875 -30.074219 375.3125 -217.113281 372.164062 L -219.359375 372.164062 C -220.429688 372.105469 -221.496094 372.050781 -222.511719 371.996094 C -226.839844 371.769531 -231.113281 371.261719 -235.277344 370.417969 C -236.851562 370.136719 -238.425781 369.800781 -239.941406 369.40625 L -240.054688 369.40625 C -241.574219 369.011719 -243.09375 368.617188 -244.554688 368.167969 C -248.828125 366.875 -252.933594 365.300781 -256.871094 363.5 C -258.835938 362.597656 -260.75 361.644531 -262.605469 360.628906 C -262.773438 360.519531 -263 360.40625 -263.167969 360.292969 C -264.796875 359.449219 -266.375 358.492188 -267.890625 357.480469 C -268.230469 357.3125 -268.511719 357.144531 -268.847656 356.917969 C -270.703125 355.734375 -272.445312 354.5 -274.191406 353.203125 C -275.425781 352.304688 -276.609375 351.347656 -277.789062 350.335938 L -278.746094 349.605469 L -280.375 348.140625 C -287.742188 341.671875 -294.039062 334.019531 -299.046875 325.582031 L -299.664062 324.625 L -300.339844 323.332031 C -301.070312 322.09375 -301.746094 320.855469 -302.363281 319.617188 C -302.925781 318.605469 -303.429688 317.539062 -303.882812 316.46875 C -304.78125 314.5 -305.625 312.53125 -306.355469 310.449219 C -307.480469 307.578125 -308.4375 304.65625 -309.222656 301.617188 C -310.179688 298.242188 -310.910156 294.753906 -311.417969 291.265625 C -311.53125 290.703125 -311.585938 290.253906 -311.585938 289.746094 C -312.035156 287.046875 -312.261719 284.347656 -312.429688 281.589844 C -312.429688 281.589844 -312.652344 279.28125 -312.652344 279.28125 L -312.652344 -119.074219 L -359.722656 -119.074219 L -359.722656 243.335938 C -359.722656 243.335938 -359.722656 265.21875 -359.667969 274.839844 C -359.722656 277.03125 -359.722656 278.609375 -359.667969 279.113281 C -359.722656 279.226562 -359.722656 279.394531 -359.667969 279.507812 L -359.441406 285.472656 C -359.386719 287.046875 -359.214844 288.621094 -359.046875 290.253906 L -358.484375 295.316406 L -357.921875 299.308594 C -357.808594 300.042969 -357.699219 300.828125 -357.527344 301.558594 L -356.347656 307.46875 C -356.179688 308.425781 -355.953125 309.324219 -355.671875 310.28125 L -354.71875 314.160156 C -354.71875 314.160156 -354.660156 314.5 -354.546875 314.667969 L -352.46875 321.699219 C -352.300781 322.207031 -352.128906 322.714844 -351.90625 323.21875 L -348.867188 331.375 L -344.875 340.097656 L -341.050781 347.242188 C -340.769531 347.859375 -340.378906 348.480469 -339.984375 349.097656 L -337.339844 353.375 C -337.058594 353.878906 -336.777344 354.328125 -336.441406 354.835938 L -334.25 358.097656 C -333.910156 358.550781 -333.628906 359 -333.292969 359.394531 L -329.917969 363.949219 C -328.90625 365.300781 -327.894531 366.59375 -326.824219 367.832031 C -326.429688 368.335938 -325.980469 368.789062 -325.644531 369.292969 L -323.28125 371.882812 C -322.890625 372.386719 -322.4375 372.894531 -321.933594 373.34375 C -320.640625 374.808594 -319.289062 376.214844 -317.941406 377.5625 C -316.535156 378.96875 -315.070312 380.375 -313.609375 381.726562 C -313.046875 382.234375 -312.484375 382.796875 -311.867188 383.246094 C -310.796875 384.257812 -309.671875 385.214844 -308.550781 386.171875 C -303.601562 390.335938 -298.371094 394.105469 -292.914062 397.535156 L -288.699219 400.066406 C -288.359375 400.292969 -288.023438 400.515625 -287.6875 400.628906 L -283.636719 402.878906 C -283.300781 403.105469 -282.960938 403.273438 -282.625 403.441406 L -279.476562 404.960938 L -277.339844 406.03125 C -276.101562 406.59375 -274.863281 407.15625 -273.628906 407.71875 C -272.839844 408.054688 -271.996094 408.394531 -271.210938 408.730469 C -270.027344 409.238281 -268.792969 409.6875 -267.609375 410.136719 L -264.066406 411.429688 C -262.269531 412.105469 -260.414062 412.667969 -258.554688 413.230469 C -256.871094 413.792969 -255.183594 414.242188 -253.496094 414.695312 L -252.765625 414.863281 C -251.863281 415.085938 -250.964844 415.3125 -250.066406 415.539062 L -249.277344 415.707031 C -248.378906 415.929688 -247.476562 416.101562 -246.523438 416.324219 L -245.847656 416.4375 L -243.65625 416.886719 L -240.054688 417.507812 L -240 417.507812 L -237.355469 417.902344 C -234.433594 418.351562 -231.507812 418.6875 -228.527344 418.855469 L -223.074219 419.25 L -222.679688 419.25 C -220.824219 419.308594 -218.96875 419.363281 -217.113281 419.363281 L -216.097656 419.363281 C -216.097656 419.363281 -23.550781 432.246094 30.433594 234.894531 L 32.457031 228.257812 L 35.101562 218.582031 L 36.335938 213.292969 L 37.519531 207.667969 L 38.753906 201.308594 L 39.65625 195.460938 L 40.949219 185.894531 L 41.453125 180.496094 L 41.847656 175.433594 L 42.355469 163.503906 L 42.355469 155.234375 L 42.523438 148.316406 L 43.199219 133.070312 L 43.199219 -119.074219 L -3.871094 -119.074219 Z M -3.871094 101.734375 " fill-opacity="1" fill-rule="nonzero"/><path fill="#06e3a7" d="M -3.871094 101.734375 L -4.207031 151.355469 L -5.164062 173.179688 L -6.230469 181.171875 C -6.230469 181.171875 -30.074219 375.3125 -217.113281 372.164062 L -219.359375 372.164062 C -220.429688 372.105469 -221.496094 372.050781 -222.511719 371.996094 C -226.839844 371.769531 -231.113281 371.261719 -235.277344 370.417969 C -236.851562 370.136719 -238.425781 369.800781 -239.941406 369.40625 L -240.054688 369.40625 C -241.574219 369.011719 -243.09375 368.617188 -244.554688 368.167969 C -248.828125 366.875 -252.933594 365.300781 -256.871094 363.5 C -258.835938 362.597656 -260.75 361.644531 -262.605469 360.628906 C -262.773438 360.519531 -263 360.40625 -263.167969 360.292969 C -264.796875 359.449219 -266.375 358.492188 -267.890625 357.480469 C -268.230469 357.3125 -268.511719 357.144531 -268.847656 356.917969 C -270.703125 355.734375 -272.445312 354.5 -274.191406 353.203125 C -275.425781 352.304688 -276.609375 351.347656 -277.789062 350.335938 L -278.746094 349.605469 L -280.375 348.140625 C -287.742188 341.671875 -294.039062 334.019531 -299.046875 325.582031 L -299.664062 324.625 L -300.339844 323.332031 C -301.070312 322.09375 -301.746094 320.855469 -302.363281 319.617188 C -302.925781 318.605469 -303.429688 317.539062 -303.882812 316.46875 C -304.78125 314.5 -305.625 312.53125 -306.355469 310.449219 C -307.480469 307.578125 -308.4375 304.65625 -309.222656 301.617188 C -310.179688 298.242188 -310.910156 294.753906 -311.417969 291.265625 C -311.53125 290.703125 -311.585938 290.253906 -311.585938 289.746094 C -312.035156 287.046875 -312.261719 284.347656 -312.429688 281.589844 C -312.429688 281.589844 -312.652344 279.28125 -312.652344 279.28125 L -312.652344 -119.074219 L -359.722656 -119.074219 L -359.722656 243.335938 C -359.722656 243.335938 -359.722656 265.21875 -359.667969 274.839844 C -359.722656 277.03125 -359.722656 278.609375 -359.667969 279.113281 C -359.722656 279.226562 -359.722656 279.394531 -359.667969 279.507812 L -359.441406 285.472656 C -359.386719 287.046875 -359.214844 288.621094 -359.046875 290.253906 L -358.484375 295.316406 L -357.921875 299.308594 C -357.808594 300.042969 -357.699219 300.828125 -357.527344 301.558594 L -356.347656 307.46875 C -356.179688 308.425781 -355.953125 309.324219 -355.671875 310.28125 L -354.71875 314.160156 C -354.71875 314.160156 -354.660156 314.5 -354.546875 314.667969 L -352.46875 321.699219 C -352.300781 322.207031 -352.128906 322.714844 -351.90625 323.21875 L -348.867188 331.375 L -344.875 340.097656 L -341.050781 347.242188 C -340.769531 347.859375 -340.378906 348.480469 -339.984375 349.097656 L -337.339844 353.375 C -337.058594 353.878906 -336.777344 354.328125 -336.441406 354.835938 L -334.25 358.097656 C -333.910156 358.550781 -333.628906 359 -333.292969 359.394531 L -329.917969 363.949219 C -328.90625 365.300781 -327.894531 366.59375 -326.824219 367.832031 C -326.429688 368.335938 -325.980469 368.789062 -325.644531 369.292969 L -323.28125 371.882812 C -322.890625 372.386719 -322.4375 372.894531 -321.933594 373.34375 C -320.640625 374.808594 -319.289062 376.214844 -317.941406 377.5625 C -316.535156 378.96875 -315.070312 380.375 -313.609375 381.726562 C -313.046875 382.234375 -312.484375 382.796875 -311.867188 383.246094 C -310.796875 384.257812 -309.671875 385.214844 -308.550781 386.171875 C -303.601562 390.335938 -298.371094 394.105469 -292.914062 397.535156 L -288.699219 400.066406 C -288.359375 400.292969 -288.023438 400.515625 -287.6875 400.628906 L -283.636719 402.878906 C -283.300781 403.105469 -282.960938 403.273438 -282.625 403.441406 L -279.476562 404.960938 L -277.339844 406.03125 C -276.101562 406.59375 -274.863281 407.15625 -273.628906 407.71875 C -272.839844 408.054688 -271.996094 408.394531 -271.210938 408.730469 C -270.027344 409.238281 -268.792969 409.6875 -267.609375 410.136719 L -264.066406 411.429688 C -262.269531 412.105469 -260.414062 412.667969 -258.554688 413.230469 C -256.871094 413.792969 -255.183594 414.242188 -253.496094 414.695312 L -252.765625 414.863281 C -251.863281 415.085938 -250.964844 415.3125 -250.066406 415.539062 L -249.277344 415.707031 C -248.378906 415.929688 -247.476562 416.101562 -246.523438 416.324219 L -245.847656 416.4375 L -243.65625 416.886719 L -240.054688 417.507812 L -240 417.507812 L -237.355469 417.902344 C -234.433594 418.351562 -231.507812 418.6875 -228.527344 418.855469 L -223.074219 419.25 L -222.679688 419.25 C -220.824219 419.308594 -218.96875 419.363281 -217.113281 419.363281 L -216.097656 419.363281 C -216.097656 419.363281 -23.550781 432.246094 30.433594 234.894531 L 32.457031 228.257812 L 35.101562 218.582031 L 36.335938 213.292969 L 37.519531 207.667969 L 38.753906 201.308594 L 39.65625 195.460938 L 40.949219 185.894531 L 41.453125 180.496094 L 41.847656 175.433594 L 42.355469 163.503906 L 42.355469 155.234375 L 42.523438 148.316406 L 43.199219 133.070312 L 43.199219 -119.074219 L -3.871094 -119.074219 Z M -3.871094 101.734375 " fill-opacity="1" fill-rule="nonzero"/></svg>