<svg xmlns="http://www.w3.org/2000/svg" xmlns:xlink="http://www.w3.org/1999/xlink" width="600" zoomAndPan="magnify" viewBox="0 0 450 449.999984" height="600" preserveAspectRatio="xMidYMid meet" version="1.0"><defs><clipPath id="6fce832fe6"><path d="M 37 71 L 157 71 L 157 195.75 L 37 195.75 Z M 37 71 " clip-rule="nonzero"/></clipPath><clipPath id="bd6787d975"><path d="M 173 71 L 313 71 L 313 195.75 L 173 195.75 Z M 173 71 " clip-rule="nonzero"/></clipPath><clipPath id="79076d40f1"><path d="M 329 71 L 450 71 L 450 195.75 L 329 195.75 Z M 329 71 " clip-rule="nonzero"/></clipPath></defs><rect x="-45" width="540" fill="#ffffff" y="-44.999998" height="539.99998" fill-opacity="1"/><rect x="-45" width="540" fill="#13144d" y="-44.999998" height="539.99998" fill-opacity="1"/><g clip-path="url(#6fce832fe6)"><path fill="#f4f5f7" d="M 118.296875 71.402344 L 156.480469 71.402344 L 156.480469 145.0625 C 156.480469 152.359375 155.324219 159.25 153.042969 165.769531 C 150.765625 172.285156 147.175781 177.929688 142.335938 182.796875 C 137.464844 187.660156 132.347656 191.0625 127.007812 193.027344 C 119.578125 195.769531 110.648438 197.140625 100.253906 197.140625 C 94.226562 197.140625 87.671875 196.707031 80.523438 195.863281 C 73.402344 195.019531 67.441406 193.335938 62.664062 190.84375 C 57.886719 188.347656 53.515625 184.792969 49.519531 180.175781 C 45.554688 175.5625 42.839844 170.820312 41.371094 165.925781 C 39 158.066406 37.8125 151.082031 37.8125 145.03125 L 37.8125 71.371094 L 75.996094 71.371094 L 75.996094 146.808594 C 75.996094 153.542969 77.867188 158.816406 81.613281 162.621094 C 85.359375 166.425781 90.542969 168.296875 97.191406 168.296875 C 103.84375 168.296875 108.933594 166.425781 112.679688 162.683594 C 116.425781 158.9375 118.296875 153.636719 118.296875 146.808594 L 118.296875 71.371094 Z M 118.296875 71.402344 " fill-opacity="1" fill-rule="nonzero"/></g><g clip-path="url(#bd6787d975)"><path fill="#f4f5f7" d="M 173.617188 71.402344 L 223.914062 71.402344 L 243.300781 146.652344 L 262.5625 71.402344 L 312.824219 71.402344 L 312.824219 195.050781 L 281.511719 195.050781 L 281.511719 100.746094 L 257.378906 195.050781 L 229.03125 195.050781 L 204.929688 100.746094 L 204.929688 195.050781 L 173.617188 195.050781 Z M 173.617188 71.402344 " fill-opacity="1" fill-rule="nonzero"/></g><g clip-path="url(#79076d40f1)"><path fill="#f4f5f7" d="M 329.933594 71.402344 L 380.226562 71.402344 L 399.613281 146.652344 L 418.878906 71.402344 L 469.140625 71.402344 L 469.140625 195.050781 L 437.828125 195.050781 L 437.828125 100.746094 L 413.695312 195.050781 L 385.347656 195.050781 L 361.246094 100.746094 L 361.246094 195.050781 L 329.933594 195.050781 Z M 329.933594 71.402344 " fill-opacity="1" fill-rule="nonzero"/></g><path fill="#06e3a7" d="M 140.632812 243.199219 L 140.632812 253.320312 L 114.148438 253.320312 L 114.148438 265.949219 L 137.097656 265.949219 L 137.097656 275.304688 L 114.148438 275.304688 L 114.148438 297.910156 L 102.089844 297.910156 L 102.089844 243.164062 L 140.59375 243.164062 Z M 140.632812 243.199219 " fill-opacity="1" fill-rule="nonzero"/><path fill="#06e3a7" d="M 179.902344 243.199219 L 200.375 297.945312 L 187.878906 297.945312 L 183.726562 285.75 L 163.253906 285.75 L 158.957031 297.945312 L 146.824219 297.945312 L 167.550781 243.199219 Z M 180.59375 276.761719 L 173.671875 256.667969 L 173.527344 256.667969 L 166.386719 276.761719 Z M 180.59375 276.761719 " fill-opacity="1" fill-rule="nonzero"/><path fill="#06e3a7" d="M 214.363281 243.199219 L 226.417969 243.199219 L 226.417969 297.945312 L 214.363281 297.945312 Z M 214.363281 243.199219 " fill-opacity="1" fill-rule="nonzero"/><path fill="#06e3a7" d="M 241.902344 253.320312 L 241.902344 243.199219 L 286.78125 243.199219 L 286.78125 253.320312 L 270.351562 253.320312 L 270.351562 297.945312 L 258.292969 297.945312 L 258.292969 253.320312 L 241.863281 253.320312 Z M 241.902344 253.320312 " fill-opacity="1" fill-rule="nonzero"/><path fill="#06e3a7" d="M 314.320312 243.199219 L 314.320312 264.203125 L 336.503906 264.203125 L 336.503906 243.199219 L 348.5625 243.199219 L 348.5625 297.945312 L 336.503906 297.945312 L 336.503906 274.320312 L 314.320312 274.320312 L 314.320312 297.945312 L 302.261719 297.945312 L 302.261719 243.199219 Z M 314.320312 243.199219 " fill-opacity="1" fill-rule="nonzero"/><path fill="#06e3a7" d="M 367.867188 243.199219 L 372.714844 243.199219 L 394.132812 294.195312 L 394.28125 294.195312 L 415.445312 243.199219 L 420.289062 243.199219 L 420.289062 297.945312 L 416.902344 297.945312 L 416.902344 247.347656 L 416.753906 247.347656 L 395.882812 297.945312 L 392.496094 297.945312 L 371.402344 247.347656 L 371.257812 247.347656 L 371.257812 297.945312 L 367.867188 297.945312 Z M 367.867188 243.199219 " fill-opacity="1" fill-rule="nonzero"/><path fill="#06e3a7" d="M 439.160156 243.199219 L 475.988281 243.199219 L 475.988281 246.113281 L 442.546875 246.113281 L 442.546875 268.023438 L 473.984375 268.023438 L 473.984375 270.9375 L 442.546875 270.9375 L 442.546875 294.996094 L 476.386719 294.996094 L 476.386719 297.910156 L 439.195312 297.910156 L 439.195312 243.164062 Z M 439.160156 243.199219 " fill-opacity="1" fill-rule="nonzero"/></svg>