<svg xmlns="http://www.w3.org/2000/svg" xmlns:xlink="http://www.w3.org/1999/xlink" width="600" zoomAndPan="magnify" viewBox="0 0 450 449.999984" height="600" preserveAspectRatio="xMidYMid meet" version="1.0"><rect x="-45" width="540" fill="#ffffff" y="-44.999998" height="539.99998" fill-opacity="1"/><rect x="-45" width="540" fill="#13144d" y="-44.999998" height="539.99998" fill-opacity="1"/><path fill="#f4f5f7" d="M -119.832031 70.9375 L -69.890625 70.9375 L -50.640625 145.683594 L -31.511719 70.9375 L 18.398438 70.9375 L 18.398438 193.757812 L -12.695312 193.757812 L -12.695312 100.085938 L -36.65625 193.757812 L -64.804688 193.757812 L -88.738281 100.085938 L -88.738281 193.757812 L -119.832031 193.757812 Z M -119.832031 70.9375 " fill-opacity="1" fill-rule="nonzero"/><path fill="#f4f5f7" d="M 118.214844 173.46875 L 75.09375 173.46875 L 69.113281 193.757812 L 30.332031 193.757812 L 76.519531 70.9375 L 117.9375 70.9375 L 164.125 193.757812 L 124.355469 193.757812 Z M 110.34375 146.921875 L 96.765625 102.78125 L 83.339844 146.921875 Z M 110.34375 146.921875 " fill-opacity="1" fill-rule="nonzero"/><path fill="#f4f5f7" d="M 176.371094 70.9375 L 214.34375 70.9375 L 214.34375 113.933594 L 255.855469 113.933594 L 255.855469 70.9375 L 294.015625 70.9375 L 294.015625 193.757812 L 255.855469 193.757812 L 255.855469 144.070312 L 214.34375 144.070312 L 214.34375 193.757812 L 176.371094 193.757812 Z M 176.371094 70.9375 " fill-opacity="1" fill-rule="nonzero"/><path fill="#f4f5f7" d="M 354.152344 70.9375 L 469.597656 70.9375 L 469.597656 101.261719 L 430.847656 101.261719 L 430.847656 193.757812 L 392.871094 193.757812 L 392.871094 101.261719 L 354.121094 101.261719 L 354.121094 70.9375 Z M 354.152344 70.9375 " fill-opacity="1" fill-rule="nonzero"/><path fill="#06e3a7" d="M -11.882812 240.964844 L 24.71875 240.964844 L 24.71875 243.859375 L -8.515625 243.859375 L -8.515625 265.644531 L 22.726562 265.644531 L 22.726562 268.539062 L -8.515625 268.539062 L -8.515625 292.457031 L 25.117188 292.457031 L 25.117188 295.351562 L -11.847656 295.351562 L -11.847656 240.929688 Z M -11.882812 240.964844 " fill-opacity="1" fill-rule="nonzero"/><path fill="#06e3a7" d="M 39.957031 240.964844 L 76.558594 240.964844 L 76.558594 243.859375 L 43.324219 243.859375 L 43.324219 265.644531 L 74.566406 265.644531 L 74.566406 268.539062 L 43.324219 268.539062 L 43.324219 292.457031 L 76.957031 292.457031 L 76.957031 295.351562 L 39.996094 295.351562 L 39.996094 240.929688 Z M 39.957031 240.964844 " fill-opacity="1" fill-rule="nonzero"/><path fill="#06e3a7" d="M 85.9375 243.859375 L 85.9375 240.964844 L 127.640625 240.964844 L 127.640625 243.859375 L 108.417969 243.859375 L 108.417969 295.390625 L 105.050781 295.390625 L 105.050781 243.859375 L 85.898438 243.859375 Z M 85.9375 243.859375 " fill-opacity="1" fill-rule="nonzero"/><path fill="#06e3a7" d="M 175.136719 256.488281 C 175.03125 254.136719 174.523438 252.109375 173.652344 250.371094 C 172.75 248.636719 171.554688 247.1875 170.035156 246.03125 C 168.511719 244.871094 166.703125 243.96875 164.566406 243.390625 C 162.46875 242.808594 160.152344 242.519531 157.652344 242.519531 C 156.132812 242.519531 154.503906 242.703125 152.730469 243.0625 C 150.953125 243.425781 149.363281 244.039062 147.839844 244.945312 C 146.355469 245.847656 145.089844 247.042969 144.148438 248.527344 C 143.171875 250.011719 142.699219 251.894531 142.699219 254.136719 C 142.699219 256.378906 143.242188 258.117188 144.292969 259.457031 C 145.34375 260.832031 146.753906 261.917969 148.492188 262.785156 C 150.230469 263.617188 152.222656 264.304688 154.429688 264.8125 C 156.675781 265.316406 158.917969 265.789062 161.199219 266.257812 C 163.554688 266.730469 165.796875 267.273438 168.042969 267.886719 C 170.25 268.539062 172.242188 269.371094 173.980469 270.492188 C 175.753906 271.578125 177.128906 273.027344 178.214844 274.761719 C 179.265625 276.5 179.808594 278.707031 179.808594 281.347656 C 179.808594 284.207031 179.191406 286.597656 177.960938 288.515625 C 176.730469 290.433594 175.210938 292.023438 173.363281 293.253906 C 171.519531 294.484375 169.453125 295.351562 167.171875 295.894531 C 164.894531 296.4375 162.757812 296.691406 160.65625 296.691406 C 157.472656 296.691406 154.464844 296.367188 151.644531 295.679688 C 148.820312 294.992188 146.394531 293.871094 144.328125 292.3125 C 142.265625 290.757812 140.601562 288.765625 139.40625 286.34375 C 138.210938 283.917969 137.632812 280.914062 137.703125 277.441406 L 141.070312 277.441406 C 140.925781 280.445312 141.359375 282.976562 142.375 285.039062 C 143.386719 287.101562 144.800781 288.804688 146.609375 290.105469 C 148.421875 291.445312 150.519531 292.386719 152.980469 292.964844 C 155.40625 293.542969 157.976562 293.832031 160.691406 293.832031 C 162.324219 293.832031 164.058594 293.617188 165.90625 293.21875 C 167.753906 292.820312 169.453125 292.132812 171.011719 291.15625 C 172.566406 290.179688 173.871094 288.914062 174.882812 287.355469 C 175.898438 285.800781 176.441406 283.808594 176.441406 281.421875 C 176.441406 279.03125 175.898438 277.261719 174.847656 275.8125 C 173.796875 274.363281 172.386719 273.207031 170.613281 272.300781 C 168.875 271.398438 166.882812 270.710938 164.675781 270.167969 C 162.46875 269.625 160.1875 269.152344 157.832031 268.683594 C 155.550781 268.214844 153.273438 267.707031 151.0625 267.089844 C 148.855469 266.476562 146.828125 265.644531 145.125 264.628906 C 143.390625 263.582031 142.011719 262.242188 140.925781 260.578125 C 139.878906 258.914062 139.335938 256.8125 139.335938 254.207031 C 139.335938 251.601562 139.878906 249.394531 140.964844 247.550781 C 142.050781 245.703125 143.460938 244.183594 145.234375 243.0625 C 147.007812 241.941406 148.964844 241.074219 151.136719 240.566406 C 153.308594 240.023438 155.480469 239.769531 157.617188 239.769531 C 160.476562 239.769531 163.117188 240.097656 165.582031 240.710938 C 168.042969 241.363281 170.214844 242.339844 172.0625 243.679688 C 173.90625 245.015625 175.390625 246.753906 176.515625 248.890625 C 177.636719 251.023438 178.25 253.59375 178.433594 256.597656 L 175.066406 256.597656 Z M 175.136719 256.488281 " fill-opacity="1" fill-rule="nonzero"/><path fill="#06e3a7" d="M 192.984375 251.023438 L 192.984375 240.964844 L 237.585938 240.964844 L 237.585938 251.023438 L 221.261719 251.023438 L 221.261719 295.390625 L 209.277344 295.390625 L 209.277344 251.023438 L 192.949219 251.023438 Z M 192.984375 251.023438 " fill-opacity="1" fill-rule="nonzero"/><path fill="#06e3a7" d="M 293.699219 240.964844 L 293.699219 251.023438 L 264.957031 251.023438 L 264.957031 262.675781 L 291.347656 262.675781 L 291.347656 271.976562 L 264.957031 271.976562 L 264.957031 285.328125 L 294.316406 285.328125 L 294.316406 295.390625 L 252.972656 295.390625 L 252.972656 240.964844 Z M 293.699219 240.964844 " fill-opacity="1" fill-rule="nonzero"/><path fill="#06e3a7" d="M 346.484375 255.476562 C 345.757812 254.316406 344.890625 253.339844 343.804688 252.472656 C 342.753906 251.601562 341.523438 250.953125 340.183594 250.445312 C 338.84375 249.976562 337.433594 249.722656 335.949219 249.722656 C 333.269531 249.722656 330.953125 250.226562 329.070312 251.277344 C 327.1875 252.328125 325.667969 253.703125 324.507812 255.476562 C 323.351562 257.210938 322.480469 259.238281 321.9375 261.445312 C 321.394531 263.691406 321.140625 266.003906 321.140625 268.394531 C 321.140625 270.78125 321.394531 272.917969 321.9375 275.050781 C 322.480469 277.222656 323.3125 279.140625 324.507812 280.878906 C 325.667969 282.617188 327.1875 283.992188 329.070312 285.039062 C 330.953125 286.089844 333.234375 286.597656 335.949219 286.597656 C 339.605469 286.597656 342.464844 285.472656 344.527344 283.230469 C 346.59375 280.988281 347.859375 278.054688 348.292969 274.402344 L 359.878906 274.402344 C 359.589844 277.800781 358.792969 280.878906 357.527344 283.628906 C 356.257812 286.378906 354.59375 288.695312 352.492188 290.648438 C 350.394531 292.566406 347.96875 294.050781 345.179688 295.0625 C 342.394531 296.078125 339.316406 296.582031 335.949219 296.582031 C 331.785156 296.582031 328.019531 295.859375 324.691406 294.414062 C 321.359375 292.964844 318.535156 290.976562 316.253906 288.441406 C 313.972656 285.910156 312.199219 282.90625 311.003906 279.46875 C 309.773438 276.03125 309.160156 272.339844 309.160156 268.394531 C 309.160156 264.449219 309.773438 260.542969 311.003906 257.066406 C 312.234375 253.59375 313.972656 250.554688 316.253906 247.949219 C 318.535156 245.34375 321.359375 243.316406 324.691406 241.867188 C 328.019531 240.386719 331.785156 239.660156 335.949219 239.660156 C 338.953125 239.660156 341.777344 240.097656 344.457031 240.964844 C 347.136719 241.832031 349.523438 243.097656 351.625 244.726562 C 353.722656 246.355469 355.460938 248.417969 356.835938 250.878906 C 358.214844 253.304688 359.082031 256.125 359.445312 259.273438 L 347.859375 259.273438 C 347.640625 257.898438 347.207031 256.632812 346.484375 255.511719 Z M 346.484375 255.476562 " fill-opacity="1" fill-rule="nonzero"/><path fill="#06e3a7" d="M 389.167969 240.964844 L 389.167969 261.84375 L 411.214844 261.84375 L 411.214844 240.964844 L 423.195312 240.964844 L 423.195312 295.390625 L 411.214844 295.390625 L 411.214844 271.902344 L 389.167969 271.902344 L 389.167969 295.390625 L 377.183594 295.390625 L 377.183594 240.964844 Z M 389.167969 240.964844 " fill-opacity="1" fill-rule="nonzero"/><path fill="#06e3a7" d="M 454.765625 240.964844 L 477.5 277.476562 L 477.644531 277.476562 L 477.644531 240.964844 L 488.867188 240.964844 L 488.867188 295.390625 L 476.882812 295.390625 L 454.257812 258.949219 L 454.113281 258.949219 L 454.113281 295.390625 L 442.890625 295.390625 L 442.890625 240.964844 L 454.800781 240.964844 Z M 454.765625 240.964844 " fill-opacity="1" fill-rule="nonzero"/></svg>