<svg xmlns="http://www.w3.org/2000/svg" xmlns:xlink="http://www.w3.org/1999/xlink" width="600" zoomAndPan="magnify" viewBox="0 0 450 449.999984" height="600" preserveAspectRatio="xMidYMid meet" version="1.0"><defs><clipPath id="e18873e88d"><path d="M 154 69 L 275 69 L 275 196.5 L 154 196.5 Z M 154 69 " clip-rule="nonzero"/></clipPath></defs><rect x="-45" width="540" fill="#ffffff" y="-44.999998" height="539.99998" fill-opacity="1"/><rect x="-45" width="540" fill="#0b0c2e" y="-44.999998" height="539.99998" fill-opacity="1"/><path fill="#f4f5f7" d="M -97.78125 71.996094 L 17.894531 71.996094 L 17.894531 102.390625 L -20.933594 102.390625 L -20.933594 195.09375 L -58.984375 195.09375 L -58.984375 102.390625 L -97.8125 102.390625 L -97.8125 71.996094 Z M -97.78125 71.996094 " fill-opacity="1" fill-rule="nonzero"/><path fill="#f4f5f7" d="M 35.039062 71.996094 L 137.019531 71.996094 L 137.019531 98.292969 L 73.152344 98.292969 L 73.152344 117.851562 L 132.390625 117.851562 L 132.390625 142.96875 L 73.152344 142.96875 L 73.152344 167.246094 L 138.851562 167.246094 L 138.851562 195.125 L 35.007812 195.125 L 35.007812 72.027344 Z M 35.039062 71.996094 " fill-opacity="1" fill-rule="nonzero"/><g clip-path="url(#e18873e88d)"><path fill="#f4f5f7" d="M 241.355469 144.707031 L 274.71875 154.796875 C 272.480469 164.140625 268.941406 171.964844 264.125 178.234375 C 259.308594 184.507812 253.316406 189.226562 246.203125 192.421875 C 239.089844 195.621094 229.988281 197.203125 218.929688 197.203125 C 205.542969 197.203125 194.609375 195.25 186.128906 191.367188 C 177.648438 187.488281 170.316406 180.625 164.167969 170.847656 C 158.015625 161.066406 154.910156 148.523438 154.910156 133.25 C 154.910156 112.882812 160.316406 97.238281 171.15625 86.308594 C 181.996094 75.382812 197.339844 69.917969 217.160156 69.917969 C 232.660156 69.917969 244.867188 73.054688 253.75 79.324219 C 262.632812 85.59375 269.21875 95.21875 273.535156 108.195312 L 239.925781 115.679688 C 238.746094 111.921875 237.535156 109.191406 236.230469 107.453125 C 234.085938 104.535156 231.507812 102.296875 228.402344 100.746094 C 225.328125 99.195312 221.878906 98.386719 218.058594 98.386719 C 209.425781 98.386719 202.839844 101.863281 198.242188 108.785156 C 194.761719 113.941406 193.023438 122.011719 193.023438 133.03125 C 193.023438 146.691406 195.105469 156.039062 199.234375 161.097656 C 203.367188 166.160156 209.207031 168.703125 216.722656 168.703125 C 224.242188 168.703125 229.523438 166.65625 233.21875 162.589844 C 236.945312 158.492188 239.648438 152.5625 241.324219 144.800781 Z M 241.355469 144.707031 " fill-opacity="1" fill-rule="nonzero"/></g><path fill="#f4f5f7" d="M 293.386719 71.996094 L 331.4375 71.996094 L 331.4375 115.089844 L 373.03125 115.089844 L 373.03125 71.996094 L 411.265625 71.996094 L 411.265625 195.09375 L 373.03125 195.09375 L 373.03125 145.296875 L 331.4375 145.296875 L 331.4375 195.09375 L 293.386719 195.09375 Z M 293.386719 71.996094 " fill-opacity="1" fill-rule="nonzero"/><path fill="#06e3a7" d="M 3.984375 241.324219 L 26.777344 277.945312 L 26.925781 277.945312 L 26.925781 241.324219 L 38.175781 241.324219 L 38.175781 295.910156 L 26.160156 295.910156 L 3.476562 259.363281 L 3.332031 259.363281 L 3.332031 295.910156 L -7.921875 295.910156 L -7.921875 241.324219 L 4.019531 241.324219 Z M 3.984375 241.324219 " fill-opacity="1" fill-rule="nonzero"/><path fill="#06e3a7" d="M 57.339844 257.476562 C 58.574219 253.992188 60.316406 250.941406 62.605469 248.328125 C 64.890625 245.714844 67.722656 243.683594 71.0625 242.230469 C 74.402344 240.742188 78.175781 240.019531 82.347656 240.019531 C 86.523438 240.019531 90.335938 240.742188 93.675781 242.230469 C 96.976562 243.71875 99.808594 245.753906 102.09375 248.328125 C 104.382812 250.941406 106.160156 253.992188 107.359375 257.476562 C 108.59375 260.960938 109.210938 264.734375 109.210938 268.835938 C 109.210938 272.9375 108.59375 276.53125 107.359375 279.941406 C 106.125 283.390625 104.382812 286.363281 102.09375 288.941406 C 99.808594 291.484375 97.011719 293.480469 93.675781 294.929688 C 90.371094 296.382812 86.597656 297.109375 82.347656 297.109375 C 78.101562 297.109375 74.402344 296.382812 71.0625 294.929688 C 67.722656 293.480469 64.890625 291.484375 62.605469 288.941406 C 60.316406 286.402344 58.539062 283.390625 57.339844 279.941406 C 56.105469 276.492188 55.488281 272.792969 55.488281 268.835938 C 55.488281 264.878906 56.105469 260.960938 57.339844 257.476562 Z M 68.300781 275.511719 C 68.847656 277.691406 69.683594 279.613281 70.878906 281.355469 C 72.042969 283.097656 73.566406 284.476562 75.453125 285.53125 C 77.339844 286.582031 79.628906 287.089844 82.347656 287.089844 C 85.070312 287.089844 87.359375 286.582031 89.246094 285.53125 C 91.132812 284.476562 92.65625 283.097656 93.820312 281.355469 C 94.980469 279.613281 95.851562 277.691406 96.398438 275.511719 C 96.941406 273.335938 97.195312 271.121094 97.195312 268.835938 C 97.195312 266.546875 96.941406 264.117188 96.398438 261.867188 C 95.851562 259.617188 95.015625 257.621094 93.820312 255.878906 C 92.621094 254.136719 91.132812 252.722656 89.246094 251.667969 C 87.359375 250.617188 85.070312 250.109375 82.347656 250.109375 C 79.628906 250.109375 77.339844 250.617188 75.453125 251.667969 C 73.566406 252.722656 72.042969 254.101562 70.878906 255.878906 C 69.71875 257.621094 68.847656 259.652344 68.300781 261.867188 C 67.757812 264.117188 67.503906 266.441406 67.503906 268.835938 C 67.503906 271.230469 67.757812 273.371094 68.300781 275.511719 Z M 68.300781 275.511719 " fill-opacity="1" fill-rule="nonzero"/><path fill="#06e3a7" d="M 138.5 241.324219 L 138.5 285.820312 L 165.105469 285.820312 L 165.105469 295.910156 L 126.488281 295.910156 L 126.488281 241.324219 Z M 138.5 241.324219 " fill-opacity="1" fill-rule="nonzero"/><path fill="#06e3a7" d="M 180.496094 257.476562 C 181.730469 253.992188 183.472656 250.941406 185.761719 248.328125 C 188.046875 245.714844 190.878906 243.683594 194.21875 242.230469 C 197.554688 240.742188 201.332031 240.019531 205.503906 240.019531 C 209.679688 240.019531 213.492188 240.742188 216.832031 242.230469 C 220.132812 243.71875 222.964844 245.753906 225.25 248.328125 C 227.539062 250.941406 229.316406 253.992188 230.515625 257.476562 C 231.75 260.960938 232.367188 264.734375 232.367188 268.835938 C 232.367188 272.9375 231.75 276.53125 230.515625 279.941406 C 229.28125 283.390625 227.539062 286.363281 225.25 288.941406 C 222.964844 291.484375 220.167969 293.480469 216.832031 294.929688 C 213.527344 296.382812 209.753906 297.109375 205.503906 297.109375 C 201.257812 297.109375 197.554688 296.382812 194.21875 294.929688 C 190.878906 293.480469 188.046875 291.484375 185.761719 288.941406 C 183.472656 286.402344 181.695312 283.390625 180.496094 279.941406 C 179.261719 276.492188 178.644531 272.792969 178.644531 268.835938 C 178.644531 264.878906 179.261719 260.960938 180.496094 257.476562 Z M 191.457031 275.511719 C 192.003906 277.691406 192.839844 279.613281 194.035156 281.355469 C 195.195312 283.097656 196.722656 284.476562 198.609375 285.53125 C 200.496094 286.582031 202.785156 287.089844 205.503906 287.089844 C 208.226562 287.089844 210.515625 286.582031 212.402344 285.53125 C 214.289062 284.476562 215.8125 283.097656 216.976562 281.355469 C 218.136719 279.613281 219.007812 277.691406 219.550781 275.511719 C 220.097656 273.335938 220.351562 271.121094 220.351562 268.835938 C 220.351562 266.546875 220.097656 264.117188 219.550781 261.867188 C 219.007812 259.617188 218.171875 257.621094 216.976562 255.878906 C 215.777344 254.136719 214.289062 252.722656 212.402344 251.667969 C 210.515625 250.617188 208.226562 250.109375 205.503906 250.109375 C 202.785156 250.109375 200.496094 250.617188 198.609375 251.667969 C 196.722656 252.722656 195.195312 254.101562 194.035156 255.878906 C 192.875 257.621094 192.003906 259.652344 191.457031 261.867188 C 190.914062 264.117188 190.660156 266.441406 190.660156 268.835938 C 190.660156 271.230469 190.914062 273.371094 191.457031 275.511719 Z M 191.457031 275.511719 " fill-opacity="1" fill-rule="nonzero"/><path fill="#06e3a7" d="M 282.019531 295.476562 C 279.40625 296.5625 276.792969 297.109375 274.144531 297.109375 C 269.96875 297.109375 266.195312 296.382812 262.855469 294.929688 C 259.515625 293.480469 256.683594 291.484375 254.398438 288.941406 C 252.109375 286.402344 250.332031 283.390625 249.136719 279.941406 C 247.902344 276.492188 247.285156 272.792969 247.285156 268.835938 C 247.285156 264.878906 247.902344 260.960938 249.136719 257.476562 C 250.367188 253.992188 252.109375 250.941406 254.398438 248.328125 C 256.683594 245.714844 259.515625 243.683594 262.855469 242.230469 C 266.195312 240.742188 269.96875 240.019531 274.144531 240.019531 C 276.9375 240.019531 279.660156 240.453125 282.273438 241.289062 C 284.886719 242.121094 287.28125 243.355469 289.386719 244.992188 C 291.492188 246.625 293.234375 248.621094 294.613281 251.015625 C 295.996094 253.410156 296.828125 256.167969 297.15625 259.253906 L 285.6875 259.253906 C 284.960938 256.203125 283.582031 253.917969 281.546875 252.359375 C 279.515625 250.832031 277.046875 250.070312 274.144531 250.070312 C 271.457031 250.070312 269.132812 250.578125 267.246094 251.632812 C 265.359375 252.683594 263.835938 254.0625 262.671875 255.84375 C 261.511719 257.585938 260.640625 259.617188 260.097656 261.832031 C 259.550781 264.082031 259.296875 266.402344 259.296875 268.800781 C 259.296875 271.195312 259.550781 273.335938 260.097656 275.476562 C 260.640625 277.65625 261.476562 279.578125 262.671875 281.320312 C 263.835938 283.0625 265.359375 284.441406 267.246094 285.492188 C 269.132812 286.546875 271.421875 287.054688 274.144531 287.054688 C 278.136719 287.054688 281.183594 286.039062 283.363281 284.042969 C 285.539062 282.046875 286.773438 279.105469 287.136719 275.296875 L 275.050781 275.296875 L 275.050781 266.367188 L 297.992188 266.367188 L 297.992188 295.875 L 290.332031 295.875 L 289.097656 289.667969 C 286.957031 292.425781 284.597656 294.351562 281.984375 295.4375 Z M 282.019531 295.476562 " fill-opacity="1" fill-rule="nonzero"/><path fill="#06e3a7" d="M 310.984375 241.324219 L 324.449219 241.324219 L 337.226562 262.882812 L 349.933594 241.324219 L 363.324219 241.324219 L 343.070312 274.96875 L 343.070312 295.910156 L 331.058594 295.910156 L 331.058594 274.640625 L 311.019531 241.324219 Z M 310.984375 241.324219 " fill-opacity="1" fill-rule="nonzero"/></svg>