<?xml version="1.0" encoding="UTF-8"?>
<svg id="Layer_1" xmlns="http://www.w3.org/2000/svg" viewBox="0 0 394.94 70.26">
  <defs>
    <style>
      .cls-1 {
        fill: #f4f5f7;
      }
    </style>
  </defs>
  <path class="cls-1" d="M47.84,29.68v2.78h-7.27v3.47h6.3v2.57h-6.3v6.21h-3.31v-15.04h10.57Z"/>
  <path class="cls-1" d="M58.62,29.68l5.62,15.04h-3.43l-1.14-3.35h-5.62l-1.18,3.35h-3.33l5.69-15.04h3.39ZM58.81,38.9l-1.9-5.52h-.04l-1.96,5.52h3.9Z"/>
  <path class="cls-1" d="M71.39,29.68v15.04h-3.31v-15.04h3.31Z"/>
  <path class="cls-1" d="M75.64,32.46v-2.78h12.32v2.78h-4.51v12.26h-3.31v-12.26h-4.51Z"/>
  <path class="cls-1" d="M95.52,29.68v5.77h6.09v-5.77h3.31v15.04h-3.31v-6.49h-6.09v6.49h-3.31v-15.04h3.31Z"/>
  <path class="cls-1" d="M110.22,29.68h1.33l5.88,14.01h.04l5.81-14.01h1.33v15.04h-.93v-13.9h-.04l-5.73,13.9h-.93l-5.79-13.9h-.04v13.9h-.93v-15.04Z"/>
  <path class="cls-1" d="M129.79,29.68h10.11v.8h-9.18v6.02h8.63v.8h-8.63v6.61h9.29v.8h-10.21v-15.04Z"/>
  <path class="cls-1" d="M144.11,29.68h10.11v.8h-9.18v6.02h8.63v.8h-8.63v6.61h9.29v.8h-10.21v-15.04Z"/>
  <path class="cls-1" d="M156.81,30.48v-.8h11.52v.8h-5.31v14.24h-.93v-14.24h-5.29Z"/>
  <path class="cls-1" d="M181.45,33.97c-.03-.65-.17-1.21-.41-1.69-.25-.48-.58-.88-1-1.2s-.92-.57-1.51-.73c-.58-.16-1.22-.24-1.91-.24-.42,0-.87.05-1.36.15-.49.1-.93.27-1.35.52-.41.25-.76.58-1.02.99-.27.41-.4.93-.4,1.55s.15,1.1.44,1.47c.29.38.68.68,1.16.92.48.23,1.03.42,1.64.56.62.14,1.24.27,1.87.4.65.13,1.27.28,1.89.45.61.18,1.16.41,1.64.72.49.3.87.7,1.17,1.18.29.48.44,1.09.44,1.82,0,.79-.17,1.45-.51,1.98-.34.53-.76.97-1.27,1.31-.51.34-1.08.58-1.71.73s-1.22.22-1.8.22c-.88,0-1.71-.09-2.49-.28s-1.45-.5-2.02-.93-1.03-.98-1.36-1.65c-.33-.67-.49-1.5-.47-2.46h.93c-.04.83.08,1.53.36,2.1.28.57.67,1.04,1.17,1.4.5.37,1.08.63,1.76.79.67.16,1.38.24,2.13.24.45,0,.93-.06,1.44-.17.51-.11.98-.3,1.41-.57.43-.27.79-.62,1.07-1.05s.43-.98.43-1.64-.15-1.15-.44-1.55c-.29-.4-.68-.72-1.17-.97-.48-.25-1.03-.44-1.64-.59s-1.24-.28-1.89-.41c-.63-.13-1.26-.27-1.87-.44s-1.17-.4-1.64-.68c-.48-.29-.86-.66-1.16-1.12-.29-.46-.44-1.04-.44-1.76s.15-1.33.45-1.84c.3-.51.69-.93,1.18-1.24s1.03-.55,1.63-.69c.6-.15,1.2-.22,1.79-.22.79,0,1.52.09,2.2.26.68.18,1.28.45,1.79.82.51.37.92.85,1.23,1.44.31.59.48,1.3.53,2.13h-.93Z"/>
  <path class="cls-1" d="M186.38,32.46v-2.78h12.32v2.78h-4.51v12.26h-3.31v-12.26h-4.51Z"/>
  <path class="cls-1" d="M214.2,29.68v2.78h-7.94v3.22h7.29v2.57h-7.29v3.69h8.11v2.78h-11.42v-15.04h11.25Z"/>
  <path class="cls-1" d="M228.78,33.69c-.2-.32-.44-.59-.74-.83-.29-.24-.63-.42-1-.56-.37-.13-.76-.2-1.17-.2-.74,0-1.38.14-1.9.43-.52.29-.94.67-1.26,1.16-.32.48-.56,1.04-.71,1.65-.15.62-.22,1.26-.22,1.92s.07,1.25.22,1.84c.15.6.38,1.13.71,1.61.32.48.74.86,1.26,1.15.52.29,1.15.43,1.9.43,1.01,0,1.8-.31,2.37-.93.57-.62.92-1.43,1.04-2.44h3.2c-.08.94-.3,1.79-.65,2.55s-.81,1.4-1.39,1.94c-.58.53-1.25.94-2.02,1.22-.77.28-1.62.42-2.55.42-1.15,0-2.19-.2-3.11-.6-.92-.4-1.7-.95-2.33-1.65-.63-.7-1.12-1.53-1.45-2.48-.34-.95-.51-1.97-.51-3.06s.17-2.17.51-3.13c.34-.96.82-1.8,1.45-2.52.63-.72,1.41-1.28,2.33-1.68.92-.41,1.96-.61,3.11-.61.83,0,1.61.12,2.35.36.74.24,1.4.59,1.98,1.04s1.06,1.02,1.44,1.7c.38.67.62,1.45.72,2.32h-3.2c-.06-.38-.18-.73-.38-1.04Z"/>
  <path class="cls-1" d="M240.57,29.68v5.77h6.09v-5.77h3.31v15.04h-3.31v-6.49h-6.09v6.49h-3.31v-15.04h3.31Z"/>
  <path class="cls-1" d="M258.69,29.68l6.28,10.09h.04v-10.09h3.1v15.04h-3.31l-6.25-10.07h-.04v10.07h-3.1v-15.04h3.29Z"/>
  <path class="cls-1" d="M273.39,34.13c.34-.96.82-1.8,1.45-2.52.63-.72,1.41-1.28,2.33-1.68.92-.41,1.96-.61,3.11-.61s2.2.2,3.12.61c.91.41,1.69.97,2.32,1.68.63.72,1.12,1.56,1.45,2.52.34.96.51,2,.51,3.13s-.17,2.12-.51,3.06c-.34.95-.82,1.77-1.45,2.48-.63.7-1.4,1.25-2.32,1.65-.91.4-1.95.6-3.12.6s-2.19-.2-3.11-.6c-.92-.4-1.7-.95-2.33-1.65-.63-.7-1.12-1.53-1.45-2.48-.34-.95-.51-1.97-.51-3.06s.17-2.17.51-3.13ZM276.41,39.1c.15.6.38,1.13.71,1.61.32.48.74.86,1.26,1.15.52.29,1.15.43,1.9.43s1.38-.14,1.9-.43.94-.67,1.26-1.15.56-1.01.71-1.61c.15-.6.22-1.21.22-1.84s-.07-1.3-.22-1.92c-.15-.62-.38-1.17-.71-1.65s-.74-.87-1.26-1.16-1.15-.43-1.9-.43-1.38.14-1.9.43c-.52.29-.94.67-1.26,1.16-.32.48-.56,1.04-.71,1.65-.15.62-.22,1.26-.22,1.92s.07,1.25.22,1.84Z"/>
  <path class="cls-1" d="M295.75,29.68v12.26h7.33v2.78h-10.64v-15.04h3.31Z"/>
  <path class="cls-1" d="M307.32,34.13c.34-.96.82-1.8,1.45-2.52.63-.72,1.41-1.28,2.33-1.68.92-.41,1.96-.61,3.11-.61s2.2.2,3.12.61c.91.41,1.69.97,2.32,1.68.63.72,1.12,1.56,1.45,2.52.34.96.51,2,.51,3.13s-.17,2.12-.51,3.06c-.34.95-.82,1.77-1.45,2.48-.63.7-1.4,1.25-2.32,1.65-.91.4-1.95.6-3.12.6s-2.19-.2-3.11-.6c-.92-.4-1.7-.95-2.33-1.65-.63-.7-1.12-1.53-1.45-2.48-.34-.95-.51-1.97-.51-3.06s.17-2.17.51-3.13ZM310.34,39.1c.15.6.38,1.13.71,1.61.32.48.74.86,1.26,1.15.52.29,1.15.43,1.9.43s1.38-.14,1.9-.43.94-.67,1.26-1.15.56-1.01.71-1.61c.15-.6.22-1.21.22-1.84s-.07-1.3-.22-1.92c-.15-.62-.38-1.17-.71-1.65s-.74-.87-1.26-1.16-1.15-.43-1.9-.43-1.38.14-1.9.43c-.52.29-.94.67-1.26,1.16-.32.48-.56,1.04-.71,1.65-.15.62-.22,1.26-.22,1.92s.07,1.25.22,1.84Z"/>
  <path class="cls-1" d="M335.29,44.6c-.72.3-1.44.45-2.17.45-1.15,0-2.19-.2-3.11-.6-.92-.4-1.7-.95-2.33-1.65-.63-.7-1.12-1.53-1.45-2.48-.34-.95-.51-1.97-.51-3.06s.17-2.17.51-3.13c.34-.96.82-1.8,1.45-2.52.63-.72,1.41-1.28,2.33-1.68.92-.41,1.96-.61,3.11-.61.77,0,1.52.12,2.24.35.72.23,1.38.57,1.96,1.02.58.45,1.06,1,1.44,1.66.38.66.61,1.42.7,2.27h-3.16c-.2-.84-.58-1.47-1.14-1.9-.56-.42-1.24-.63-2.04-.63-.74,0-1.38.14-1.9.43-.52.29-.94.67-1.26,1.16-.32.48-.56,1.04-.71,1.65-.15.62-.22,1.26-.22,1.92s.07,1.25.22,1.84c.15.6.38,1.13.71,1.61.32.48.74.86,1.26,1.15.52.29,1.15.43,1.9.43,1.1,0,1.94-.28,2.54-.83.6-.55.94-1.36,1.04-2.41h-3.33v-2.46h6.32v8.13h-2.11l-.34-1.71c-.59.76-1.24,1.29-1.96,1.59Z"/>
  <path class="cls-1" d="M343.27,29.68h3.71l3.52,5.94,3.5-5.94h3.69l-5.58,9.27v5.77h-3.31v-5.86l-5.52-9.18Z"/>
</svg>