<?xml version="1.0" encoding="UTF-8"?>
<svg xmlns="http://www.w3.org/2000/svg" viewBox="4.28 18.09 156 156" fill="#5b82fc">
  <path d="M97.19,136.29c-4.17,2.57-9.07,3.96-13.69,5.77-2.74,1.08-5.58,1.93-8.69,2.99,2.64,2.89,5.6,4.5,8.76,4.56,1.05.02,2.13-.12,3.22-.45,5.51-1.65,11.27-3.42,16.01-6.54,10.65-7,15.25-17.63,15.26-30.3.02-15.39,0-30.77,0-46.16h-8.42c0,15.76,0,31.53-.03,47.29-.02,9.8-4.13,17.71-12.43,22.83Z"/>
  <path d="M122.37,105.42l-.06,8.82-.17,3.88-.19,1.42s-4.24,34.51-37.5,33.95h-.4c-.19-.01-.38-.02-.56-.03-.77-.04-1.53-.13-2.27-.28-.28-.05-.56-.11-.83-.18h-.02c-.27-.07-.54-.14-.8-.22-.76-.23-1.49-.51-2.19-.83-.35-.16-.69-.33-1.02-.51-.03-.02-.07-.04-.1-.06-.29-.15-.57-.32-.84-.5-.06-.03-.11-.06-.17-.1-.33-.21-.64-.43-.95-.66-.22-.16-.43-.33-.64-.51l-.17-.13-.29-.26c-1.31-1.15-2.43-2.51-3.32-4.01l-.11-.17-.12-.23c-.13-.22-.25-.44-.36-.66-.1-.18-.19-.37-.27-.56-.16-.35-.31-.7-.44-1.07-.2-.51-.37-1.03-.51-1.57-.17-.6-.3-1.22-.39-1.84-.02-.1-.03-.18-.03-.27-.08-.48-.12-.96-.15-1.45h0s-.04-.41-.04-.41v-70.81h-8.37v64.42s0,3.89.01,5.6c-.01.39-.01.67,0,.76-.01.02-.01.05,0,.07l.04,1.06c.01.28.04.56.07.85l.1.9.1.71c.02.13.04.27.07.4l.21,1.05c.03.17.07.33.12.5l.17.69s.01.06.03.09l.37,1.25c.03.09.06.18.1.27l.54,1.45.71,1.55.68,1.27c.05.11.12.22.19.33l.47.76c.05.09.1.17.16.26l.39.58c.06.08.11.16.17.23l.6.81c.18.24.36.47.55.69.07.09.15.17.21.26l.42.46c.07.09.15.18.24.26.23.26.47.51.71.75.25.25.51.5.77.74.1.09.2.19.31.27.19.18.39.35.59.52.88.74,1.81,1.41,2.78,2.02l.75.45c.06.04.12.08.18.1l.72.4c.06.04.12.07.18.1l.56.27.38.19c.22.1.44.2.66.3.14.06.29.12.43.18.21.09.43.17.64.25l.63.23c.32.12.65.22.98.32.3.1.6.18.9.26l.13.03c.16.04.32.08.48.12l.14.03c.16.04.32.07.49.11l.12.02.39.08.64.11h.01l.47.07c.52.08,1.04.14,1.57.17l.97.07h.07c.33.01.66.02.99.02h.18s34.24,2.29,43.84-32.79l.36-1.18.47-1.72.22-.94.21-1,.22-1.13.16-1.04.23-1.7.09-.96.07-.9.09-2.12v-1.47l.03-1.23.12-2.71v-44.82h-8.37v39.25Z"/>
  <path d="M54.86,128.16c.01-.69.02-1.39.02-2.08-.03-8.22-.04-16.44-.05-24.66v-35.24h-8.37v54.44h.01l.12,8.92s0,.25.02.69c.18,5.13,2,9.66,5.16,13.52.02.03.05.06.07.09.93,1.12,1.96,2.19,3.1,3.19.42.37.97.57,1.46.85-.03-.07-.04-.15-.07-.22-.28-.98-1.31-5.54-1.49-19.5Z"/>
  <path d="M130.74,30.37v-.09H33.82s0,0-.01,0v8.37h.01s96.91,0,96.91,0h0s0,0,.01,0v-8.28h-.01Z"/>
  <path d="M97.06,66.17h-.03c0,15.13,0,30.26,0,45.4,0,7.7-4.17,13.85-11.37,16.52-3.35,1.24-6.76,2.3-10.13,3.49l-3.71,1.26c-.64,6.79.9,8.56.9,8.56l5.76-2.03c3.54-1.18,7.1-2.31,10.62-3.56,9.18-3.27,16.18-12.77,16.22-22.52.07-15.7.09-31.4.1-47.1h-8.37Z"/>
  <path d="M43.61,137.16c-.28-2.14-.7-4.27-1-6.41-.17-1.49-.31-2.99-.38-4.33,0-.03,0-.07,0-.1-.02-2.31-.03-4.63-.05-6.94v-53.2h-8.37v55.46s0,3.86,2.06,7.66c0,0,.04.09.12.25.02.05.04.09.07.13.07.15.16.33.29.56.4.78.83,1.55,1.33,2.3.42.63,1.04,1.37,1.73,2.12.76.88,1.65,1.79,2.67,2.66.89.8,1.56,1.33,1.64,1.27-.03-.47-.04-.95-.1-1.42Z"/>
</svg>
