<?xml version="1.0" encoding="UTF-8"?>
<svg id="Layer_1" xmlns="http://www.w3.org/2000/svg" viewBox="0 0 476.84 107.02">
  <defs>
    <style>
      .cls-1 {
        fill: #f4f5f7;
      }
    </style>
  </defs>
  <path class="cls-1" d="M59.42,34.14h12.23v23.62c0,2.34-.37,4.55-1.1,6.64s-1.88,3.9-3.43,5.46c-1.56,1.56-3.2,2.65-4.91,3.28-2.38.88-5.24,1.32-8.57,1.32-1.93,0-4.03-.14-6.32-.41-2.28-.27-4.19-.81-5.72-1.61-1.53-.8-2.93-1.94-4.21-3.42-1.27-1.48-2.14-3-2.61-4.57-.76-2.52-1.14-4.76-1.14-6.7v-23.62h12.23v24.19c0,2.16.6,3.85,1.8,5.07,1.2,1.22,2.86,1.82,4.99,1.82s3.76-.6,4.96-1.8c1.2-1.2,1.8-2.9,1.8-5.09v-24.19Z"/>
  <path class="cls-1" d="M77.14,34.14h16.11l6.21,24.13,6.17-24.13h16.1v39.65h-10.03v-30.24l-7.73,30.24h-9.08l-7.72-30.24v30.24h-10.03v-39.65Z"/>
  <path class="cls-1" d="M127.21,34.14h16.11l6.21,24.13,6.17-24.13h16.1v39.65h-10.03v-30.24l-7.73,30.24h-9.08l-7.72-30.24v30.24h-10.03v-39.65Z"/>
  <path class="cls-1" d="M204,67.24h-13.91l-1.93,6.55h-12.51l14.9-39.65h13.36l14.9,39.65h-12.83l-1.98-6.55ZM201.46,58.67l-4.38-14.25-4.33,14.25h8.71Z"/>
  <path class="cls-1" d="M222.76,34.14h12.25v13.88h13.39v-13.88h12.31v39.65h-12.31v-16.04h-13.39v16.04h-12.25v-39.65Z"/>
  <path class="cls-1" d="M280.11,34.14h37.24v9.79h-12.5v29.86h-12.25v-29.86h-12.5v-9.79Z"/>
  <path class="cls-1" d="M322.87,34.14h32.83v8.47h-20.56v6.3h19.07v8.09h-19.07v7.82h21.15v8.98h-33.43v-39.65Z"/>
  <path class="cls-1" d="M389.29,57.56l10.74,3.25c-.72,3.01-1.86,5.53-3.41,7.55-1.55,2.02-3.48,3.54-5.77,4.57s-5.22,1.54-8.78,1.54c-4.31,0-7.83-.63-10.56-1.88s-5.09-3.46-7.07-6.61c-1.98-3.15-2.98-7.19-2.98-12.11,0-6.56,1.74-11.6,5.23-15.12,3.49-3.52,8.43-5.28,14.81-5.28,4.99,0,8.92,1.01,11.78,3.03,2.86,2.02,4.98,5.12,6.37,9.3l-10.82,2.41c-.38-1.21-.77-2.09-1.19-2.65-.69-.94-1.52-1.66-2.52-2.16-.99-.5-2.1-.76-3.33-.76-2.78,0-4.9,1.12-6.38,3.35-1.12,1.66-1.68,4.26-1.68,7.81,0,4.4.67,7.41,2,9.04,1.33,1.63,3.21,2.45,5.63,2.45s4.12-.66,5.31-1.97c1.2-1.32,2.07-3.23,2.61-5.73Z"/>
  <path class="cls-1" d="M406.04,34.14h12.25v13.88h13.39v-13.88h12.31v39.65h-12.31v-16.04h-13.39v16.04h-12.25v-39.65Z"/>
</svg>