<svg xmlns="http://www.w3.org/2000/svg" width="73" height="22"><path fill="#00447B" d="M64.8 21.1c4.4 0 8-3.5 8-8s-3.6-8-8-8c-4.5 0-8.1 3.5-8.1 8s3.6 8 8.1 8ZM26.4 21c7.1 0 12.5-8.7 12.9-15.7h-5.2c-.6 4.5-2.1 7.8-4 9.4-.1.1-.2 0-.2-.1l-.7-9.2H24l1.4 14.9c.1.6.6.7 1 .7Zm17 0c7 0 12.4-8.7 12.8-15.7H51c-.6 4.5-2.1 7.8-4 9.4-.1.1-.2 0-.2-.1l-.7-9.2H41l1.3 14.9c.1.6.6.7 1.1.7ZM14.9 6.8c.2-.2.3-.1.3 0l.5 6.1H9.8c1.8-2.7 3.6-4.8 5.1-6.1Zm49.9 9.7c-1.8 0-3.2-1.4-3.2-3.4 0-1.9 1.4-3.4 3.2-3.4 1.8 0 3.3 1.5 3.3 3.4 0 2-1.5 3.4-3.3 3.4Zm-48.5 4.4h5.6L20.2 1.1c-.1-.8-.7-1-1.7-.9C11.5 1 2.9 12.6 0 20.9h5.7c.4-1.2 1-2.4 1.6-3.5H16l.3 3.5Z"/></svg>