<svg xmlns="http://www.w3.org/2000/svg" id="Mech" viewBox="0 0 437.09 63.74">
  <defs>
    <style>
      .cls-1 {
        fill: #231f20;
      }

      .cls-2 {
        fill: #da2128;
      }
    </style>
  </defs>
  <g>
    <path class="cls-1" d="M110.72,26.48c3.42,6.51,7,13.18,10.75,20.03.48-.92,1.19-2.25,2.11-3.97.92-1.72,1.99-3.7,3.21-5.94,1.21-2.23,2.51-4.65,3.9-7.25,1.38-2.6,2.79-5.23,4.23-7.9,1.43-2.67,2.85-5.29,4.26-7.87,1.41-2.57,2.72-4.98,3.93-7.21h.95c.53,4.66,1.03,9.17,1.49,13.51.46,4.35.93,8.62,1.42,12.82.48,4.2.97,8.35,1.46,12.46.48,4.1,1.02,8.17,1.6,12.2-.58-.1-1.15-.15-1.71-.15h-3.42c-.56,0-1.13.05-1.71.15-.54-6.46-1.07-12.72-1.6-18.79-.54-6.07-1.19-12.26-1.97-18.58h-.15c-3.35,6.12-6.64,12.2-9.87,18.25-3.23,6.05-6.3,12.37-9.22,18.98h-.66c-2.91-6.12-5.96-12.25-9.14-18.39-3.18-6.14-6.37-12.42-9.58-18.83h-.15c-.34,3.01-.72,6.28-1.13,9.8-.41,3.52-.79,6.99-1.13,10.42-.34,3.42-.63,6.65-.87,9.69-.24,3.04-.36,5.53-.36,7.47-.78-.1-1.63-.15-2.55-.15s-1.77.05-2.55.15c.63-3.93,1.29-8.09,1.97-12.46.68-4.37,1.34-8.77,1.97-13.19.63-4.42,1.21-8.78,1.75-13.08.53-4.3.99-8.39,1.38-12.27h1.24c3.35,6.9,6.74,13.6,10.16,20.11Z"/>
    <path class="cls-1" d="M165.76,22.91c1.85-.58,3.74-.87,5.68-.87,1.75,0,3.35.25,4.81.77,1.46.51,2.71,1.24,3.74,2.19,1.03.95,1.85,2.09,2.44,3.42.59,1.34.88,2.81.88,4.41,0,2.77-.05,5.53-.15,8.27-.1,2.74-.15,5.65-.15,8.71,0,.58.01,1.2.04,1.86.02.66.13,1.24.33,1.75.19.51.47.94.84,1.28.36.34.91.51,1.64.51.24,0,.5-.01.76-.04.27-.02.52-.11.76-.25v1.6c-.53.24-1.2.44-2,.58s-1.69.22-2.66.22c-1.58,0-2.78-.4-3.62-1.2-.84-.8-1.33-1.83-1.48-3.1-1.74,1.75-3.46,3.04-5.15,3.86-1.69.82-3.77,1.24-6.24,1.24-1.21,0-2.4-.17-3.56-.51-1.16-.34-2.19-.9-3.08-1.68-.9-.78-1.62-1.71-2.18-2.81-.56-1.09-.83-2.34-.83-3.75,0-2.91.91-5.17,2.72-6.77,1.81-1.6,4.32-2.67,7.51-3.21,2.61-.44,4.66-.81,6.13-1.13,1.48-.32,2.57-.64,3.27-.98.7-.34,1.12-.74,1.27-1.2.15-.46.22-1.06.22-1.78,0-1.21-.15-2.38-.44-3.5-.29-1.12-.75-2.09-1.38-2.91-.63-.82-1.46-1.49-2.48-2-1.02-.51-2.26-.76-3.71-.76-1.94,0-3.75.44-5.43,1.31-1.68.87-2.93,2.09-3.75,3.64h-.8v-3.79c2.19-1.65,4.2-2.77,6.05-3.35ZM174.84,39.96c-1.09.19-2.19.4-3.3.62-1.11.22-2.21.5-3.3.84-1.09.34-2.05.8-2.9,1.38-.85.58-1.52,1.31-2.03,2.19-.51.87-.76,1.99-.76,3.35,0,2.28.65,4.01,1.96,5.17,1.3,1.17,2.75,1.75,4.35,1.75,1.84,0,3.52-.51,5.04-1.53,1.52-1.02,2.69-2.21,3.52-3.57l.29-10.93c-.82.29-1.78.53-2.86.73Z"/>
    <path class="cls-1" d="M210.74,27.94c-.7-.24-1.42-.36-2.15-.36-1.17,0-2.21.27-3.13.8-.92.53-1.7,1.25-2.33,2.15-.63.9-1.12,1.97-1.46,3.21-.34,1.24-.51,2.56-.51,3.97v8.01c0,3.25.01,5.74.04,7.47.02,1.72.11,3.12.25,4.19-.97-.1-1.94-.15-2.91-.15-1.07,0-2.09.05-3.06.15.15-1.65.23-3.9.25-6.74.02-2.84.04-6.33.04-10.45v-2.33c0-1.89-.01-4.08-.04-6.56-.02-2.48-.11-5.32-.25-8.52.53.1,1.04.18,1.53.25.48.07.99.11,1.53.11.44,0,.9-.04,1.38-.11.48-.07,1-.16,1.53-.25-.19,1.75-.3,3.13-.33,4.15-.03,1.02-.04,1.99-.04,2.91l.15.07c2.86-5.24,6.07-7.87,9.62-7.87.44,0,.81.03,1.13.07.32.05.72.17,1.2.36-.24.58-.39,1.47-.44,2.66-.05,1.19-.07,2.27-.07,3.24l-.51.36c-.24-.29-.72-.56-1.42-.8Z"/>
    <path class="cls-1" d="M226.37,13c-.15,1.85-.25,3.65-.33,5.43-.07,1.77-.16,3.56-.25,5.35.53,0,1.53-.01,2.99-.04,1.46-.02,3.03-.08,4.73-.18-.05.15-.07.41-.07.8v1.53c0,.34.02.58.07.73-.63-.05-1.29-.08-1.97-.11-.68-.02-1.41-.04-2.19-.04h-3.57c-.05.19-.11.97-.18,2.33-.07,1.36-.13,2.98-.18,4.84-.05,1.87-.08,3.82-.11,5.86-.02,2.04-.04,3.86-.04,5.46,0,1.36.04,2.7.11,4.01.07,1.31.3,2.49.69,3.53.39,1.04.97,1.88,1.75,2.51.78.63,1.89.95,3.35.95.39,0,.91-.05,1.57-.15.66-.1,1.23-.22,1.71-.36v1.75c-.83.15-1.74.33-2.73.55-1,.22-1.96.33-2.88.33-3.06,0-5.32-.75-6.77-2.26-1.46-1.5-2.19-3.71-2.19-6.63,0-1.31.02-2.73.07-4.26.05-1.53.11-3.21.18-5.03.07-1.82.13-3.84.18-6.05.05-2.21.07-4.67.07-7.39h-2.33c-.39,0-.8.01-1.24.04-.44.03-.9.06-1.38.11.05-.29.08-.57.11-.84.02-.27.04-.55.04-.84,0-.24-.01-.48-.04-.73-.02-.24-.06-.48-.11-.73,2.19.15,3.79.22,4.81.22-.05-.97-.08-2.19-.11-3.64-.02-1.46-.08-2.96-.18-4.52l6.05-2.55h.36Z"/>
    <path class="cls-1" d="M241.95,7.47c.73-.73,1.6-1.09,2.62-1.09s1.89.36,2.62,1.09c.73.73,1.09,1.6,1.09,2.62s-.36,1.89-1.09,2.62-1.6,1.09-2.62,1.09-1.89-.36-2.62-1.09c-.73-.73-1.09-1.6-1.09-2.62s.36-1.89,1.09-2.62ZM241.77,29.5c-.07-2.4-.23-4.65-.47-6.74,1.36.24,2.45.36,3.28.36s1.92-.12,3.28-.36c-.24,2.09-.4,4.33-.47,6.74-.07,2.4-.11,4.7-.11,6.88v7.58c0,2.19.04,4.48.11,6.88.07,2.4.23,4.58.47,6.52-1.12-.1-2.21-.15-3.28-.15s-2.16.05-3.28.15c.24-1.94.4-4.12.47-6.52.07-2.4.11-4.7.11-6.88v-7.58c0-2.19-.04-4.48-.11-6.88Z"/>
    <path class="cls-1" d="M281.87,28.63c-1.41-1.87-3.35-2.81-5.83-2.81-3.4,0-5.89,1.04-7.47,3.13-1.58,2.09-2.37,5.03-2.37,8.81v6.19c0,2.19.04,4.48.11,6.88.07,2.4.23,4.58.47,6.52-1.12-.1-2.21-.15-3.28-.15s-2.16.05-3.28.15c.24-1.94.4-4.12.47-6.52.07-2.4.11-4.7.11-6.88v-7.58c0-2.19-.04-4.48-.11-6.88-.07-2.4-.23-4.65-.47-6.74,1.36.24,2.45.36,3.28.36.39,0,.81-.04,1.28-.11.46-.07,1.01-.16,1.64-.25-.15,1.94-.22,3.89-.22,5.83h.15c1.36-2.09,3-3.7,4.9-4.84,1.9-1.14,4.17-1.71,6.8-1.71,1.36,0,2.74.19,4.13.58,1.39.39,2.64,1.06,3.76,2,1.12.95,2.03,2.23,2.74,3.86.71,1.63,1.06,3.7,1.06,6.23,0,2.09-.05,4.24-.15,6.45-.1,2.21-.15,4.55-.15,7.03v4.73c0,.78.01,1.54.04,2.29.02.75.06,1.47.11,2.15-.98-.1-2.01-.15-3.1-.15s-2.04.05-3.02.15c.1-2.52.21-5.12.33-7.79.12-2.67.18-5.41.18-8.23v-4.44c0-3.64-.7-6.4-2.11-8.27Z"/>
    <path class="cls-1" d="M325.36,50.45c-.39.78-.91,1.61-1.57,2.51-.66.9-1.48,1.74-2.48,2.51-1,.78-2.17,1.41-3.53,1.89-1.36.48-2.94.73-4.74.73s-3.65-.32-5.43-.95c-1.77-.63-3.35-1.66-4.73-3.1-1.38-1.43-2.5-3.28-3.35-5.54-.85-2.26-1.28-4.97-1.28-8.12s.46-5.8,1.38-8.09c.92-2.28,2.12-4.19,3.61-5.72,1.48-1.53,3.16-2.67,5.03-3.42,1.87-.75,3.75-1.13,5.65-1.13,5.39,0,9.13,2.43,11.22,7.29h.15v-7.14c0-1.85-.01-3.7-.04-5.57-.03-1.87-.05-3.65-.07-5.35-.02-1.7-.05-3.3-.07-4.81-.03-1.5-.06-2.84-.11-4.01.58.1,1.14.18,1.68.25.53.07,1.07.11,1.6.11s1.06-.04,1.57-.11c.51-.07,1.08-.16,1.71-.25-.15,1.55-.27,3.8-.36,6.74-.1,2.94-.18,6.18-.25,9.72-.07,3.55-.13,7.19-.18,10.93-.05,3.74-.07,7.16-.07,10.27,0,3.35.02,6.36.07,9.03.05,2.67.1,5.42.15,8.23-.97-.1-1.92-.15-2.84-.15-.87,0-1.8.05-2.77.15l.22-6.92h-.15ZM305.59,48.04c.61,1.89,1.38,3.41,2.33,4.55.95,1.14,2.03,1.93,3.24,2.37,1.21.44,2.4.66,3.57.66,1.89,0,3.52-.47,4.88-1.42,1.36-.95,2.49-2.19,3.39-3.71.9-1.53,1.55-3.27,1.97-5.21.41-1.94.62-3.88.62-5.83,0-4.66-.9-8.22-2.7-10.67-1.8-2.45-4.44-3.68-7.94-3.68-1.75,0-3.27.4-4.55,1.2-1.29.8-2.36,1.92-3.21,3.35-.85,1.43-1.48,3.11-1.89,5.03-.41,1.92-.62,3.97-.62,6.16,0,2.91.3,5.32.91,7.21Z"/>
    <path class="cls-1" d="M347.95,22.91c1.85-.58,3.74-.87,5.68-.87,1.75,0,3.35.25,4.81.77,1.46.51,2.71,1.24,3.74,2.19,1.03.95,1.85,2.09,2.44,3.42.59,1.34.88,2.81.88,4.41,0,2.77-.05,5.53-.15,8.27-.1,2.74-.15,5.65-.15,8.71,0,.58.01,1.2.04,1.86.02.66.13,1.24.33,1.75.19.51.47.94.84,1.28.36.34.91.51,1.64.51.24,0,.5-.01.76-.04.27-.02.52-.11.76-.25v1.6c-.53.24-1.2.44-2,.58s-1.69.22-2.66.22c-1.58,0-2.78-.4-3.62-1.2-.84-.8-1.33-1.83-1.48-3.1-1.74,1.75-3.46,3.04-5.15,3.86-1.69.82-3.77,1.24-6.24,1.24-1.21,0-2.4-.17-3.56-.51-1.16-.34-2.19-.9-3.08-1.68-.9-.78-1.62-1.71-2.18-2.81-.56-1.09-.83-2.34-.83-3.75,0-2.91.91-5.17,2.72-6.77,1.81-1.6,4.32-2.67,7.51-3.21,2.61-.44,4.66-.81,6.13-1.13,1.48-.32,2.57-.64,3.27-.98.7-.34,1.12-.74,1.27-1.2.15-.46.22-1.06.22-1.78,0-1.21-.15-2.38-.44-3.5-.29-1.12-.75-2.09-1.38-2.91-.63-.82-1.46-1.49-2.48-2-1.02-.51-2.26-.76-3.71-.76-1.94,0-3.75.44-5.43,1.31-1.68.87-2.93,2.09-3.75,3.64h-.8v-3.79c2.19-1.65,4.2-2.77,6.05-3.35ZM357.03,39.96c-1.09.19-2.19.4-3.3.62-1.11.22-2.21.5-3.3.84-1.09.34-2.05.8-2.9,1.38-.85.58-1.52,1.31-2.03,2.19-.51.87-.76,1.99-.76,3.35,0,2.28.65,4.01,1.96,5.17,1.3,1.17,2.75,1.75,4.35,1.75,1.84,0,3.52-.51,5.04-1.53,1.52-1.02,2.69-2.21,3.52-3.57l.29-10.93c-.82.29-1.78.53-2.86.73Z"/>
    <path class="cls-1" d="M377.14,18.03c-.03-1.94-.06-3.86-.11-5.76-.05-1.89-.11-3.7-.18-5.43-.07-1.72-.16-3.19-.25-4.41,1.36.24,2.45.36,3.28.36s1.92-.12,3.28-.36c-.1,1.21-.18,2.68-.25,4.41-.07,1.72-.13,3.53-.18,5.43-.05,1.89-.08,3.81-.11,5.76-.02,1.94-.04,3.74-.04,5.39v13.19c0,1.65.01,3.45.04,5.39.02,1.94.06,3.86.11,5.76.05,1.89.11,3.69.18,5.39.07,1.7.16,3.11.25,4.23-1.12-.1-2.21-.15-3.28-.15s-2.16.05-3.28.15c.1-1.12.18-2.52.25-4.23.07-1.7.13-3.5.18-5.39.05-1.89.08-3.81.11-5.76.02-1.94.04-3.74.04-5.39v-13.19c0-1.65-.01-3.45-.04-5.39Z"/>
    <path class="cls-1" d="M396.81,27.14c2.84-3.4,6.98-5.1,12.42-5.1,2.57,0,4.8.4,6.67,1.2,1.87.8,3.44,1.87,4.7,3.21,1.26,1.34,2.2,2.9,2.8,4.7.61,1.8.91,3.72.91,5.76,0,.49-.01.96-.04,1.42-.02.46-.06.94-.11,1.42-2.62-.05-5.22-.1-7.79-.15-2.57-.05-5.17-.07-7.79-.07-1.6,0-3.19.03-4.77.07-1.58.05-3.17.1-4.77.15-.05.24-.07.61-.07,1.09v.95c0,1.89.28,3.67.84,5.32.56,1.65,1.37,3.07,2.44,4.26,1.07,1.19,2.38,2.14,3.93,2.84,1.55.7,3.35,1.06,5.39,1.06.97,0,1.97-.13,2.99-.4,1.02-.27,2.01-.63,2.99-1.09.97-.46,1.88-1.01,2.73-1.64.85-.63,1.59-1.31,2.22-2.04l.36.22-.44,3.57c-1.46,1.17-3.27,2.16-5.43,2.99-2.16.82-4.41,1.24-6.74,1.24-2.62,0-5.02-.4-7.18-1.2-2.16-.8-4.03-1.97-5.61-3.5-1.58-1.53-2.79-3.34-3.64-5.43-.85-2.09-1.28-4.35-1.28-6.77,0-5.97,1.42-10.66,4.26-14.06ZM404.82,25.61c-1.24.83-2.26,1.86-3.06,3.1-.8,1.24-1.41,2.6-1.82,4.08-.41,1.48-.67,2.88-.77,4.19,1.51.05,3.07.1,4.7.15,1.63.05,3.22.07,4.77.07s3.23-.02,4.88-.07c1.65-.05,3.25-.1,4.81-.15,0-1.31-.11-2.7-.33-4.15-.22-1.46-.66-2.82-1.31-4.08-.66-1.26-1.57-2.31-2.73-3.13-1.17-.83-2.7-1.24-4.59-1.24s-3.31.41-4.55,1.24Z"/>
    <path class="cls-1" d="M432.42,22.07c2.58,0,4.67,2.08,4.67,4.66s-2.09,4.67-4.67,4.67-4.67-2.09-4.67-4.67,2.08-4.66,4.67-4.66ZM432.42,30.92c2.31,0,4.12-1.88,4.12-4.19s-1.81-4.18-4.12-4.18-4.12,1.88-4.12,4.18,1.82,4.19,4.12,4.19ZM430.69,25.51c0-.59-.04-1.28-.09-1.76.35.04.7.07,1.07.07s.71-.07,1.06-.07c.91,0,1.64.41,1.64,1.3,0,1.07-1.13,1.57-1.79,1.62.68.85,1.77,2.38,2.3,2.83v.06c-.17-.03-.34-.06-.49-.06-.17,0-.34.03-.51.06-.64-.92-1.34-1.85-2.1-2.78h-.42v.91c0,.63.03,1.25.08,1.87-.14-.03-.29-.06-.42-.06-.14,0-.28.03-.43.06.03-.61.09-1.21.09-1.82v-2.23ZM431.37,26.41c.09.02.3.05.55.05.89,0,1.64-.36,1.64-1.32,0-.67-.51-1.08-1.21-1.08-.32,0-.64.02-.9.06-.04.41-.08.82-.08,1.23v1.06Z"/>
  </g>
  <polyline class="cls-2" points="18.4 63.74 0 31.87 18.4 0 55.2 0 73.6 31.87 55.2 63.74 18.4 63.74"/>
</svg>